<?xml version="1.0" standalone="no"?>
<!DOCTYPE svg PUBLIC "-//W3C//DTD SVG 1.1//EN" "http://www.w3.org/Graphics/SVG/1.1/DTD/svg11.dtd" >
<svg xmlns="http://www.w3.org/2000/svg" xmlns:xlink="http://www.w3.org/1999/xlink" version="1.1">
<metadata>
Created by FontForge 20150504 at Fri Jun 12 07:25:23 2015
 By Jimmy Wärting
Copyright (c) 2000 Adobe Systems Incorporated.  All Rights Reserved.Lithos is either a registered trademark or a trademark of Adobe Systems Incorporated in the United States and/or other countries.
</metadata>
<defs>
<font id="LithosPro-Bold" horiz-adv-x="745" >
  <font-face 
    font-family="Lithos Pro"
    font-weight="700"
    font-stretch="normal"
    units-per-em="1000"
    panose-1="4 2 8 5 3 14 2 2 10 4"
    ascent="727"
    descent="-273"
    x-height="608"
    cap-height="706"
    bbox="-179 -286 1430 947"
    underline-thickness="50"
    underline-position="-100"
    stemh="104"
    stemv="160"
    unicode-range="U+0020-FB02"
  />
<missing-glyph horiz-adv-x="500" 
d="M0 0v700h500v-700h-500zM250 395l170 255h-340zM280 350l170 -255v510zM80 50h340l-170 255zM50 605v-510l170 255z" />
    <glyph glyph-name=".notdef" horiz-adv-x="500" 
d="M0 0v700h500v-700h-500zM250 395l170 255h-340zM280 350l170 -255v510zM80 50h340l-170 255zM50 605v-510l170 255z" />
    <glyph glyph-name="space" unicode=" " horiz-adv-x="270" 
 />
    <glyph glyph-name="exclam" unicode="!" horiz-adv-x="318" 
d="M70 713l187 -8c-9 -89 -47 -345 -58 -469l-102 -8c-8 129 -21 368 -27 485zM77 129h140v-129h-140v129z" />
    <glyph glyph-name="quotedbl" unicode="&#x22;" horiz-adv-x="355" 
d="M37 722h111l-23 -215h-64zM208 722h111l-23 -215h-64z" />
    <glyph glyph-name="numbersign" unicode="#" horiz-adv-x="652" 
d="M596 385h-108l-18 -116h93v-98h-111l-26 -171h-95l26 171h-114l-26 -171h-95l26 171h-93v98h112l18 116h-96v98h112l27 167h93l-27 -167h116l27 167h94l-27 -167h92v-98zM393 385h-114l-18 -116h115z" />
    <glyph glyph-name="dollar" unicode="$" horiz-adv-x="773" 
d="M336 -84l3 128c-27 -10 -112 -25 -134 -27l-14 127c120 5 225 53 225 93c0 38 -26 57 -91 90c-76 38 -140 85 -140 156c0 74 74 136 154 169l-3 143h106l-4 -109c18 7 89 22 111 23l10 -129c-95 0 -200 -35 -200 -84c0 -33 31 -53 99 -85c78 -37 131 -81 131 -153
c0 -92 -98 -163 -151 -188l4 -154h-106z" />
    <glyph glyph-name="percent" unicode="%" horiz-adv-x="1000" 
d="M262 706c124 0 199 -63 199 -191c0 -68 -50 -194 -216 -194c-143 0 -205 86 -205 182c0 93 72 203 222 203zM254 623c-67 0 -98 -59 -98 -114c0 -62 40 -105 91 -105c54 0 97 37 97 108c0 79 -42 111 -90 111zM743 0c-142 0 -205 86 -205 182c0 93 73 203 222 203
c125 0 200 -64 200 -192c0 -68 -51 -193 -217 -193zM745 79c49 0 97 36 97 108c0 77 -43 111 -89 111c-66 0 -99 -58 -99 -114c0 -62 38 -105 91 -105zM675 727l85 -50c-33 -47 -118 -175 -210 -328c-95 -158 -185 -317 -215 -370l-83 54c36 56 123 200 219 358
c89 146 175 283 204 336z" />
    <glyph glyph-name="ampersand" unicode="&#x26;" horiz-adv-x="670" 
d="M173 188c0 -42 43 -75 95 -75c40 0 90 17 112 37c-62 42 -130 104 -159 135c-22 -22 -48 -56 -48 -97zM677 103l-96 -124c-41 27 -85 63 -114 88c-59 -50 -126 -83 -241 -83c-123 0 -208 66 -208 163s84 176 134 218c-37 39 -60 75 -60 119c0 109 134 201 329 234
l23 -141c-122 -8 -191 -40 -192 -90c2 -43 55 -89 119 -145c38 -34 77 -66 111 -91c18 25 40 61 64 105l115 -76c-35 -49 -66 -87 -84 -104c39 -33 74 -56 100 -73z" />
    <glyph glyph-name="quoteright" unicode="&#x2019;" horiz-adv-x="201" 
d="M75 722l103 -47l-103 -188l-58 26z" />
    <glyph glyph-name="parenleft" unicode="(" horiz-adv-x="347" 
d="M245 782l75 -88c-41 -30 -153 -133 -153 -351c0 -186 115 -306 157 -331l-79 -92c-76 49 -210 195 -210 413c0 235 134 397 210 449z" />
    <glyph glyph-name="parenright" unicode=")" horiz-adv-x="347" 
d="M23 690l79 92c76 -49 210 -195 210 -413c0 -235 -134 -398 -210 -449l-75 89c41 29 153 131 153 350c0 185 -115 306 -157 331z" />
    <glyph glyph-name="asterisk" unicode="*" horiz-adv-x="368" 
d="M336 617l2 -85c-14 2 -93 15 -105 16c3 -5 55 -67 70 -87l-80 -40c-6 26 -30 141 -33 150c30 10 119 38 146 46zM68 680l71 51c6 -17 41 -94 46 -105c5 13 33 83 40 106l74 -48c-20 -18 -108 -101 -115 -107c-24 23 -98 88 -116 103zM31 530l5 88c19 -7 134 -43 143 -47
c-8 -29 -30 -124 -35 -149l-75 35c10 17 65 86 68 91c-7 -1 -90 -14 -106 -18z" />
    <glyph glyph-name="plus" unicode="+" horiz-adv-x="596" 
d="M248 532h101v-218h208v-94h-208v-220h-101v220h-208v94h208v218z" />
    <glyph glyph-name="comma" unicode="," horiz-adv-x="293" 
d="M116 147l127 -57l-134 -218l-58 27z" />
    <glyph glyph-name="hyphen" unicode="-" horiz-adv-x="391" 
d="M38 290l-5 122c51 -1 281 -3 322 -2l3 -109c-39 3 -282 -8 -320 -11z" />
    <glyph glyph-name="period" unicode="." horiz-adv-x="293" 
d="M75 137h144v-137h-144v137z" />
    <glyph glyph-name="slash" unicode="/" horiz-adv-x="421" 
d="M460 652c-21 -27 -115 -167 -206 -315c-94 -152 -183 -306 -213 -357l-81 56c23 33 119 189 214 342c88 141 172 273 201 324z" />
    <glyph glyph-name="zero" unicode="0" horiz-adv-x="773" 
d="M378 17c-194 0 -345 124 -345 324c0 196 149 349 361 349c218 0 346 -136 346 -323c0 -180 -130 -350 -362 -350zM387 148c92 0 181 76 181 215c0 131 -84 196 -179 196c-91 0 -184 -68 -184 -213c2 -112 74 -198 182 -198z" />
    <glyph glyph-name="one" unicode="1" horiz-adv-x="773" 
d="M523 0h-173c0 26 5 152 5 286v222c-27 -18 -89 -58 -121 -80l-59 94c24 15 236 144 340 208l13 -7c-1 -42 -7 -170 -7 -305v-153c-1 -144 0 -234 2 -265z" />
    <glyph glyph-name="two" unicode="2" horiz-adv-x="773" 
d="M624 135v-143c-30 3 -264 7 -457 8h-68l-10 25c96 75 320 250 320 397c0 129 -160 167 -262 172l26 129c283 -27 411 -146 411 -276c0 -157 -156 -267 -214 -315v-9z" />
    <glyph glyph-name="three" unicode="3" horiz-adv-x="773" 
d="M149 -24l-7 125c88 -7 255 28 255 124c0 79 -136 98 -189 99l-4 68c58 2 177 35 177 113c0 70 -119 97 -206 97l13 123c182 -5 371 -64 371 -187c0 -73 -74 -139 -132 -163v-4c84 -20 154 -68 154 -148c0 -139 -197 -243 -432 -247z" />
    <glyph glyph-name="four" unicode="4" horiz-adv-x="773" 
d="M572 0h-158c1 28 5 66 5 109v25h-336l-22 55l434 541l77 -19l-1 -466l111 4l-7 -118l-105 4v-37c0 -27 1 -69 2 -98zM425 245v235h-2c-60 -88 -144 -196 -174 -235h176z" />
    <glyph glyph-name="five" unicode="5" horiz-adv-x="773" 
d="M177 -24l-27 127c102 12 261 64 261 164c0 71 -85 107 -237 116l44 322c68 1 311 9 376 13l-1 -142l-260 8l-15 -89c228 -27 276 -118 276 -205c0 -138 -183 -280 -417 -314z" />
    <glyph glyph-name="six" unicode="6" horiz-adv-x="773" 
d="M451 740l83 -120c-53 -28 -136 -90 -183 -171c179 2 305 -95 304 -218c-2 -142 -130 -247 -282 -247c-66 0 -128 14 -178 56c-55 46 -77 113 -77 184c0 198 168 417 333 516zM286 218c0 -70 39 -123 101 -123c57 0 99 48 99 114c0 88 -75 141 -177 139
c-15 -33 -23 -72 -23 -130z" />
    <glyph glyph-name="seven" unicode="7" horiz-adv-x="773" 
d="M364 -25l-158 69c22 39 234 497 247 529l-323 1l-4 141c87 -2 381 -10 514 -9l7 -11c-34 -83 -259 -650 -283 -720z" />
    <glyph glyph-name="eight" unicode="8" horiz-adv-x="773" 
d="M379 -16c-194 0 -265 88 -265 192c0 77 50 150 121 187c-70 30 -113 94 -113 162c0 92 84 198 274 197c164 0 253 -71 253 -178c0 -58 -34 -133 -119 -172c84 -33 129 -97 129 -179c0 -88 -71 -209 -280 -209zM384 77c56 0 109 37 109 118c0 79 -52 120 -106 120
c-70 0 -110 -56 -110 -125s50 -113 107 -113zM389 629c-68 0 -105 -48 -105 -110c0 -59 44 -107 98 -107c53 0 104 37 104 112c0 78 -50 105 -97 105z" />
    <glyph glyph-name="nine" unicode="9" horiz-adv-x="773" 
d="M325 -34l-81 121c49 28 131 92 177 170c-180 -2 -300 90 -299 216c3 133 126 251 275 249c77 0 138 -19 188 -66c45 -42 67 -99 67 -174c0 -200 -167 -416 -327 -516zM487 483c0 79 -38 128 -100 128c-55 0 -100 -52 -100 -118c0 -89 72 -141 178 -136
c12 27 22 69 22 126z" />
    <glyph glyph-name="colon" unicode=":" horiz-adv-x="293" 
d="M77 149h140v-133h-140v133zM77 495h140v-132h-140v132z" />
    <glyph glyph-name="semicolon" unicode=";" horiz-adv-x="293" 
d="M104 157l119 -54l-126 -212l-51 25zM77 495h140v-132h-140v132z" />
    <glyph glyph-name="less" unicode="&#x3c;" horiz-adv-x="596" 
d="M60 217v97l476 218v-101l-379 -164v-2l379 -164v-101z" />
    <glyph glyph-name="equal" unicode="=" horiz-adv-x="596" 
d="M556 331h-516v94h516v-94zM556 111h-516v94h516v-94z" />
    <glyph glyph-name="greater" unicode="&#x3e;" horiz-adv-x="596" 
d="M536 309v-86l-476 -223v102l367 163v2l-367 164v101z" />
    <glyph glyph-name="question" unicode="?" horiz-adv-x="489" 
d="M36 605l23 121c218 -30 377 -110 377 -230c0 -151 -169 -244 -291 -278l-35 97c52 15 150 63 150 152c0 94 -129 131 -224 138zM259 129v-129h-140v129h140z" />
    <glyph glyph-name="at" unicode="@" horiz-adv-x="795" 
d="M350 313l100 2c-10 20 -46 87 -52 98c-8 -15 -40 -80 -48 -100zM598 31c-53 -28 -114 -50 -204 -50c-202 0 -349 137 -349 332c0 200 154 364 360 364c201 0 345 -138 345 -329c0 -56 -14 -99 -40 -133c-22 -30 -58 -52 -107 -52c-39 0 -73 15 -97 47c-6 8 -16 22 -26 39
l-157 -3c-7 -13 -31 -65 -39 -81l-75 43c29 49 168 311 183 336h13c46 -74 135 -238 157 -274c17 -27 31 -40 50 -40c37 0 59 43 59 112c0 146 -117 271 -267 271c-158 0 -276 -127 -276 -294c0 -168 125 -274 269 -274c69 0 120 21 169 50z" />
    <glyph glyph-name="A" unicode="A" horiz-adv-x="827" 
d="M154 -27l-146 84c40 70 322 579 389 685h7c107 -165 363 -599 415 -676l-152 -92c-25 45 -98 181 -109 196l-320 -15c-9 -20 -62 -140 -84 -182zM290 271l216 10c-21 42 -94 178 -109 209c-20 -39 -88 -180 -107 -219z" />
    <glyph glyph-name="B" unicode="B" horiz-adv-x="693" 
d="M182 -6h-62c5 55 5 357 5 376v111c0 30 0 204 -5 225c110 0 173 -3 241 -10c206 -22 234 -103 234 -159c0 -37 -20 -102 -126 -151v-5c69 -12 157 -61 157 -155c0 -115 -151 -231 -444 -232zM285 321v-223c77 5 167 52 167 122c0 66 -74 105 -167 101zM285 611v-208
c71 2 142 53 142 122c0 74 -89 87 -142 86z" />
    <glyph glyph-name="C" unicode="C" horiz-adv-x="651" 
d="M598 134l10 -141c-33 -5 -73 -9 -125 -9c-334 0 -440 182 -440 299c0 165 151 369 499 439l32 -150c-218 -33 -346 -143 -346 -267c0 -96 89 -180 266 -180c40 0 76 4 104 9z" />
    <glyph glyph-name="D" unicode="D" horiz-adv-x="830" 
d="M125 316v124c0 21 -1 238 -5 266c132 0 241 -3 331 -15c289 -38 334 -178 334 -254c0 -313 -382 -442 -666 -442c4 46 6 294 6 321zM293 580v-439c166 20 307 126 307 265c0 131 -138 175 -307 174z" />
    <glyph glyph-name="E" unicode="E" horiz-adv-x="602" 
d="M521 127l4 -137c-27 0 -364 10 -403 10c3 53 3 267 3 290v134c0 16 -2 257 -3 282c43 0 349 15 383 18l4 -129c-34 0 -199 -5 -216 -5v-182c19 0 137 5 183 9l3 -126c-24 0 -165 4 -186 4v-171c25 0 167 -2 228 3z" />
    <glyph glyph-name="F" unicode="F" horiz-adv-x="574" 
d="M295 0h-175c5 53 5 267 5 291v133c0 16 -2 257 -4 282c59 0 310 11 388 15l4 -129l-220 -5v-195c18 0 116 6 201 9l3 -125l-204 3v-89c0 -16 0 -176 2 -190z" />
    <glyph glyph-name="G" unicode="G" horiz-adv-x="739" 
d="M658 228v-73c0 -38 2 -127 2 -145c-33 -11 -127 -27 -221 -26c-265 2 -396 134 -396 295c0 118 111 350 507 445l36 -151c-173 -29 -363 -142 -363 -288c0 -85 77 -167 196 -167c28 0 55 0 73 3v115c0 29 -1 59 -2 78h169c-1 -33 -1 -56 -1 -86z" />
    <glyph glyph-name="H" unicode="H" horiz-adv-x="926" 
d="M299 0h-177c2 44 3 278 3 304v108c0 17 -3 270 -5 294h180c-2 -18 -5 -216 -5 -234v-55l336 19v57c0 17 -2 191 -4 213h179c-2 -24 -5 -300 -5 -324v-100c0 -13 2 -263 4 -282h-179c2 34 5 203 5 222v87l-336 -19v-47c0 -45 3 -220 4 -243z" />
    <glyph glyph-name="I" unicode="I" horiz-adv-x="420" 
d="M299 0h-177c2 44 3 278 3 304v108c0 17 -3 270 -4 294h178c-1 -18 -4 -176 -4 -296v-108c0 -100 3 -279 4 -302z" />
    <glyph glyph-name="J" unicode="J" horiz-adv-x="439" 
d="M94 -95l-82 132c73 36 146 95 146 269v156c0 17 -3 220 -5 244h179c-2 -18 -5 -126 -5 -246v-156c0 -218 -97 -330 -233 -399z" />
    <glyph glyph-name="K" unicode="K" horiz-adv-x="760" 
d="M298 -10h-177c1 29 4 198 4 312v106c0 87 -4 285 -4 308h177c-1 -16 -5 -211 -5 -298v-34h5c56 66 269 302 292 329l119 -112c-38 -40 -186 -178 -239 -233c34 -39 219 -224 259 -266l-129 -118c-14 18 -238 275 -302 359h-5v-33c0 -77 3 -301 5 -320z" />
    <glyph glyph-name="L" unicode="L" horiz-adv-x="564" 
d="M523 135l1 -145c-20 0 -346 10 -404 10c5 53 5 267 5 291v133c0 16 -2 263 -4 282h180c-2 -23 -6 -225 -6 -351v-224c24 0 142 0 228 4z" />
    <glyph glyph-name="M" unicode="M" horiz-adv-x="1088" 
d="M173 -29l-150 56c18 41 225 614 261 698h7c48 -84 213 -379 243 -430c38 58 206 345 245 408h7c55 -121 247 -588 281 -664l-155 -68c-31 78 -149 400 -161 426c-22 -32 -170 -274 -231 -362h-6c-70 113 -182 315 -202 356h-2c-16 -47 -121 -376 -137 -420z" />
    <glyph glyph-name="N" unicode="N" horiz-adv-x="903" 
d="M250 -7l-159 7c3 37 11 188 19 345s16 321 20 381l8 3c94 -75 482 -417 514 -448c0 41 3 391 4 430l158 -5c-4 -58 -12 -194 -19 -338c-8 -144 -14 -295 -17 -385l-8 -3c-80 57 -501 430 -514 448h-2c0 -34 -5 -402 -4 -435z" />
    <glyph glyph-name="O" unicode="O" horiz-adv-x="874" 
d="M48 329c0 195 148 393 411 393c216 0 367 -128 367 -356c0 -143 -105 -382 -416 -382c-225 1 -362 151 -362 345zM235 339c0 -141 81 -226 194 -226c94 0 208 73 209 248c1 153 -87 232 -193 232c-117 0 -210 -99 -210 -254z" />
    <glyph glyph-name="P" unicode="P" horiz-adv-x="673" 
d="M292 0h-170c1 43 3 284 3 355v110c0 23 -3 226 -3 241c130 0 237 -4 311 -20c114 -24 200 -85 200 -195c0 -133 -123 -262 -343 -301v-40c0 -20 0 -129 2 -150zM290 593v-291c86 16 170 72 170 166c0 46 -24 119 -170 125z" />
    <glyph glyph-name="Q" unicode="Q" horiz-adv-x="874" 
d="M854 32l-21 -135c-106 24 -232 54 -344 76c-40 8 -65 12 -76 12c-14 0 -153 2 -251 88c-80 69 -114 164 -114 258c0 202 157 391 414 391c215 0 364 -136 364 -344c0 -132 -70 -257 -199 -325v-6c78 -6 154 -12 227 -15zM235 339c0 -153 94 -228 195 -228
c106 0 208 86 208 256c0 152 -92 226 -190 226c-144 0 -213 -123 -213 -254z" />
    <glyph glyph-name="R" unicode="R" horiz-adv-x="742" 
d="M297 0h-173c4 24 2 341 2 362v82c0 30 -2 243 -5 262c101 0 218 -2 302 -13c144 -18 222 -74 222 -164c0 -83 -54 -147 -133 -201c28 -34 192 -217 218 -246l-141 -108c-18 28 -224 315 -253 358c47 26 130 84 130 163c0 47 -33 100 -174 101v-290c0 -38 3 -291 5 -306z
" />
    <glyph glyph-name="S" unicode="S" horiz-adv-x="539" 
d="M123 -18l-27 133c97 6 210 42 210 101c0 32 -21 49 -99 93c-72 41 -140 87 -140 167c0 110 149 222 355 248l24 -131c-99 -4 -196 -36 -196 -94c0 -34 47 -57 103 -87c61 -33 138 -72 138 -159c0 -105 -110 -232 -368 -271z" />
    <glyph glyph-name="T" unicode="T" horiz-adv-x="656" 
d="M420 0h-181c3 26 4 230 4 359v216c-75 0 -217 -5 -248 -8v139c45 -6 282 -10 293 -10h87c19 0 237 4 286 10v-139c-19 3 -204 8 -248 8v-232c0 -144 5 -323 7 -343z" />
    <glyph glyph-name="U" unicode="U" horiz-adv-x="842" 
d="M758 543v-46c0 -192 -11 -312 -87 -403c-60 -74 -148 -110 -257 -110c-70 0 -187 12 -261 123c-48 73 -65 149 -65 392v54c0 46 1 125 1 148h178c-4 -26 -6 -79 -6 -170v-68c0 -152 8 -225 46 -279c30 -44 73 -61 120 -61c54 0 95 25 122 66c36 55 37 130 37 319v37
c0 69 -4 134 -5 171h176c0 -22 1 -94 1 -173z" />
    <glyph glyph-name="V" unicode="V" horiz-adv-x="778" 
d="M7 636l161 89c19 -45 199 -424 225 -479c26 54 223 447 236 479l158 -84c-36 -54 -341 -583 -401 -679h-7c-70 107 -340 624 -372 674z" />
    <glyph glyph-name="W" unicode="W" horiz-adv-x="1065" 
d="M19 665l164 61c36 -125 137 -424 149 -464c18 30 124 204 208 345h7c77 -123 169 -264 212 -328h3c25 61 135 380 156 437l157 -66c-14 -31 -265 -601 -300 -666h-7c-49 71 -196 299 -229 352c-54 -84 -193 -312 -238 -380h-8c-37 77 -229 585 -274 709z" />
    <glyph glyph-name="X" unicode="X" horiz-adv-x="782" 
d="M154 -32l-115 118c21 22 217 239 247 274c-47 51 -195 220 -220 249l129 118c36 -47 157 -203 203 -258c30 35 180 214 216 259l121 -114c-30 -30 -215 -217 -240 -248c34 -37 221 -244 247 -274l-127 -122c-29 36 -201 250 -232 286c-18 -21 -211 -265 -229 -288z" />
    <glyph glyph-name="Y" unicode="Y" horiz-adv-x="744" 
d="M455 0h-179c1 23 5 129 5 142v57c0 130 -59 233 -129 294c-40 35 -86 62 -127 76l67 153c61 -27 129 -68 170 -110c41 -44 87 -107 110 -184h6c25 71 64 126 115 178c46 47 118 95 184 116l55 -153c-53 -13 -118 -48 -168 -97c-63 -61 -114 -156 -114 -272v-77
c0 -14 3 -103 5 -123z" />
    <glyph glyph-name="Z" unicode="Z" horiz-adv-x="710" 
d="M649 126l-4 -136c-25 0 -558 10 -605 10l-3 7c43 59 358 540 381 579c-36 0 -309 9 -338 9l4 130c53 -6 545 -23 583 -25l3 -6c-32 -48 -362 -553 -376 -575c59 0 327 3 355 7z" />
    <glyph glyph-name="bracketleft" unicode="[" horiz-adv-x="368" 
d="M360 -86l-268 8c4 133 4 267 4 400v88c0 120 0 240 -4 360l263 22l5 -94l-136 -5c-3 -58 -4 -141 -4 -223v-134c0 -118 1 -236 4 -330l131 2z" />
    <glyph glyph-name="backslash" unicode="\" horiz-adv-x="421" 
d="M459 36l-81 -56c-30 51 -119 205 -213 357c-91 148 -185 288 -206 315l85 50c29 -51 113 -183 201 -324c95 -153 191 -309 214 -342z" />
    <glyph glyph-name="bracketright" unicode="]" horiz-adv-x="368" 
d="M276 -64l-263 -22l-5 94l136 5c3 58 4 141 4 223v128c0 124 -1 242 -4 336l-131 -2l-5 94l268 -8c-4 -133 -4 -267 -4 -406v-82c0 -120 0 -240 4 -360z" />
    <glyph glyph-name="asciicircum" unicode="^" horiz-adv-x="596" 
d="M552 180h-106l-148 361h-1l-147 -361h-105l207 470h93z" />
    <glyph glyph-name="underscore" unicode="_" horiz-adv-x="500" 
d="M0 -75h500v-50h-500v50z" />
    <glyph glyph-name="quoteleft" unicode="&#x2018;" horiz-adv-x="201" 
d="M126 722l58 -209l-58 -26l-103 188z" />
    <glyph glyph-name="a" unicode="a" 
d="M144 -25l-138 73c35 60 286 492 349 583h12c98 -141 325 -508 371 -573l-140 -82c-22 38 -89 151 -94 160l-287 -12c-7 -14 -56 -113 -73 -149zM265 230l188 8c-19 37 -80 149 -95 176c-18 -33 -76 -150 -93 -184z" />
    <glyph glyph-name="b" unicode="b" horiz-adv-x="633" 
d="M108 315v94c0 25 -2 174 -4 192c102 0 172 1 235 -5c187 -18 215 -90 215 -139c0 -35 -26 -96 -124 -130v-4c71 -4 152 -49 152 -131c0 -109 -131 -197 -410 -197h-68c4 47 4 303 4 320zM262 270v-184c73 3 150 38 150 101c0 60 -63 87 -150 83zM262 516v-169
c61 0 127 36 127 100s-82 71 -127 69z" />
    <glyph glyph-name="c" unicode="c" horiz-adv-x="589" 
d="M545 122l9 -129c-26 -4 -63 -7 -110 -7c-303 0 -402 151 -402 254c0 143 139 319 452 374l29 -132c-190 -28 -300 -115 -300 -223c0 -79 71 -143 231 -143c37 0 69 3 91 6z" />
    <glyph glyph-name="d" unicode="d" horiz-adv-x="737" 
d="M109 269v105c0 18 -1 202 -4 226c123 0 213 -1 295 -10c262 -28 294 -157 294 -222c0 -274 -316 -377 -590 -372c3 39 5 250 5 273zM271 489v-369c146 13 247 102 247 223c0 116 -107 148 -247 146z" />
    <glyph glyph-name="e" unicode="e" horiz-adv-x="548" 
d="M483 113l3 -122c-34 0 -340 9 -379 9c2 45 2 227 2 247v113c0 14 -2 219 -2 240c43 0 320 12 361 15l4 -116c-36 0 -187 -5 -203 -5v-144c18 0 127 4 173 8l2 -114c-26 0 -155 3 -175 3v-136c23 0 154 -2 214 2z" />
    <glyph glyph-name="f" unicode="f" horiz-adv-x="529" 
d="M273 0h-169c5 45 5 227 5 247v113c0 14 -2 219 -3 240c57 0 285 9 367 12l4 -116l-206 -4v-156c19 0 107 4 189 8l3 -113l-192 2v-72c0 -14 0 -149 2 -161z" />
    <glyph glyph-name="g" unicode="g" horiz-adv-x="671" 
d="M603 194v-62c0 -33 2 -108 2 -123c-33 -10 -117 -23 -203 -23c-245 0 -361 114 -361 251c0 103 103 302 465 379l32 -139c-156 -24 -318 -111 -318 -235c0 -79 70 -136 173 -136c21 0 41 1 54 4v91c0 24 -2 50 -2 70h159c-1 -32 -1 -52 -1 -77z" />
    <glyph glyph-name="h" unicode="h" horiz-adv-x="824" 
d="M278 0h-169c1 37 2 236 2 258v92c0 15 -2 230 -4 250h172c-2 -15 -5 -183 -5 -198v-43l276 16v45c0 14 -2 161 -4 180h172c-1 -20 -5 -255 -5 -275v-85c0 -11 2 -224 4 -240h-171c1 29 4 172 4 188v70l-276 -16v-36c0 -38 3 -186 4 -206z" />
    <glyph glyph-name="i" unicode="i" horiz-adv-x="381" 
d="M272 349v-92c0 -85 3 -237 4 -257h-170c1 37 2 236 2 258v92c0 15 -2 230 -3 250h171c-1 -15 -4 -149 -4 -251z" />
    <glyph glyph-name="j" unicode="j" horiz-adv-x="398" 
d="M302 391v-133c0 -185 -91 -285 -217 -344l-80 120c68 31 133 78 133 226v133c0 14 -3 186 -5 207h174c-2 -16 -5 -107 -5 -209z" />
    <glyph glyph-name="k" unicode="k" horiz-adv-x="692" 
d="M274 -9h-167c1 25 4 169 4 266v90c0 74 -4 242 -4 262h167c-1 -14 -4 -178 -4 -252v-29h4c51 55 240 262 261 283l109 -113c-38 -32 -158 -138 -206 -185c31 -33 189 -179 225 -214l-119 -118c-13 16 -212 239 -270 309h-4v-28c0 -66 2 -254 4 -271z" />
    <glyph glyph-name="l" unicode="l" horiz-adv-x="516" 
d="M106 601h173c-2 -20 -6 -192 -6 -299v-183c22 0 129 0 212 4l1 -132c-28 0 -326 9 -381 9c4 45 4 227 4 247v113c0 14 -2 224 -3 241z" />
    <glyph glyph-name="m" unicode="m" horiz-adv-x="970" 
d="M161 -24l-146 49c15 35 201 519 234 592h12c44 -72 187 -315 215 -361c33 52 181 289 217 343h11c49 -103 221 -499 250 -563l-149 -60c-26 66 -125 328 -134 355c-18 -28 -148 -225 -205 -305h-11c-60 95 -156 252 -183 299h-2c-14 -40 -95 -312 -109 -349z" />
    <glyph glyph-name="n" unicode="n" horiz-adv-x="788" 
d="M682 -15l-9 -4c-78 65 -419 342 -442 363c1 -33 0 -324 1 -350l-155 6c6 62 29 514 36 617l11 3c88 -70 400 -332 437 -364h2c0 46 -2 316 -1 348l152 -4c-5 -60 -16 -271 -23 -436c-3 -73 -8 -145 -9 -179z" />
    <glyph glyph-name="o" unicode="o" horiz-adv-x="796" 
d="M375 -14h-1c-222 0 -329 145 -329 287c0 174 130 341 377 341c199 0 329 -110 329 -295c0 -131 -90 -333 -376 -333zM385 96c103 0 185 75 185 217c0 126 -68 191 -160 191c-116 0 -184 -99 -184 -218c0 -118 67 -190 159 -190z" />
    <glyph glyph-name="p" unicode="p" horiz-adv-x="625" 
d="M271 0h-165c1 37 3 241 3 302v93c0 20 -2 192 -2 205c132 0 229 -3 298 -16c104 -19 181 -73 181 -168c0 -120 -117 -229 -316 -258v-32c0 -17 0 -108 1 -126zM270 499v-239c73 10 144 53 144 139c0 41 -21 95 -144 100z" />
    <glyph glyph-name="q" unicode="q" horiz-adv-x="793" 
d="M775 33l-18 -125c-98 20 -214 45 -315 67c-37 8 -58 12 -74 12c-40 0 -147 8 -229 81c-56 50 -94 120 -94 210c0 183 145 336 374 336c202 0 331 -111 331 -288c0 -121 -70 -233 -179 -278v-5c65 -4 134 -7 204 -10zM226 285c0 -129 75 -190 159 -190
c99 0 183 68 183 223c0 137 -79 186 -156 186c-132 0 -186 -123 -186 -219z" />
    <glyph glyph-name="r" unicode="r" horiz-adv-x="669" 
d="M270 500v-240c0 -32 2 -247 4 -260h-166c3 20 2 248 2 266v111c0 26 -2 206 -4 223c94 0 202 2 284 -8c129 -15 202 -65 202 -143c0 -73 -46 -128 -121 -172c25 -30 169 -173 194 -199l-135 -102c-17 24 -199 268 -224 305c46 23 110 66 110 138c0 40 -26 80 -146 81z
" />
    <glyph glyph-name="s" unicode="s" horiz-adv-x="498" 
d="M98 -16l-23 124c95 5 202 24 202 77c0 29 -22 42 -93 75c-67 31 -134 72 -134 145c0 101 144 196 341 213l22 -123c-98 -3 -189 -19 -189 -70c0 -31 45 -45 95 -69c57 -27 134 -61 134 -140c0 -98 -112 -204 -355 -232z" />
    <glyph glyph-name="t" unicode="t" horiz-adv-x="587" 
d="M380 0h-173c3 22 4 194 4 303v178c-63 0 -193 -4 -215 -6v125c35 -5 251 -8 261 -8h79c17 0 216 3 253 8v-125c-11 2 -179 6 -215 6v-191c0 -122 4 -273 6 -290z" />
    <glyph glyph-name="u" unicode="u" horiz-adv-x="751" 
d="M243 451v-57c0 -137 5 -197 39 -242c26 -35 55 -50 98 -50c51 0 81 24 103 55c32 45 33 105 33 275v31c0 59 -4 114 -5 145h168c0 -19 1 -79 1 -146v-40c0 -163 -11 -264 -79 -342c-55 -63 -133 -94 -233 -94c-64 0 -166 10 -233 105c-44 62 -61 127 -61 333v46
c0 39 1 106 1 125h173c-3 -22 -5 -66 -5 -144z" />
    <glyph glyph-name="v" unicode="v" horiz-adv-x="702" 
d="M560 618l151 -73c-31 -46 -307 -495 -361 -579h-12c-64 94 -310 532 -336 574l158 80c18 -39 171 -363 195 -410c22 44 193 380 205 408z" />
    <glyph glyph-name="w" unicode="w" horiz-adv-x="959" 
d="M816 605l151 -58c-13 -27 -236 -506 -268 -561h-11c-47 60 -174 247 -204 291c-49 -71 -168 -257 -212 -315h-11c-34 65 -207 497 -245 594l156 57c32 -98 113 -352 126 -389h2c21 32 111 177 184 295h9c71 -107 152 -225 189 -280h2c17 41 113 318 132 366z" />
    <glyph glyph-name="x" unicode="x" horiz-adv-x="700" 
d="M140 -30l-113 106c20 19 194 200 221 230c-42 44 -173 182 -196 207l123 109c34 -41 138 -171 180 -218c27 30 157 178 191 217l115 -105c-25 -25 -190 -179 -213 -204c31 -32 197 -204 222 -230l-124 -111c-28 32 -177 209 -205 241c-16 -19 -182 -222 -201 -242z" />
    <glyph glyph-name="y" unicode="y" horiz-adv-x="629" 
d="M397 0h-172c1 20 5 110 5 121v45c0 110 -51 194 -115 246c-36 29 -78 47 -110 58l56 144c56 -20 120 -55 156 -91c37 -38 78 -93 100 -161h4c23 63 56 113 103 156c43 40 108 80 170 98l44 -145c-43 -10 -101 -35 -147 -76c-57 -51 -98 -133 -98 -228v-62
c0 -12 2 -88 4 -105z" />
    <glyph glyph-name="z" unicode="z" horiz-adv-x="636" 
d="M70 490l4 126c20 -2 122 -7 230 -12s223 -9 268 -9h26l4 -8c-27 -41 -317 -464 -327 -476c51 0 285 4 309 7l-4 -128c-21 0 -507 10 -548 10l-4 10c41 52 313 452 333 477c-32 0 -268 3 -291 3z" />
    <glyph glyph-name="braceleft" unicode="{" horiz-adv-x="368" 
d="M297 787l41 -93c-62 -19 -83 -73 -85 -188c0 -58 -34 -121 -87 -145c57 -27 87 -77 87 -165c0 -118 26 -173 85 -189l-41 -93c-122 23 -168 101 -174 282c-4 104 -39 115 -102 115v89c63 0 100 11 103 109c5 175 53 246 173 278z" />
    <glyph glyph-name="bar" unicode="|" horiz-adv-x="326" 
d="M215 -250h-104v1000h104v-1000z" />
    <glyph glyph-name="braceright" unicode="}" horiz-adv-x="368" 
d="M30 694l41 93c122 -22 168 -101 174 -277c4 -104 39 -115 102 -115v-88c-63 0 -100 -11 -103 -109c-5 -180 -52 -252 -173 -284l-41 94c63 18 82 72 84 188c1 63 35 124 90 151c-58 28 -89 77 -89 158c0 118 -26 174 -85 189z" />
    <glyph glyph-name="asciitilde" unicode="~" horiz-adv-x="596" 
d="M124 187h-96c-2 135 49 196 140 196c50 0 80 -13 147 -46c43 -21 80 -41 113 -41c22 0 39 20 43 84h96c6 -165 -71 -197 -139 -197c-49 0 -94 22 -150 49c-39 19 -71 40 -101 40c-27 0 -47 -19 -53 -85z" />
    <glyph glyph-name="exclamdown" unicode="&#xa1;" horiz-adv-x="318" 
d="M102 706h140v-129h-140v129zM248 -7l-187 8c10 89 47 345 59 469l102 8c6 -129 20 -368 26 -485z" />
    <glyph glyph-name="cent" unicode="&#xa2;" horiz-adv-x="773" 
d="M344 -16l2 152c-142 40 -182 138 -182 200c0 105 69 193 182 252l-2 171h105l-3 -135c23 9 81 22 129 29l11 -132c-173 -14 -251 -89 -251 -171c0 -76 87 -108 172 -108c47 0 72 5 95 8l7 -122c-27 -5 -58 -7 -84 -7c-24 0 -61 0 -79 1l3 -138h-105z" />
    <glyph glyph-name="sterling" unicode="&#xa3;" horiz-adv-x="773" 
d="M634 116v-121c-35 0 -361 5 -460 5c32 103 46 195 59 276c-37 -3 -66 -5 -93 -7l-1 85c30 0 64 2 104 5c3 21 6 44 10 63c38 184 173 278 359 300l14 -129c-87 -7 -173 -15 -212 -187c-3 -13 -5 -29 -8 -42c62 4 142 12 169 14l-4 -90c-36 -1 -96 -3 -178 -7
c-12 -59 -26 -118 -51 -173c74 0 196 4 292 8z" />
    <glyph glyph-name="fraction" unicode="&#x2044;" horiz-adv-x="150" 
d="M329 677c-33 -47 -118 -175 -210 -328c-95 -158 -185 -317 -215 -370l-83 54c36 56 123 200 219 358c89 146 175 283 204 336z" />
    <glyph glyph-name="yen" unicode="&#xa5;" horiz-adv-x="773" 
d="M463 0h-159c1 25 5 138 5 152v59c-87 1 -137 0 -161 -1l-2 84c23 -1 73 -2 155 -1c-72 102 -185 271 -227 330l133 88c50 -88 126 -221 182 -313h2c58 92 144 234 188 313l130 -81c-34 -46 -165 -235 -244 -338c78 0 128 1 154 2l2 -84c-24 1 -76 2 -164 2v-80
c0 -15 4 -111 6 -132z" />
    <glyph glyph-name="florin" unicode="&#x192;" horiz-adv-x="773" 
d="M219 0v47c0 28 -1 230 15 338c29 202 153 311 351 337l19 -137c-96 -4 -194 -27 -216 -210c-1 -9 -2 -21 -3 -36c48 1 131 8 172 12l-4 -98c-41 -1 -131 -5 -172 -7c-2 -48 -3 -103 -3 -163v-83h-159z" />
    <glyph glyph-name="section" unicode="&#xa7;" horiz-adv-x="537" 
d="M492 298c0 -33 -12 -74 -83 -111c12 -11 29 -30 29 -63c0 -92 -114 -172 -331 -189l-20 104c152 0 212 34 212 68c0 32 -47 46 -124 78c-67 28 -130 62 -130 126c0 39 22 78 89 111c-19 15 -38 37 -38 71c0 108 139 175 301 193l20 -102c-129 -10 -181 -44 -181 -79
c0 -28 30 -42 95 -66c89 -33 161 -64 161 -141zM375 271c0 44 -47 55 -92 75c-19 8 -58 25 -81 37c-20 -9 -37 -25 -37 -48c0 -36 53 -52 85 -66c25 -11 69 -29 91 -41c17 6 34 24 34 43z" />
    <glyph glyph-name="currency" unicode="&#xa4;" horiz-adv-x="667" 
d="M623 536l-92 -76c17 -19 42 -54 42 -118c0 -67 -25 -106 -46 -126l87 -79l-69 -69l-78 92c-34 -27 -88 -41 -135 -41c-45 0 -102 14 -132 40l-79 -91l-69 69l87 79c-21 20 -47 60 -47 124c0 65 26 100 44 120l-90 76l70 72l85 -88c32 23 76 37 131 37h1
c55 0 99 -13 134 -36l85 88zM468 343c0 68 -62 114 -136 114h-1c-70 0 -134 -47 -134 -117c0 -97 85 -121 135 -121c51 0 136 23 136 124z" />
    <glyph glyph-name="quotesingle" unicode="'" horiz-adv-x="201" 
d="M44 722h113l-25 -215h-63z" />
    <glyph glyph-name="quotedblleft" unicode="&#x201c;" horiz-adv-x="355" 
d="M281 722l56 -210l-59 -25l-99 192zM110 722l91 -185l-51 -34l-127 161z" />
    <glyph glyph-name="guillemotleft" unicode="&#xab;" horiz-adv-x="528" 
d="M195 513l67 -57c-20 -20 -79 -82 -104 -114c28 -31 78 -85 111 -115l-63 -64c-22 28 -124 142 -153 175c34 43 115 142 142 175zM406 543l67 -67c-30 -30 -102 -99 -123 -130c27 -30 89 -95 122 -127l-66 -70c-25 31 -141 159 -170 192c34 43 137 158 170 202z" />
    <glyph glyph-name="guilsinglleft" unicode="&#x2039;" horiz-adv-x="343" 
d="M218 543l68 -67c-29 -30 -102 -102 -123 -133c27 -30 89 -92 122 -124l-67 -70c-25 31 -141 156 -170 189c34 43 137 161 170 205z" />
    <glyph glyph-name="guilsinglright" unicode="&#x203a;" horiz-adv-x="343" 
d="M58 473l67 70c25 -31 141 -156 170 -189c-34 -43 -137 -161 -170 -205l-68 67c29 30 102 102 123 133c-27 30 -89 92 -122 124z" />
    <glyph glyph-name="fi" unicode="&#xfb01;" horiz-adv-x="911" 
d="M273 0h-169c5 45 5 227 5 247v113c0 14 -2 219 -3 240c57 0 285 9 367 12l4 -116l-206 -4v-156c19 0 107 4 189 8l3 -113l-192 2v-72c0 -14 0 -149 2 -161zM801 349v-92c0 -85 3 -237 4 -257h-170c1 37 2 236 2 258v92c0 15 -2 229 -3 250h171c-1 -16 -4 -149 -4 -251z
" />
    <glyph glyph-name="fl" unicode="&#xfb02;" horiz-adv-x="1044" 
d="M273 0h-169c5 45 5 227 5 247v113c0 14 -2 219 -3 240c57 0 286 9 368 12l4 -116l-207 -4v-156c19 0 107 4 190 8l2 -113l-192 2v-72c0 -14 0 -149 2 -161zM635 600h173c-2 -20 -6 -191 -6 -298v-183c22 0 129 0 212 4l1 -132c-28 0 -326 9 -381 9c4 45 4 227 4 247v113
c0 14 -2 223 -3 240z" />
    <glyph glyph-name="endash" unicode="&#x2013;" horiz-adv-x="500" 
d="M0 290v113c55 -1 163 -2 191 -2h120c22 0 171 2 189 2v-113c-16 2 -157 2 -189 2h-120c-16 0 -144 1 -191 -2z" />
    <glyph glyph-name="dagger" unicode="&#x2020;" horiz-adv-x="617" 
d="M575 359l-211 16l18 -425h-147l18 425l-211 -16v114l211 -14l-18 215h147l-18 -215l211 14v-114z" />
    <glyph glyph-name="daggerdbl" unicode="&#x2021;" horiz-adv-x="617" 
d="M576 140l-209 14l12 -203h-141l12 203l-208 -14v114l209 -16v159l-209 -16v114l209 -14l-13 193h142l-13 -193l209 14v-114l-209 16v-159l209 16v-114z" />
    <glyph glyph-name="periodcentered" unicode="&#xb7;" horiz-adv-x="293" 
d="M75 271v137h144v-137h-144z" />
    <glyph glyph-name="paragraph" unicode="&#xb6;" horiz-adv-x="635" 
d="M546 680c-2 -18 -4 -296 -4 -314v-110c0 -45 1 -279 2 -302h-112c1 23 2 258 2 303v110c0 8 -2 217 -2 217l-78 -5s-3 -204 -3 -212v-110c0 -45 1 -280 2 -303h-112c1 23 2 223 2 268v32c-106 18 -211 83 -211 193c0 175 262 245 514 233z" />
    <glyph glyph-name="bullet" unicode="&#x2022;" horiz-adv-x="318" 
d="M178 472c35 -54 61 -100 95 -138c-65 -40 -108 -71 -156 -105c-26 61 -46 113 -72 162c53 27 101 58 133 81z" />
    <glyph glyph-name="quotesinglbase" unicode="&#x201a;" horiz-adv-x="201" 
d="M75 128l103 -47l-103 -188l-58 26z" />
    <glyph glyph-name="quotedblbase" unicode="&#x201e;" horiz-adv-x="355" 
d="M74 128l102 -43l-99 -192l-59 25zM245 128l87 -58l-127 -161l-51 34z" />
    <glyph glyph-name="quotedblright" unicode="&#x201d;" horiz-adv-x="355" 
d="M74 722l102 -43l-99 -192l-59 25zM245 722l87 -58l-127 -161l-51 34z" />
    <glyph glyph-name="guillemotright" unicode="&#xbb;" horiz-adv-x="528" 
d="M56 472l66 71c25 -31 141 -158 170 -192c-34 -43 -137 -158 -170 -202l-67 66c28 30 102 101 123 131c-27 31 -89 96 -122 126zM260 465l62 64c22 -28 124 -142 153 -175c-34 -43 -115 -142 -142 -175l-64 61c18 17 77 79 100 109c-26 32 -76 85 -109 116z" />
    <glyph glyph-name="ellipsis" unicode="&#x2026;" horiz-adv-x="1000" 
d="M232 130v-130h-131v130h131zM565 130v-130h-131v130h131zM898 130v-130h-131v130h131z" />
    <glyph glyph-name="perthousand" unicode="&#x2030;" horiz-adv-x="1470" 
d="M262 706c124 0 199 -63 199 -191c0 -68 -50 -194 -216 -194c-143 0 -205 86 -205 182c0 93 72 203 222 203zM254 623c-67 0 -98 -59 -98 -114c0 -62 40 -105 91 -105c54 0 97 37 97 108c0 79 -42 111 -90 111zM743 0c-142 0 -205 86 -205 182c0 93 73 203 222 203
c125 0 200 -64 200 -192c0 -68 -51 -193 -217 -193zM745 79c49 0 97 36 97 108c0 77 -43 111 -89 111c-66 0 -99 -58 -99 -114c0 -62 38 -105 91 -105zM1213 0c-142 0 -205 86 -205 182c0 93 73 203 222 203c125 0 200 -64 200 -192c0 -68 -51 -193 -217 -193zM1215 79
c49 0 97 36 97 108c0 77 -43 111 -89 111c-66 0 -99 -58 -99 -114c0 -62 38 -105 91 -105zM675 727l85 -50c-33 -47 -118 -175 -210 -328c-95 -158 -185 -317 -215 -370l-83 54c36 56 123 200 219 358c89 146 175 283 204 336z" />
    <glyph glyph-name="questiondown" unicode="&#xbf;" horiz-adv-x="489" 
d="M453 99l-23 -121c-218 29 -377 109 -377 230c0 151 169 244 292 278l34 -97c-52 -15 -149 -63 -149 -153c0 -93 128 -130 223 -137zM235 706h140v-129h-140v129z" />
    <glyph glyph-name="grave" unicode="`" horiz-adv-x="881" 
d="M354 933l153 -118l-35 -55l-173 84z" />
    <glyph glyph-name="acute" unicode="&#xb4;" horiz-adv-x="881" 
d="M532 933l53 -89l-176 -85l-34 56z" />
    <glyph glyph-name="circumflex" unicode="&#x2c6;" horiz-adv-x="881" 
d="M445 927l147 -100l-48 -66l-103 80l-109 -80l-43 66z" />
    <glyph glyph-name="tilde" unicode="&#x2dc;" horiz-adv-x="881" 
d="M325 767l-57 28c21 54 60 96 100 96c34 0 59 -13 82 -23c17 -7 32 -14 53 -14c23 1 41 21 54 44l57 -31c-25 -61 -62 -93 -97 -93c-33 -1 -56 12 -79 21c-21 9 -39 16 -60 16c-24 0 -41 -21 -53 -44z" />
    <glyph glyph-name="macron" unicode="&#xaf;" horiz-adv-x="881" 
d="M581 853l-4 -82l-278 5l8 74z" />
    <glyph glyph-name="breve" unicode="&#x2d8;" horiz-adv-x="881" 
d="M280 839l48 63c25 -27 64 -55 119 -55c47 0 82 25 108 55l45 -61c-34 -38 -97 -75 -161 -75c-58 0 -131 39 -159 73z" />
    <glyph glyph-name="dotaccent" unicode="&#x2d9;" horiz-adv-x="881" 
d="M440 937l84 -83l-84 -83l-83 83z" />
    <glyph glyph-name="dieresis" unicode="&#xa8;" horiz-adv-x="881" 
d="M327 923l77 -76l-77 -76l-76 76zM553 923l77 -76l-77 -76l-76 76z" />
    <glyph glyph-name="ring" unicode="&#x2da;" horiz-adv-x="881" 
d="M442 945c83 0 118 -37 118 -84c0 -63 -53 -99 -126 -99c-67 0 -114 32 -114 86c2 60 52 97 122 97zM441 899c-22 0 -48 -15 -48 -47c0 -28 21 -45 46 -45s49 15 49 49c0 25 -19 43 -47 43z" />
    <glyph glyph-name="cedilla" unicode="&#xb8;" horiz-adv-x="773" 
d="M359 6h83l-38 -65c37 -10 74 -40 74 -81c0 -59 -78 -102 -185 -111l-10 58c50 2 98 20 100 56c0 27 -33 48 -70 59z" />
    <glyph glyph-name="hungarumlaut" unicode="&#x2dd;" horiz-adv-x="881" 
d="M533 947l69 -66l-142 -121l-45 37zM366 941l72 -59l-118 -122l-47 36z" />
    <glyph glyph-name="ogonek" unicode="&#x2db;" horiz-adv-x="881" 
d="M444 0l74 -1c-58 -35 -92 -83 -92 -109c0 -28 27 -59 90 -67l-17 -62c-92 16 -169 58 -169 117c0 45 55 93 114 122z" />
    <glyph glyph-name="caron" unicode="&#x2c7;" horiz-adv-x="881" 
d="M448 846l98 79l46 -66l-147 -98l-156 98l47 66z" />
    <glyph glyph-name="emdash" unicode="&#x2014;" horiz-adv-x="1000" 
d="M0 290v113c55 -1 163 -2 291 -2h420c122 0 271 2 289 2v-113c-16 2 -157 2 -289 2h-420c-116 0 -244 1 -291 -2z" />
    <glyph glyph-name="AE" unicode="&#xc6;" horiz-adv-x="960" 
d="M879 125l4 -135c-35 0 -372 10 -390 10c1 23 3 128 3 176v75l-214 -7c-18 -29 -133 -220 -158 -260l-128 94c36 49 347 505 436 628c53 0 400 14 431 18l4 -128c-31 0 -197 -5 -216 -5v-223c21 0 135 6 184 9l2 -122c-27 0 -163 1 -186 1v-133c27 0 167 -3 228 2z
M496 356v227h-6c-62 -93 -119 -189 -149 -235z" />
    <glyph glyph-name="ordfeminine" unicode="&#xaa;" horiz-adv-x="506" 
d="M128 340l-102 55c27 41 188 304 207 329l30 5c52 -82 184 -285 215 -328l-107 -61c-8 19 -40 75 -44 83l-162 -8c-6 -11 -29 -59 -37 -75zM194 488l105 6c-13 23 -46 79 -55 92c-10 -17 -40 -77 -50 -98z" />
    <glyph glyph-name="Lslash" unicode="&#x141;" horiz-adv-x="564" 
d="M523 135l1 -145c-20 0 -346 10 -404 10c5 49 5 236 5 274v8c-17 -6 -72 -27 -83 -32l-28 93c11 4 88 32 111 41v40c0 16 -2 263 -4 282h177c-2 -17 -5 -139 -5 -262c25 9 115 43 127 48l30 -92c-15 -5 -131 -47 -158 -57v-212c27 0 145 0 231 4z" />
    <glyph glyph-name="Oslash" unicode="&#xd8;" horiz-adv-x="874" 
d="M761 744l70 -69c-12 -12 -65 -62 -82 -76c52 -60 77 -144 77 -227c0 -147 -102 -388 -418 -388c-85 0 -156 23 -215 64c-12 -14 -72 -72 -83 -85l-67 69c8 8 67 67 83 77c-53 63 -78 144 -78 219c0 197 150 394 406 394c94 0 170 -22 221 -63c18 18 75 74 86 85zM639 365
c0 43 -3 76 -17 115c-51 -61 -265 -272 -322 -321c41 -35 84 -46 132 -46c93 0 206 73 207 252zM235 338c0 -40 2 -78 15 -111c57 65 271 275 323 320c-28 31 -77 46 -127 46c-131 0 -211 -120 -211 -255z" />
    <glyph glyph-name="OE" unicode="&#x152;" horiz-adv-x="1103" 
d="M629 0l-2 63h-4c-61 -57 -144 -79 -227 -79c-199 0 -348 139 -348 346c0 205 159 392 390 392c76 0 143 -18 187 -53h2v37c38 0 349 14 379 18l4 -128l-215 -5v-184c33 0 160 6 182 10l3 -126l-185 4v-172c39 0 172 -3 227 3l4 -136c-17 0 -108 3 -199 5
c-91 3 -182 5 -198 5zM643 354v25c0 124 -78 214 -191 214c-151 0 -221 -130 -221 -250c0 -140 79 -230 193 -230c121 0 219 95 219 241z" />
    <glyph glyph-name="ordmasculine" unicode="&#xba;" horiz-adv-x="493" 
d="M233 350c-132 0 -201 80 -201 172c0 97 79 200 224 200c129 0 205 -67 205 -173c0 -90 -69 -201 -228 -199zM241 430c58 0 97 41 97 112c0 69 -41 100 -90 100c-53 0 -93 -47 -93 -110c0 -61 36 -102 86 -102z" />
    <glyph glyph-name="ae" unicode="&#xe6;" horiz-adv-x="869" 
d="M804 111l4 -120c-33 0 -359 9 -375 9c1 20 3 109 3 150v32l-199 -4c-15 -22 -105 -159 -126 -193l-125 82c33 43 313 428 395 533c42 0 380 12 409 15l3 -114c-24 0 -193 -4 -209 -4v-160c17 0 140 5 180 9l2 -111c-21 0 -163 3 -182 3v-130c23 0 151 -1 220 3zM291 274
l145 6v208h-5c-46 -69 -112 -169 -140 -214z" />
    <glyph glyph-name="dotlessi" unicode="&#x131;" horiz-adv-x="381" 
d="M272 349v-92c0 -85 3 -237 4 -257h-170c1 37 2 236 2 258v92c0 15 -2 230 -3 250h171c-1 -15 -4 -149 -4 -251z" />
    <glyph glyph-name="lslash" unicode="&#x142;" horiz-adv-x="518" 
d="M488 123l1 -132c-31 0 -328 9 -381 9c4 38 4 174 4 216v27c-27 -10 -51 -19 -73 -29l-27 84c29 9 62 20 100 35v27c0 14 -2 224 -3 241h172c-2 -14 -4 -105 -5 -175v-38c40 16 78 32 105 43l29 -85c-37 -13 -85 -30 -135 -48v-179c17 0 124 0 213 4z" />
    <glyph glyph-name="oslash" unicode="&#xf8;" horiz-adv-x="793" 
d="M100 -33l-62 68c24 19 49 39 72 60c-44 49 -66 113 -66 177c0 174 128 342 380 342c76 0 142 -17 191 -51c25 24 51 51 74 74l66 -64c-24 -21 -48 -42 -72 -65c43 -48 66 -112 66 -187c0 -130 -85 -335 -377 -335c-83 0 -144 19 -195 52c-26 -23 -51 -46 -77 -71z
M579 317v1c0 31 -2 57 -13 89c-92 -93 -190 -181 -290 -277c29 -26 68 -37 109 -37c86 0 194 58 194 224zM214 283v-1c0 -28 3 -57 15 -83c102 96 195 184 288 275c-30 27 -66 33 -108 33c-122 0 -195 -103 -195 -224z" />
    <glyph glyph-name="oe" unicode="&#x153;" horiz-adv-x="995" 
d="M570 0v60h-4c-55 -55 -130 -74 -206 -74c-181 0 -316 119 -316 295c0 174 144 333 355 333c69 0 130 -16 168 -51h2v37c36 0 319 12 346 15l4 -113l-196 -5v-149c30 0 146 5 166 8l3 -111l-169 4v-139c36 0 157 -3 207 2l4 -121c-15 0 -98 2 -182 5c-83 2 -166 4 -182 4z
M581 301v21c0 106 -69 180 -170 180c-129 0 -191 -108 -191 -210c0 -119 70 -194 167 -194c108 0 194 79 194 203z" />
    <glyph glyph-name="germandbls" unicode="&#xdf;" horiz-adv-x="998" 
d="M98 -16l-23 119c95 5 204 29 204 82c0 29 -23 44 -95 76c-66 31 -134 71 -134 144c0 101 144 196 341 213l22 -121c-98 -3 -191 -21 -191 -72c0 -31 46 -48 97 -70c57 -27 134 -60 134 -139c0 -98 -112 -204 -355 -232zM597 -16l-23 119c95 5 203 29 203 82
c0 29 -22 44 -94 76c-66 31 -134 71 -134 144c0 101 144 196 340 213l22 -121c-98 -3 -190 -21 -190 -72c0 -31 45 -48 96 -70c57 -27 134 -60 134 -139c0 -98 -112 -204 -354 -232z" />
    <glyph glyph-name="onesuperior" unicode="&#xb9;" horiz-adv-x="368" 
d="M269 274h-125c0 16 3 93 3 178v125c-25 -16 -57 -40 -73 -51l-42 59c12 8 169 118 200 141l41 -14c-1 -20 -6 -98 -6 -184v-93c0 -87 0 -142 2 -161z" />
    <glyph glyph-name="logicalnot" unicode="&#xac;" horiz-adv-x="596" 
d="M40 418h516v-307h-101v213h-415v94z" />
    <glyph glyph-name="mu" unicode="&#xb5;" horiz-adv-x="596" 
d="M413 0v72h-2c-27 -49 -72 -84 -126 -84c-42 0 -71 14 -95 48l-2 -2c2 -30 5 -56 5 -82v-144h-130v694h130v-305c0 -67 35 -113 102 -113c73 0 118 64 118 129v289h120v-502h-120z" />
    <glyph glyph-name="trademark" unicode="&#x2122;" horiz-adv-x="730" 
d="M210 366h-100c1 13 2 160 2 224v38c-41 0 -84 -2 -103 -3v85c13 -1 45 -2 74 -3s56 -1 58 -1h38c9 0 102 1 130 4v-85c-14 1 -78 3 -104 3v-39c0 -93 5 -214 5 -223zM346 353l-84 23c9 22 101 316 111 346l35 -2c12 -24 56 -145 75 -188c17 47 64 151 78 182l35 -3
c12 -30 91 -285 110 -328l-85 -30c-11 37 -43 163 -52 190h-4c-15 -35 -52 -111 -75 -161l-31 3c-32 70 -48 116 -66 158h-2c-13 -44 -41 -171 -45 -190z" />
    <glyph glyph-name="Eth" unicode="&#xd0;" horiz-adv-x="830" 
d="M125 404v36c0 21 -1 238 -5 266c132 0 241 -3 331 -15c289 -38 334 -178 334 -254c0 -313 -382 -442 -666 -442c4 45 6 286 6 316c-20 -1 -86 -4 -94 -5l-4 95c8 0 77 2 98 3zM292 319v-178c167 18 308 129 308 265c0 129 -137 175 -308 174v-169c22 1 120 6 136 7
l-1 -94c-18 0 -114 -4 -135 -5z" />
    <glyph glyph-name="onehalf" unicode="&#xbd;" horiz-adv-x="966" 
d="M897 -5c-17 2 -169 5 -266 5h-69l-10 20c91 60 195 148 195 235c0 68 -74 99 -151 99l12 90c188 -15 272 -88 272 -171c0 -95 -101 -164 -141 -192v-3l158 12v-95zM707 677c-33 -47 -118 -175 -210 -328c-95 -158 -185 -317 -215 -370l-83 54c36 56 123 200 219 358
c89 146 175 283 204 336zM268 712c-1 -20 -6 -98 -6 -184v-93c0 -87 0 -142 2 -161h-125c0 16 3 93 3 178v125c-25 -16 -57 -40 -73 -51l-42 59c12 8 169 118 200 141z" />
    <glyph glyph-name="plusminus" unicode="&#xb1;" horiz-adv-x="596" 
d="M248 586h101v-178h208v-94h-208v-182h-101v182h-208v94h208v178zM40 94h517v-94h-517v94z" />
    <glyph glyph-name="Thorn" unicode="&#xde;" horiz-adv-x="682" 
d="M292 0h-172c2 43 5 284 5 355v110c0 23 -3 226 -3 241h171c-2 -29 -3 -62 -3 -91v-23c35 0 100 -4 148 -14c111 -22 195 -77 195 -188c3 -123 -123 -239 -343 -267v-23c0 -20 0 -79 2 -100zM290 484v-251c80 10 170 52 170 143c0 36 -21 106 -170 108z" />
    <glyph glyph-name="onequarter" unicode="&#xbc;" horiz-adv-x="879" 
d="M829 163l-6 -88l-64 2v-11c0 -15 1 -39 2 -66h-118c1 26 3 47 3 72v5h-194l-19 43l266 333l61 -16v-277zM650 160v115c-28 -39 -60 -89 -80 -115h80zM683 677c-33 -47 -118 -175 -210 -328c-95 -158 -185 -317 -215 -370l-83 54c36 56 123 200 219 358
c89 146 175 283 204 336zM273 712c-1 -20 -6 -98 -6 -184v-93c0 -87 0 -142 2 -161h-125c0 16 3 93 3 178v125c-25 -16 -57 -40 -73 -51l-42 59c12 8 169 118 200 141z" />
    <glyph glyph-name="divide" unicode="&#xf7;" horiz-adv-x="596" 
d="M298 364h-1c-46 0 -79 32 -79 81c0 50 32 81 80 81c47 0 79 -31 80 -81c0 -49 -34 -81 -80 -81zM556 220h-516v94h516v-94zM298 8h-1c-46 0 -79 32 -79 81c0 50 32 81 80 81c47 0 79 -31 80 -81c0 -49 -34 -81 -80 -81z" />
    <glyph glyph-name="brokenbar" unicode="&#xa6;" horiz-adv-x="326" 
d="M215 324h-104v350h104v-350zM215 -176h-104v350h104v-350z" />
    <glyph glyph-name="degree" unicode="&#xb0;" horiz-adv-x="404" 
d="M372 526c0 -89 -74 -162 -172 -162c-102 0 -172 75 -172 161c-1 89 71 162 172 162h1c101 0 171 -75 171 -161zM281 527c0 38 -26 82 -81 82h-1c-54 0 -80 -43 -80 -84c0 -47 32 -83 80 -83c49 0 82 37 82 85z" />
    <glyph glyph-name="thorn" unicode="&#xfe;" horiz-adv-x="624" 
d="M269 423v-230c75 6 145 51 145 130c0 38 -19 98 -145 100zM270 -28h-165c2 63 4 269 4 330v96c0 20 -2 192 -2 230h165c-2 -44 -3 -66 -3 -92v-15c27 0 82 -4 124 -11c99 -15 190 -78 190 -175c0 -112 -113 -224 -314 -241v-14c0 -17 0 -64 1 -108z" />
    <glyph glyph-name="threequarters" unicode="&#xbe;" horiz-adv-x="903" 
d="M853 163l-6 -88l-64 2v-11c0 -15 1 -39 2 -66h-118c1 26 3 47 3 72v5h-194l-19 43l266 333l61 -16v-277zM684 160v115c-28 -39 -60 -89 -80 -115h80zM712 677c-33 -47 -118 -175 -210 -328c-95 -158 -185 -317 -215 -370l-83 54c36 56 123 200 219 358
c89 146 175 283 204 336zM356 411c0 -96 -172 -151 -297 -149l-2 84c71 -4 161 11 161 64c0 43 -59 61 -119 67l-1 35c47 1 110 32 110 73c0 46 -78 58 -130 55l8 80c125 -2 253 -38 253 -114c0 -45 -52 -86 -89 -101v-4c57 -11 106 -37 106 -90z" />
    <glyph glyph-name="twosuperior" unicode="&#xb2;" horiz-adv-x="402" 
d="M67 628l12 90c188 -15 272 -88 272 -171c0 -95 -101 -164 -141 -192v-3l158 12v-95c-17 2 -169 4 -266 5h-69l-10 20c91 60 195 148 195 235c0 68 -74 99 -151 99z" />
    <glyph glyph-name="registered" unicode="&#xae;" horiz-adv-x="852" 
d="M431 722c222 0 373 -151 373 -364s-161 -374 -383 -374c-217 0 -373 156 -373 364c0 213 161 374 383 374zM432 657c-175 0 -299 -125 -299 -303c0 -173 129 -305 289 -305c175 0 297 127 297 305c0 173 -127 303 -287 303zM286 371v41c0 15 -1 118 -2 128
c70 0 137 1 190 -9c56 -9 96 -38 96 -81s-28 -75 -66 -101c14 -17 86 -98 104 -114l-74 -55c-5 7 -112 149 -127 170c28 14 66 44 66 75c0 22 -16 52 -99 50v-133c0 -19 2 -145 3 -153l-92 1c2 12 1 170 1 181z" />
    <glyph glyph-name="minus" unicode="&#x2212;" horiz-adv-x="596" 
d="M40 314h516v-94h-516v94z" />
    <glyph glyph-name="eth" unicode="&#xf0;" horiz-adv-x="739" 
d="M28 259l-3 84c23 1 51 2 86 3v28c0 18 -1 202 -4 226c123 0 215 -1 297 -10c264 -28 292 -156 292 -223c0 -270 -307 -375 -590 -371c3 35 4 203 5 246v21c-33 -1 -60 -3 -83 -4zM394 358l-1 -83c-38 -1 -81 -3 -122 -5v-150c151 14 251 100 251 223
c0 115 -105 148 -251 147v-138c42 2 86 4 123 6z" />
    <glyph glyph-name="multiply" unicode="&#xd7;" horiz-adv-x="596" 
d="M40 459l68 67l190 -195l190 195l68 -67l-192 -196l192 -197l-67 -66l-191 196l-191 -196l-67 66l192 197z" />
    <glyph glyph-name="threesuperior" unicode="&#xb3;" horiz-adv-x="387" 
d="M59 262l-2 84c71 -4 161 11 161 64c0 43 -59 61 -119 67l-1 35c47 1 110 32 110 73c0 46 -78 58 -130 55l8 80c125 -2 253 -38 253 -114c0 -45 -52 -86 -89 -101v-4c57 -11 106 -37 106 -90c0 -96 -172 -151 -297 -149z" />
    <glyph glyph-name="copyright" unicode="&#xa9;" horiz-adv-x="852" 
d="M431 722c222 0 373 -151 373 -364s-161 -374 -383 -374c-217 0 -373 156 -373 364c0 213 161 374 383 374zM432 657c-175 0 -299 -125 -299 -303c0 -173 129 -305 289 -305c175 0 297 127 297 305c0 173 -127 303 -287 303zM506 552l15 -86c-75 -10 -154 -61 -154 -121
c0 -41 36 -84 117 -84c21 0 36 1 53 4l5 -81c-15 -3 -34 -4 -56 -4c-211 0 -225 132 -225 151c0 83 75 186 245 221z" />
    <glyph glyph-name="Aacute" unicode="&#xc1;" horiz-adv-x="827" 
d="M154 -27l-146 84c40 70 322 579 389 685h7c107 -165 363 -599 415 -676l-152 -92c-25 45 -98 181 -109 196l-320 -15c-9 -20 -62 -140 -84 -182zM290 271l216 10c-21 42 -94 178 -109 209c-20 -39 -88 -180 -107 -219zM465 945l53 -89l-176 -85l-34 56z" />
    <glyph glyph-name="Acircumflex" unicode="&#xc2;" horiz-adv-x="827" 
d="M154 -27l-146 84c40 70 322 579 389 685h7c107 -165 363 -599 415 -676l-152 -92c-25 45 -98 181 -109 196l-320 -15c-9 -20 -62 -140 -84 -182zM290 271l216 10c-21 42 -94 178 -109 209c-20 -39 -88 -180 -107 -219zM398 927l147 -100l-48 -66l-103 80l-109 -80l-43 66
z" />
    <glyph glyph-name="Adieresis" unicode="&#xc4;" horiz-adv-x="827" 
d="M154 -27l-146 84c40 70 322 579 389 685h7c107 -165 363 -599 415 -676l-152 -92c-25 45 -98 181 -109 196l-320 -15c-9 -20 -62 -140 -84 -182zM290 271l216 10c-21 42 -94 178 -109 209c-20 -39 -88 -180 -107 -219zM290 923l77 -76l-77 -76l-76 76zM516 923l77 -76
l-77 -76l-76 76z" />
    <glyph glyph-name="Agrave" unicode="&#xc0;" horiz-adv-x="827" 
d="M154 -27l-146 84c40 70 322 579 389 685h7c107 -165 363 -599 415 -676l-152 -92c-25 45 -98 181 -109 196l-320 -15c-9 -20 -62 -140 -84 -182zM290 271l216 10c-21 42 -94 178 -109 209c-20 -39 -88 -180 -107 -219zM327 945l153 -118l-35 -55l-173 84z" />
    <glyph glyph-name="Aring" unicode="&#xc5;" horiz-adv-x="827" 
d="M154 -27l-146 84c37 65 285 513 366 646c-54 7 -91 37 -91 85c2 60 52 97 122 97c83 0 118 -37 118 -84c0 -54 -39 -88 -96 -96c111 -175 343 -566 392 -639l-152 -92c-25 45 -98 181 -109 196l-320 -15c-9 -20 -62 -140 -84 -182zM290 271l216 10
c-21 42 -94 178 -109 209c-20 -39 -88 -180 -107 -219zM404 839c-22 0 -48 -15 -48 -47c0 -28 21 -45 46 -45s49 15 49 49c0 25 -19 43 -47 43z" />
    <glyph glyph-name="Atilde" unicode="&#xc3;" horiz-adv-x="827" 
d="M154 -27l-146 84c40 70 322 579 389 685h7c107 -165 363 -599 415 -676l-152 -92c-25 45 -98 181 -109 196l-320 -15c-9 -20 -62 -140 -84 -182zM290 271l216 10c-21 42 -94 178 -109 209c-20 -39 -88 -180 -107 -219zM288 777l-57 28c21 54 60 96 100 96
c34 0 59 -13 82 -23c17 -7 32 -14 53 -14c23 1 41 21 54 44l57 -31c-25 -61 -62 -93 -97 -93c-33 -1 -56 12 -79 21c-21 9 -39 16 -60 16c-24 0 -41 -21 -53 -44z" />
    <glyph glyph-name="Ccedilla" unicode="&#xc7;" horiz-adv-x="651" 
d="M598 134l10 -141c-33 -5 -73 -9 -125 -9c-40 0 -77 2 -110 8l-30 -51c37 -10 74 -40 74 -81c0 -59 -78 -102 -185 -111l-10 58c50 2 98 20 100 56c0 27 -33 48 -70 59l47 85c-191 52 -256 184 -256 276c0 165 151 369 499 439l32 -150c-218 -33 -346 -143 -346 -267
c0 -96 89 -180 266 -180c40 0 76 4 104 9z" />
    <glyph glyph-name="Eacute" unicode="&#xc9;" horiz-adv-x="602" 
d="M521 127l4 -137c-27 0 -364 10 -403 10c3 53 3 267 3 290v134c0 16 -2 257 -3 282c43 0 349 15 383 18l4 -129c-34 0 -199 -5 -216 -5v-182c19 0 137 5 183 9l3 -126c-24 0 -165 4 -186 4v-171c25 0 167 -2 228 3zM393 943l53 -89l-176 -85l-34 56z" />
    <glyph glyph-name="Ecircumflex" unicode="&#xca;" horiz-adv-x="602" 
d="M521 127l4 -137c-27 0 -364 10 -403 10c3 53 3 267 3 290v134c0 16 -2 257 -3 282c43 0 349 15 383 18l4 -129c-34 0 -199 -5 -216 -5v-182c19 0 137 5 183 9l3 -126c-24 0 -165 4 -186 4v-171c25 0 167 -2 228 3zM325 927l147 -100l-48 -66l-103 80l-109 -80l-43 66z
" />
    <glyph glyph-name="Edieresis" unicode="&#xcb;" horiz-adv-x="602" 
d="M521 127l4 -137c-27 0 -364 10 -403 10c3 53 3 267 3 290v134c0 16 -2 257 -3 282c43 0 349 15 383 18l4 -129c-34 0 -199 -5 -216 -5v-182c19 0 137 5 183 9l3 -126c-24 0 -165 4 -186 4v-171c25 0 167 -2 228 3zM202 933l77 -76l-77 -76l-76 76zM428 933l77 -76
l-77 -76l-76 76z" />
    <glyph glyph-name="Egrave" unicode="&#xc8;" horiz-adv-x="602" 
d="M521 127l4 -137c-27 0 -364 10 -403 10c3 53 3 267 3 290v134c0 16 -2 257 -3 282c43 0 349 15 383 18l4 -129c-34 0 -199 -5 -216 -5v-182c19 0 137 5 183 9l3 -126c-24 0 -165 4 -186 4v-171c25 0 167 -2 228 3zM234 943l153 -118l-35 -55l-173 84z" />
    <glyph glyph-name="Iacute" unicode="&#xcd;" horiz-adv-x="420" 
d="M299 0h-177c2 44 3 278 3 304v108c0 17 -3 270 -4 294h178c-1 -18 -4 -176 -4 -296v-108c0 -100 3 -279 4 -302zM291 933l53 -89l-176 -85l-34 56z" />
    <glyph glyph-name="Icircumflex" unicode="&#xce;" horiz-adv-x="420" 
d="M299 0h-177c2 44 3 278 3 304v108c0 17 -3 270 -4 294h178c-1 -18 -4 -176 -4 -296v-108c0 -100 3 -279 4 -302zM215 927l147 -100l-48 -66l-103 80l-109 -80l-43 66z" />
    <glyph glyph-name="Idieresis" unicode="&#xcf;" horiz-adv-x="420" 
d="M299 0h-177c2 44 3 278 3 304v108c0 17 -3 270 -4 294h178c-1 -18 -4 -176 -4 -296v-108c0 -100 3 -279 4 -302zM97 923l77 -76l-77 -76l-76 76zM323 923l77 -76l-77 -76l-76 76z" />
    <glyph glyph-name="Igrave" unicode="&#xcc;" horiz-adv-x="420" 
d="M299 0h-177c2 44 3 278 3 304v108c0 17 -3 270 -4 294h178c-1 -18 -4 -176 -4 -296v-108c0 -100 3 -279 4 -302zM124 933l153 -118l-35 -55l-173 84z" />
    <glyph glyph-name="Ntilde" unicode="&#xd1;" horiz-adv-x="903" 
d="M250 -7l-159 7c3 37 11 188 19 345s16 321 20 381l8 3c94 -75 482 -417 514 -448c0 41 3 391 4 430l158 -5c-4 -58 -12 -194 -19 -338c-8 -144 -14 -295 -17 -385l-8 -3c-80 57 -501 430 -514 448h-2c0 -34 -5 -402 -4 -435zM361 757l-57 28c21 54 60 96 100 96
c34 0 59 -13 82 -23c17 -7 32 -14 53 -14c23 1 41 21 54 44l57 -31c-25 -61 -62 -93 -97 -93c-33 -1 -56 12 -79 21c-21 9 -39 16 -60 16c-24 0 -41 -21 -53 -44z" />
    <glyph glyph-name="Oacute" unicode="&#xd3;" horiz-adv-x="874" 
d="M48 329c0 195 148 393 411 393c216 0 367 -128 367 -356c0 -143 -105 -382 -416 -382c-225 1 -362 151 -362 345zM235 339c0 -141 81 -226 194 -226c94 0 208 73 209 248c1 153 -87 232 -193 232c-117 0 -210 -99 -210 -254zM529 933l53 -89l-176 -85l-34 56z" />
    <glyph glyph-name="Ocircumflex" unicode="&#xd4;" horiz-adv-x="874" 
d="M48 329c0 195 148 393 411 393c216 0 367 -128 367 -356c0 -143 -105 -382 -416 -382c-225 1 -362 151 -362 345zM235 339c0 -141 81 -226 194 -226c94 0 208 73 209 248c1 153 -87 232 -193 232c-117 0 -210 -99 -210 -254zM442 927l147 -100l-48 -66l-103 80l-109 -80
l-43 66z" />
    <glyph glyph-name="Odieresis" unicode="&#xd6;" horiz-adv-x="874" 
d="M48 329c0 195 148 393 411 393c216 0 367 -128 367 -356c0 -143 -105 -382 -416 -382c-225 1 -362 151 -362 345zM235 339c0 -141 81 -226 194 -226c94 0 208 73 209 248c1 153 -87 232 -193 232c-117 0 -210 -99 -210 -254zM324 923l77 -76l-77 -76l-76 76zM550 923
l77 -76l-77 -76l-76 76z" />
    <glyph glyph-name="Ograve" unicode="&#xd2;" horiz-adv-x="874" 
d="M48 329c0 195 148 393 411 393c216 0 367 -128 367 -356c0 -143 -105 -382 -416 -382c-225 1 -362 151 -362 345zM235 339c0 -141 81 -226 194 -226c94 0 208 73 209 248c1 153 -87 232 -193 232c-117 0 -210 -99 -210 -254zM351 933l153 -118l-35 -55l-173 84z" />
    <glyph glyph-name="Otilde" unicode="&#xd5;" horiz-adv-x="874" 
d="M48 329c0 195 148 393 411 393c216 0 367 -128 367 -356c0 -143 -105 -382 -416 -382c-225 1 -362 151 -362 345zM235 339c0 -141 81 -226 194 -226c94 0 208 73 209 248c1 153 -87 232 -193 232c-117 0 -210 -99 -210 -254zM322 782l-57 28c21 54 60 96 100 96
c34 0 59 -13 82 -23c17 -7 32 -14 53 -14c23 1 41 21 54 44l57 -31c-25 -61 -62 -93 -97 -93c-33 -1 -56 12 -79 21c-21 9 -39 16 -60 16c-24 0 -41 -21 -53 -44z" />
    <glyph glyph-name="Scaron" unicode="&#x160;" horiz-adv-x="539" 
d="M123 -18l-27 133c97 6 210 42 210 101c0 32 -21 49 -99 93c-72 41 -140 87 -140 167c0 110 149 222 355 248l24 -131c-99 -4 -196 -36 -196 -94c0 -34 47 -57 103 -87c61 -33 138 -72 138 -159c0 -105 -110 -232 -368 -271zM277 846l98 79l46 -66l-147 -98l-156 98l47 66
z" />
    <glyph glyph-name="Uacute" unicode="&#xda;" horiz-adv-x="842" 
d="M758 543v-46c0 -192 -11 -312 -87 -403c-60 -74 -148 -110 -257 -110c-70 0 -187 12 -261 123c-48 73 -65 149 -65 392v54c0 46 1 125 1 148h178c-4 -26 -6 -79 -6 -170v-68c0 -152 8 -225 46 -279c30 -44 73 -61 120 -61c54 0 95 25 122 66c36 55 37 130 37 319v37
c0 69 -4 134 -5 171h176c0 -22 1 -94 1 -173zM513 933l53 -89l-176 -85l-34 56z" />
    <glyph glyph-name="Ucircumflex" unicode="&#xdb;" horiz-adv-x="842" 
d="M758 543v-46c0 -192 -11 -312 -87 -403c-60 -74 -148 -110 -257 -110c-70 0 -187 12 -261 123c-48 73 -65 149 -65 392v54c0 46 1 125 1 148h178c-4 -26 -6 -79 -6 -170v-68c0 -152 8 -225 46 -279c30 -44 73 -61 120 -61c54 0 95 25 122 66c36 55 37 130 37 319v37
c0 69 -4 134 -5 171h176c0 -22 1 -94 1 -173zM430 927l147 -100l-48 -66l-103 80l-109 -80l-43 66z" />
    <glyph glyph-name="Udieresis" unicode="&#xdc;" horiz-adv-x="842" 
d="M758 543v-46c0 -192 -11 -312 -87 -403c-60 -74 -148 -110 -257 -110c-70 0 -187 12 -261 123c-48 73 -65 149 -65 392v54c0 46 1 125 1 148h178c-4 -26 -6 -79 -6 -170v-68c0 -152 8 -225 46 -279c30 -44 73 -61 120 -61c54 0 95 25 122 66c36 55 37 130 37 319v37
c0 69 -4 134 -5 171h176c0 -22 1 -94 1 -173zM317 923l77 -76l-77 -76l-76 76zM543 923l77 -76l-77 -76l-76 76z" />
    <glyph glyph-name="Ugrave" unicode="&#xd9;" horiz-adv-x="842" 
d="M758 543v-46c0 -192 -11 -312 -87 -403c-60 -74 -148 -110 -257 -110c-70 0 -187 12 -261 123c-48 73 -65 149 -65 392v54c0 46 1 125 1 148h178c-4 -26 -6 -79 -6 -170v-68c0 -152 8 -225 46 -279c30 -44 73 -61 120 -61c54 0 95 25 122 66c36 55 37 130 37 319v37
c0 69 -4 134 -5 171h176c0 -22 1 -94 1 -173zM335 933l153 -118l-35 -55l-173 84z" />
    <glyph glyph-name="Yacute" unicode="&#xdd;" horiz-adv-x="744" 
d="M455 0h-179c1 23 5 129 5 142v57c0 130 -59 233 -129 294c-40 35 -86 62 -127 76l67 153c61 -27 129 -68 170 -110c41 -44 87 -107 110 -184h6c25 71 64 126 115 178c46 47 118 95 184 116l55 -153c-53 -13 -118 -48 -168 -97c-63 -61 -114 -156 -114 -272v-77
c0 -14 3 -103 5 -123zM483 933l53 -89l-176 -85l-34 56z" />
    <glyph glyph-name="Ydieresis" unicode="&#x178;" horiz-adv-x="744" 
d="M455 0h-179c1 23 5 129 5 142v57c0 130 -59 233 -129 294c-40 35 -86 62 -127 76l67 153c61 -27 129 -68 170 -110c41 -44 87 -107 110 -184h6c25 71 64 126 115 178c46 47 118 95 184 116l55 -153c-53 -13 -118 -48 -168 -97c-63 -61 -114 -156 -114 -272v-77
c0 -14 3 -103 5 -123zM278 923l77 -76l-77 -76l-76 76zM504 923l77 -76l-77 -76l-76 76z" />
    <glyph glyph-name="Zcaron" unicode="&#x17d;" horiz-adv-x="710" 
d="M649 126l-4 -136c-25 0 -558 10 -605 10l-3 7c43 59 358 540 381 579c-36 0 -309 9 -338 9l4 130c53 -6 545 -23 583 -25l3 -6c-32 -48 -362 -553 -376 -575c59 0 327 3 355 7zM382 846l98 79l46 -66l-147 -98l-156 98l47 66z" />
    <glyph glyph-name="aacute" unicode="&#xe1;" 
d="M144 -25l-138 73c35 60 286 492 349 583h12c98 -141 325 -508 371 -573l-140 -82c-22 38 -89 151 -94 160l-287 -12c-7 -14 -56 -113 -73 -149zM265 230l188 8c-19 37 -80 149 -95 176c-18 -33 -76 -150 -93 -184zM310 728l149 112l51 -84l-168 -81z" />
    <glyph glyph-name="acircumflex" unicode="&#xe2;" 
d="M144 -25l-138 73c35 60 286 492 349 583h12c98 -141 325 -508 371 -573l-140 -82c-22 38 -89 151 -94 160l-287 -12c-7 -14 -56 -113 -73 -149zM265 230l188 8c-19 37 -80 149 -95 176c-18 -33 -76 -150 -93 -184zM226 742l148 95l140 -95l-46 -63l-98 77l-103 -77z" />
    <glyph glyph-name="adieresis" unicode="&#xe4;" 
d="M144 -25l-138 73c35 60 286 492 349 583h12c98 -141 325 -508 371 -573l-140 -82c-22 38 -89 151 -94 160l-287 -12c-7 -14 -56 -113 -73 -149zM265 230l188 8c-19 37 -80 149 -95 176c-18 -33 -76 -150 -93 -184zM257 688l-73 73l73 73l73 -73zM483 688l-73 73l73 73
l73 -73z" />
    <glyph glyph-name="agrave" unicode="&#xe0;" 
d="M144 -25l-138 73c35 60 286 492 349 583h12c98 -141 325 -508 371 -573l-140 -82c-22 38 -89 151 -94 160l-287 -12c-7 -14 -56 -113 -73 -149zM265 230l188 8c-19 37 -80 149 -95 176c-18 -33 -76 -150 -93 -184zM288 840l145 -112l-33 -52l-165 80z" />
    <glyph glyph-name="aring" unicode="&#xe5;" 
d="M144 -25l-138 73c35 60 286 492 349 583h12c98 -141 325 -508 371 -573l-140 -82c-22 38 -89 151 -94 160l-287 -12c-7 -14 -56 -113 -73 -149zM265 230l188 8c-19 37 -80 149 -95 176c-18 -33 -76 -150 -93 -184zM363 681h-1c-63 0 -107 30 -107 82c1 57 49 92 116 92
c79 0 112 -35 112 -80c0 -60 -50 -94 -120 -94zM368 724h1c23 0 46 14 46 46c0 24 -18 41 -45 41c-21 0 -46 -14 -46 -44c0 -27 20 -43 44 -43z" />
    <glyph glyph-name="atilde" unicode="&#xe3;" 
d="M144 -25l-138 73c35 60 286 492 349 583h12c98 -141 325 -508 371 -573l-140 -82c-22 38 -89 151 -94 160l-287 -12c-7 -14 -56 -113 -73 -149zM265 230l188 8c-19 37 -80 149 -95 176c-18 -33 -76 -150 -93 -184zM261 685l-55 26c20 52 57 91 95 92c33 0 57 -12 78 -21
c17 -8 31 -14 51 -14c22 1 38 20 50 42l55 -29c-24 -58 -60 -89 -92 -89c-31 -2 -54 11 -76 19c-19 9 -36 16 -56 16c-23 0 -40 -21 -50 -42z" />
    <glyph glyph-name="ccedilla" unicode="&#xe7;" horiz-adv-x="589" 
d="M371 -11l-28 -46c38 -10 73 -38 73 -78c0 -56 -73 -97 -175 -105l-10 55c48 2 94 19 95 54c0 25 -31 45 -67 55l43 75c-191 38 -260 157 -260 241c0 143 139 319 452 374l29 -133c-190 -28 -300 -115 -300 -222c0 -79 73 -143 231 -143c37 0 69 3 91 6l9 -129
c-26 -4 -63 -7 -110 -7c-24 0 -52 1 -73 3z" />
    <glyph glyph-name="eacute" unicode="&#xe9;" horiz-adv-x="548" 
d="M483 113l3 -122c-34 0 -340 9 -379 9c2 45 2 227 2 247v113c0 14 -2 219 -2 240c43 0 320 12 361 15l4 -116c-36 0 -187 -5 -203 -5v-144c18 0 127 4 173 8l2 -114c-26 0 -155 3 -175 3v-136c23 0 154 -2 214 2zM231 728l149 112l51 -84l-168 -81z" />
    <glyph glyph-name="ecircumflex" unicode="&#xea;" horiz-adv-x="548" 
d="M483 113l3 -122c-34 0 -340 9 -379 9c2 45 2 227 2 247v113c0 14 -2 219 -2 240c43 0 320 12 361 15l4 -116c-36 0 -187 -5 -203 -5v-144c18 0 127 4 173 8l2 -114c-26 0 -155 3 -175 3v-136c23 0 154 -2 214 2zM147 742l148 95l140 -95l-46 -63l-98 77l-103 -77z" />
    <glyph glyph-name="edieresis" unicode="&#xeb;" horiz-adv-x="548" 
d="M483 113l3 -122c-34 0 -340 9 -379 9c2 45 2 227 2 247v113c0 14 -2 219 -2 240c43 0 320 12 361 15l4 -116c-36 0 -187 -5 -203 -5v-144c18 0 127 4 173 8l2 -114c-26 0 -155 3 -175 3v-136c23 0 154 -2 214 2zM168 688l-73 73l73 73l73 -73zM394 688l-73 73l73 73
l73 -73z" />
    <glyph glyph-name="egrave" unicode="&#xe8;" horiz-adv-x="548" 
d="M483 113l3 -122c-34 0 -340 9 -379 9c2 45 2 227 2 247v113c0 14 -2 219 -2 240c43 0 320 12 361 15l4 -116c-36 0 -187 -5 -203 -5v-144c18 0 127 4 173 8l2 -114c-26 0 -155 3 -175 3v-136c23 0 154 -2 214 2zM214 840l145 -112l-33 -52l-165 80z" />
    <glyph glyph-name="iacute" unicode="&#xed;" horiz-adv-x="381" 
d="M272 349v-92c0 -85 3 -237 4 -257h-170c1 37 2 236 2 258v92c0 15 -2 230 -3 250h171c-1 -15 -4 -149 -4 -251zM138 728l149 112l51 -84l-168 -81z" />
    <glyph glyph-name="icircumflex" unicode="&#xee;" horiz-adv-x="381" 
d="M272 349v-92c0 -85 3 -237 4 -257h-170c1 37 2 236 2 258v92c0 15 -2 230 -3 250h171c-1 -15 -4 -149 -4 -251zM54 742l148 95l140 -95l-46 -63l-98 77l-103 -77z" />
    <glyph glyph-name="idieresis" unicode="&#xef;" horiz-adv-x="381" 
d="M272 349v-92c0 -85 3 -237 4 -257h-170c1 37 2 236 2 258v92c0 15 -2 230 -3 250h171c-1 -15 -4 -149 -4 -251zM75 688l-73 73l73 73l73 -73zM301 688l-73 73l73 73l73 -73z" />
    <glyph glyph-name="igrave" unicode="&#xec;" horiz-adv-x="381" 
d="M272 349v-92c0 -85 3 -237 4 -257h-170c1 37 2 236 2 258v92c0 15 -2 230 -3 250h171c-1 -15 -4 -149 -4 -251zM111 840l145 -112l-33 -52l-165 80z" />
    <glyph glyph-name="ntilde" unicode="&#xf1;" horiz-adv-x="788" 
d="M682 -15l-9 -4c-78 65 -419 342 -442 363c1 -33 0 -324 1 -350l-155 6c6 62 29 514 36 617l11 3c88 -70 400 -332 437 -364h2c0 46 -2 316 -1 348l152 -4c-5 -60 -16 -271 -23 -436c-3 -73 -8 -145 -9 -179zM298 685l-55 26c20 52 57 91 95 92c33 0 57 -12 78 -21
c17 -8 31 -14 51 -14c22 1 38 20 50 42l55 -29c-24 -58 -60 -89 -92 -89c-31 -2 -54 11 -76 19c-19 9 -36 16 -56 16c-23 0 -40 -21 -50 -42z" />
    <glyph glyph-name="oacute" unicode="&#xf3;" horiz-adv-x="796" 
d="M375 -14h-1c-222 0 -329 145 -329 287c0 174 130 341 377 341c199 0 329 -110 329 -295c0 -131 -90 -333 -376 -333zM385 96c103 0 185 75 185 217c0 126 -68 191 -160 191c-116 0 -184 -99 -184 -218c0 -118 67 -190 159 -190zM356 728l149 112l51 -84l-168 -81z" />
    <glyph glyph-name="ocircumflex" unicode="&#xf4;" horiz-adv-x="796" 
d="M375 -14h-1c-222 0 -329 145 -329 287c0 174 130 341 377 341c199 0 329 -110 329 -295c0 -131 -90 -333 -376 -333zM385 96c103 0 185 75 185 217c0 126 -68 191 -160 191c-116 0 -184 -99 -184 -218c0 -118 67 -190 159 -190zM262 742l148 95l140 -95l-46 -63l-98 77
l-103 -77z" />
    <glyph glyph-name="odieresis" unicode="&#xf6;" horiz-adv-x="796" 
d="M375 -14h-1c-222 0 -329 145 -329 287c0 174 130 341 377 341c199 0 329 -110 329 -295c0 -131 -90 -333 -376 -333zM385 96c103 0 185 75 185 217c0 126 -68 191 -160 191c-116 0 -184 -99 -184 -218c0 -118 67 -190 159 -190zM293 688l-73 73l73 73l73 -73zM519 688
l-73 73l73 73l73 -73z" />
    <glyph glyph-name="ograve" unicode="&#xf2;" horiz-adv-x="796" 
d="M375 -14h-1c-222 0 -329 145 -329 287c0 174 130 341 377 341c199 0 329 -110 329 -295c0 -131 -90 -333 -376 -333zM385 96c103 0 185 75 185 217c0 126 -68 191 -160 191c-116 0 -184 -99 -184 -218c0 -118 67 -190 159 -190zM314 840l145 -112l-33 -52l-165 80z" />
    <glyph glyph-name="otilde" unicode="&#xf5;" horiz-adv-x="796" 
d="M375 -14h-1c-222 0 -329 145 -329 287c0 174 130 341 377 341c199 0 329 -110 329 -295c0 -131 -90 -333 -376 -333zM385 96c103 0 185 75 185 217c0 126 -68 191 -160 191c-116 0 -184 -99 -184 -218c0 -118 67 -190 159 -190zM302 685l-55 26c20 52 57 91 95 92
c33 0 57 -12 78 -21c17 -8 31 -14 51 -14c22 1 38 20 50 42l55 -29c-24 -58 -60 -89 -92 -89c-31 -2 -54 11 -76 19c-19 9 -36 16 -56 16c-23 0 -40 -21 -50 -42z" />
    <glyph glyph-name="scaron" unicode="&#x161;" horiz-adv-x="498" 
d="M98 -16l-23 124c95 5 202 24 202 77c0 29 -22 42 -93 75c-67 31 -134 72 -134 145c0 101 144 196 341 213l22 -123c-98 -3 -189 -19 -189 -70c0 -31 45 -45 95 -69c57 -27 134 -61 134 -140c0 -98 -112 -204 -355 -232zM272 679l-149 94l45 62l107 -75l93 75l44 -62z" />
    <glyph glyph-name="uacute" unicode="&#xfa;" horiz-adv-x="751" 
d="M243 451v-57c0 -137 5 -197 39 -242c26 -35 55 -50 98 -50c51 0 81 24 103 55c32 45 33 105 33 275v31c0 59 -4 114 -5 145h168c0 -19 1 -79 1 -146v-40c0 -163 -11 -264 -79 -342c-55 -63 -133 -94 -233 -94c-64 0 -166 10 -233 105c-44 62 -61 127 -61 333v46
c0 39 1 106 1 125h173c-3 -22 -5 -66 -5 -144zM333 728l149 112l51 -84l-168 -81z" />
    <glyph glyph-name="ucircumflex" unicode="&#xfb;" horiz-adv-x="751" 
d="M243 451v-57c0 -137 5 -197 39 -242c26 -35 55 -50 98 -50c51 0 81 24 103 55c32 45 33 105 33 275v31c0 59 -4 114 -5 145h168c0 -19 1 -79 1 -146v-40c0 -163 -11 -264 -79 -342c-55 -63 -133 -94 -233 -94c-64 0 -166 10 -233 105c-44 62 -61 127 -61 333v46
c0 39 1 106 1 125h173c-3 -22 -5 -66 -5 -144zM239 742l148 95l140 -95l-46 -63l-98 77l-103 -77z" />
    <glyph glyph-name="udieresis" unicode="&#xfc;" horiz-adv-x="751" 
d="M243 451v-57c0 -137 5 -197 39 -242c26 -35 55 -50 98 -50c51 0 81 24 103 55c32 45 33 105 33 275v31c0 59 -4 114 -5 145h168c0 -19 1 -79 1 -146v-40c0 -163 -11 -264 -79 -342c-55 -63 -133 -94 -233 -94c-64 0 -166 10 -233 105c-44 62 -61 127 -61 333v46
c0 39 1 106 1 125h173c-3 -22 -5 -66 -5 -144zM270 688l-73 73l73 73l73 -73zM496 688l-73 73l73 73l73 -73z" />
    <glyph glyph-name="ugrave" unicode="&#xf9;" horiz-adv-x="751" 
d="M243 451v-57c0 -137 5 -197 39 -242c26 -35 55 -50 98 -50c51 0 81 24 103 55c32 45 33 105 33 275v31c0 59 -4 114 -5 145h168c0 -19 1 -79 1 -146v-40c0 -163 -11 -264 -79 -342c-55 -63 -133 -94 -233 -94c-64 0 -166 10 -233 105c-44 62 -61 127 -61 333v46
c0 39 1 106 1 125h173c-3 -22 -5 -66 -5 -144zM301 840l145 -112l-33 -52l-165 80z" />
    <glyph glyph-name="yacute" unicode="&#xfd;" horiz-adv-x="629" 
d="M397 0h-172c1 20 5 110 5 121v45c0 110 -51 194 -115 246c-36 29 -78 47 -110 58l56 144c56 -20 120 -55 156 -91c37 -38 78 -93 100 -161h4c23 63 56 113 103 156c43 40 108 80 170 98l44 -145c-43 -10 -101 -35 -147 -76c-57 -51 -98 -133 -98 -228v-62
c0 -12 2 -88 4 -105zM272 728l149 112l51 -84l-168 -81z" />
    <glyph glyph-name="ydieresis" unicode="&#xff;" horiz-adv-x="629" 
d="M397 0h-172c1 20 5 110 5 121v45c0 110 -51 194 -115 246c-36 29 -78 47 -110 58l56 144c56 -20 120 -55 156 -91c37 -38 78 -93 100 -161h4c23 63 56 113 103 156c43 40 108 80 170 98l44 -145c-43 -10 -101 -35 -147 -76c-57 -51 -98 -133 -98 -228v-62
c0 -12 2 -88 4 -105zM209 688l-73 73l73 73l73 -73zM435 688l-73 73l73 73l73 -73z" />
    <glyph glyph-name="zcaron" unicode="&#x17e;" horiz-adv-x="636" 
d="M70 490l4 126c20 -2 122 -7 230 -12s223 -9 268 -9h26l4 -8c-27 -41 -317 -464 -327 -476c51 0 285 4 309 7l-4 -128c-21 0 -507 10 -548 10l-4 10c41 52 313 452 333 477c-32 0 -268 3 -291 3zM336 679l-149 94l45 62l107 -75l93 75l44 -62z" />
    <glyph glyph-name="exclamsmall" unicode="&#xf721;" horiz-adv-x="289" 
d="M183 201l-100 -7c-5 109 -20 313 -26 422l182 -6c-5 -53 -19 -140 -32 -227c-10 -68 -19 -136 -24 -182zM66 0v115h134v-115h-134z" />
    <glyph glyph-name="dollaroldstyle" unicode="&#xf724;" horiz-adv-x="491" 
d="M198 -71l3 106c-23 -8 -99 -19 -121 -21l-13 111c110 5 203 43 203 77c0 33 -22 46 -80 73c-68 32 -128 70 -128 136c0 62 69 117 139 145l-3 120h99l-3 -92c14 6 78 18 100 19l9 -113c-88 0 -179 -28 -179 -69c0 -30 24 -42 86 -70c70 -31 120 -68 120 -132
c0 -78 -91 -140 -136 -161l3 -129h-99z" />
    <glyph glyph-name="ampersandsmall" unicode="&#xf726;" horiz-adv-x="658" 
d="M261 89h1c44 0 78 11 114 41c-62 42 -113 84 -152 118c-28 -25 -44 -49 -44 -90c0 -38 31 -69 81 -69zM656 92l-86 -108c-25 17 -61 43 -110 80c-53 -45 -105 -78 -230 -78c-121 0 -203 57 -203 150c0 82 70 148 124 178c-30 28 -50 61 -50 99c0 89 118 183 322 200
l17 -117c-119 -5 -182 -31 -182 -78c0 -37 34 -61 92 -107c33 -26 74 -58 120 -90c24 31 48 71 69 108l105 -73c-30 -39 -55 -69 -84 -97c36 -26 70 -49 96 -67z" />
    <glyph glyph-name="zerooldstyle" unicode="&#xf730;" horiz-adv-x="723" 
d="M354 14c-175 0 -311 106 -311 276c0 166 134 297 325 297c196 0 312 -116 312 -275c0 -153 -117 -298 -326 -298zM362 133c82 0 158 62 158 176c0 106 -72 159 -156 159c-81 0 -161 -56 -161 -174c0 -90 63 -161 159 -161z" />
    <glyph glyph-name="oneoldstyle" unicode="&#xf731;" horiz-adv-x="446" 
d="M341 0h-164c0 22 4 129 4 243v186c-22 -15 -78 -49 -106 -68l-54 85c24 12 215 122 312 177l12 -6c-1 -36 -6 -145 -6 -260v-132c-1 -122 0 -199 2 -225z" />
    <glyph glyph-name="twooldstyle" unicode="&#xf732;" horiz-adv-x="552" 
d="M488 119v-127c-14 2 -74 4 -152 5c-77 2 -173 3 -260 3h-62l-9 26c87 64 283 208 283 333c0 107 -139 137 -230 141l23 115c255 -20 373 -125 373 -235c0 -134 -142 -230 -190 -264v-7z" />
    <glyph glyph-name="threeoldstyle" unicode="&#xf733;" horiz-adv-x="499" 
d="M49 -22l-7 111c80 -5 225 20 225 101c0 67 -118 82 -165 82l-4 63c52 2 154 29 154 95c0 60 -102 78 -180 79l12 109c164 -3 337 -54 337 -160c0 -64 -70 -121 -119 -139v-4c72 -15 138 -56 138 -126c0 -121 -180 -209 -391 -211z" />
    <glyph glyph-name="fouroldstyle" unicode="&#xf734;" horiz-adv-x="579" 
d="M453 0h-147c1 24 5 53 5 90v21h-303l-22 50l391 460l76 -17l-1 -395l95 4l-6 -105l-90 4v-29c0 -23 1 -58 2 -83zM316 209v193h-2c-53 -69 -122 -161 -149 -193h151z" />
    <glyph glyph-name="fiveoldstyle" unicode="&#xf735;" horiz-adv-x="501" 
d="M63 -22l-24 113c92 10 232 49 232 134c0 60 -74 88 -211 95l40 282c61 1 280 8 338 11l-1 -125l-230 6l-13 -74c201 -23 245 -102 245 -175c0 -121 -165 -241 -376 -267z" />
    <glyph glyph-name="sixoldstyle" unicode="&#xf736;" horiz-adv-x="570" 
d="M342 634l79 -107c-50 -28 -120 -75 -162 -144c161 1 269 -83 269 -188c0 -120 -118 -210 -255 -210c-60 0 -117 12 -162 48c-50 39 -70 96 -70 156c0 169 150 357 301 445zM201 186c0 -59 32 -101 84 -101c50 0 83 38 83 92c0 74 -61 119 -146 117
c-13 -28 -21 -60 -21 -108z" />
    <glyph glyph-name="sevenoldstyle" unicode="&#xf737;" horiz-adv-x="492" 
d="M243 -23l-150 58c21 36 212 425 225 449l-285 1l-4 125c78 -2 343 -9 466 -8l6 -9c-33 -73 -235 -555 -258 -616z" />
    <glyph glyph-name="eightoldstyle" unicode="&#xf738;" horiz-adv-x="608" 
d="M294 -19c-174 0 -242 73 -242 166c0 65 46 132 110 162c-63 23 -103 82 -103 140c0 80 80 170 251 170c147 0 231 -63 231 -156c0 -49 -31 -116 -108 -147c76 -26 117 -85 117 -155c0 -79 -68 -180 -256 -180zM299 65c48 0 95 30 95 99c0 64 -44 101 -92 101
c-63 0 -95 -51 -95 -106c0 -59 43 -94 92 -94zM303 535c-58 0 -91 -41 -91 -91s38 -92 85 -92c48 0 91 33 91 96c0 62 -44 87 -85 87z" />
    <glyph glyph-name="nineoldstyle" unicode="&#xf739;" horiz-adv-x="563" 
d="M228 -32l-79 109c45 26 118 73 159 139c-162 -1 -266 81 -266 189c0 113 116 213 249 213c66 0 125 -17 170 -57c40 -36 60 -85 60 -148c0 -170 -148 -358 -293 -445zM364 414c0 67 -33 104 -82 104c-45 0 -84 -40 -84 -96c0 -78 58 -118 148 -117c11 23 18 60 18 109z
" />
    <glyph glyph-name="questionsmall" unicode="&#xf73f;" horiz-adv-x="441" 
d="M31 517l21 110c199 -19 350 -95 350 -200c0 -129 -161 -219 -274 -247l-30 89c47 12 134 58 134 134c0 81 -115 106 -201 114zM103 0v114h135v-114h-135z" />
    <glyph glyph-name="Asmall" unicode="&#xf761;" 
d="M144 -25l-138 73c35 60 286 492 349 583h12c98 -141 325 -508 371 -573l-140 -82c-22 38 -89 151 -94 160l-287 -12c-7 -14 -56 -113 -73 -149zM265 230l188 8c-19 37 -80 149 -95 176c-18 -33 -76 -150 -93 -184z" />
    <glyph glyph-name="Bsmall" unicode="&#xf762;" horiz-adv-x="633" 
d="M108 315v94c0 25 -2 174 -4 192c102 0 172 1 235 -5c187 -18 215 -90 215 -139c0 -35 -26 -96 -124 -130v-4c71 -4 152 -49 152 -131c0 -109 -131 -197 -410 -197h-68c4 47 4 303 4 320zM262 270v-184c73 3 150 38 150 101c0 60 -63 87 -150 83zM262 516v-169
c61 0 127 36 127 100s-82 71 -127 69z" />
    <glyph glyph-name="Csmall" unicode="&#xf763;" horiz-adv-x="589" 
d="M545 122l9 -129c-26 -4 -63 -7 -110 -7c-303 0 -402 151 -402 254c0 143 139 319 452 374l29 -132c-190 -28 -300 -115 -300 -223c0 -79 71 -143 231 -143c37 0 69 3 91 6z" />
    <glyph glyph-name="Dsmall" unicode="&#xf764;" horiz-adv-x="737" 
d="M109 269v105c0 18 -1 202 -4 226c123 0 213 -1 295 -10c262 -28 294 -157 294 -222c0 -274 -316 -377 -590 -372c3 39 5 250 5 273zM271 489v-369c146 13 247 102 247 223c0 116 -107 148 -247 146z" />
    <glyph glyph-name="Esmall" unicode="&#xf765;" horiz-adv-x="548" 
d="M483 113l3 -122c-34 0 -340 9 -379 9c2 45 2 227 2 247v113c0 14 -2 219 -2 240c43 0 320 12 361 15l4 -116c-36 0 -187 -5 -203 -5v-144c18 0 127 4 173 8l2 -114c-26 0 -155 3 -175 3v-136c23 0 154 -2 214 2z" />
    <glyph glyph-name="Fsmall" unicode="&#xf766;" horiz-adv-x="529" 
d="M273 0h-169c5 45 5 227 5 247v113c0 14 -2 219 -3 240c57 0 285 9 367 12l4 -116l-206 -4v-156c19 0 107 4 189 8l3 -113l-192 2v-72c0 -14 0 -149 2 -161z" />
    <glyph glyph-name="Gsmall" unicode="&#xf767;" horiz-adv-x="671" 
d="M603 194v-62c0 -33 2 -108 2 -123c-33 -10 -117 -23 -203 -23c-245 0 -361 114 -361 251c0 103 103 302 465 379l32 -139c-156 -24 -318 -111 -318 -235c0 -79 70 -136 173 -136c21 0 41 1 54 4v91c0 24 -2 50 -2 70h159c-1 -32 -1 -52 -1 -77z" />
    <glyph glyph-name="Hsmall" unicode="&#xf768;" horiz-adv-x="824" 
d="M278 0h-169c1 37 2 236 2 258v92c0 15 -2 230 -4 250h172c-2 -15 -5 -183 -5 -198v-43l276 16v45c0 14 -2 161 -4 180h172c-1 -20 -5 -255 -5 -275v-85c0 -11 2 -224 4 -240h-171c1 29 4 172 4 188v70l-276 -16v-36c0 -38 3 -186 4 -206z" />
    <glyph glyph-name="Ismall" unicode="&#xf769;" horiz-adv-x="381" 
d="M272 349v-92c0 -85 3 -237 4 -257h-170c1 37 2 236 2 258v92c0 15 -2 230 -3 250h171c-1 -15 -4 -149 -4 -251z" />
    <glyph glyph-name="Jsmall" unicode="&#xf76a;" horiz-adv-x="398" 
d="M302 391v-133c0 -185 -91 -285 -217 -344l-80 120c68 31 133 78 133 226v133c0 14 -3 186 -5 207h174c-2 -16 -5 -107 -5 -209z" />
    <glyph glyph-name="Ksmall" unicode="&#xf76b;" horiz-adv-x="692" 
d="M274 -9h-167c1 25 4 169 4 266v90c0 74 -4 242 -4 262h167c-1 -14 -4 -178 -4 -252v-29h4c51 55 240 262 261 283l109 -113c-38 -32 -158 -138 -206 -185c31 -33 189 -179 225 -214l-119 -118c-13 16 -212 239 -270 309h-4v-28c0 -66 2 -254 4 -271z" />
    <glyph glyph-name="Lsmall" unicode="&#xf76c;" horiz-adv-x="516" 
d="M106 601h173c-2 -20 -6 -192 -6 -299v-183c22 0 129 0 212 4l1 -132c-28 0 -326 9 -381 9c4 45 4 227 4 247v113c0 14 -2 224 -3 241z" />
    <glyph glyph-name="Msmall" unicode="&#xf76d;" horiz-adv-x="970" 
d="M161 -24l-146 49c15 35 201 519 234 592h12c44 -72 187 -315 215 -361c33 52 181 289 217 343h11c49 -103 221 -499 250 -563l-149 -60c-26 66 -125 328 -134 355c-18 -28 -148 -225 -205 -305h-11c-60 95 -156 252 -183 299h-2c-14 -40 -95 -312 -109 -349z" />
    <glyph glyph-name="Nsmall" unicode="&#xf76e;" horiz-adv-x="788" 
d="M682 -15l-9 -4c-78 65 -419 342 -442 363c1 -33 0 -324 1 -350l-155 6c6 62 29 514 36 617l11 3c88 -70 400 -332 437 -364h2c0 46 -2 316 -1 348l152 -4c-5 -60 -16 -271 -23 -436c-3 -73 -8 -145 -9 -179z" />
    <glyph glyph-name="Osmall" unicode="&#xf76f;" horiz-adv-x="796" 
d="M375 -14h-1c-222 0 -329 145 -329 287c0 174 130 341 377 341c199 0 329 -110 329 -295c0 -131 -90 -333 -376 -333zM385 96c103 0 185 75 185 217c0 126 -68 191 -160 191c-116 0 -184 -99 -184 -218c0 -118 67 -190 159 -190z" />
    <glyph glyph-name="Psmall" unicode="&#xf770;" horiz-adv-x="625" 
d="M271 0h-165c1 37 3 241 3 302v93c0 20 -2 192 -2 205c132 0 229 -3 298 -16c104 -19 181 -73 181 -168c0 -120 -117 -229 -316 -258v-32c0 -17 0 -108 1 -126zM270 499v-239c73 10 144 53 144 139c0 41 -21 95 -144 100z" />
    <glyph glyph-name="Qsmall" unicode="&#xf771;" horiz-adv-x="793" 
d="M775 33l-18 -125c-98 20 -214 45 -315 67c-37 8 -58 12 -74 12c-40 0 -147 8 -229 81c-56 50 -94 120 -94 210c0 183 145 336 374 336c202 0 331 -111 331 -288c0 -121 -70 -233 -179 -278v-5c65 -4 134 -7 204 -10zM226 285c0 -129 75 -190 159 -190
c99 0 183 68 183 223c0 137 -79 186 -156 186c-132 0 -186 -123 -186 -219z" />
    <glyph glyph-name="Rsmall" unicode="&#xf772;" horiz-adv-x="669" 
d="M270 500v-240c0 -32 2 -247 4 -260h-166c3 20 2 248 2 266v111c0 26 -2 206 -4 223c94 0 202 2 284 -8c129 -15 202 -65 202 -143c0 -73 -46 -128 -121 -172c25 -30 169 -173 194 -199l-135 -102c-17 24 -199 268 -224 305c46 23 110 66 110 138c0 40 -26 80 -146 81z
" />
    <glyph glyph-name="Ssmall" unicode="&#xf773;" horiz-adv-x="498" 
d="M98 -16l-23 124c95 5 202 24 202 77c0 29 -22 42 -93 75c-67 31 -134 72 -134 145c0 101 144 196 341 213l22 -123c-98 -3 -189 -19 -189 -70c0 -31 45 -45 95 -69c57 -27 134 -61 134 -140c0 -98 -112 -204 -355 -232z" />
    <glyph glyph-name="Tsmall" unicode="&#xf774;" horiz-adv-x="587" 
d="M380 0h-173c3 22 4 194 4 303v178c-63 0 -193 -4 -215 -6v125c35 -5 251 -8 261 -8h79c17 0 216 3 253 8v-125c-11 2 -179 6 -215 6v-191c0 -122 4 -273 6 -290z" />
    <glyph glyph-name="Usmall" unicode="&#xf775;" horiz-adv-x="751" 
d="M243 451v-57c0 -137 5 -197 39 -242c26 -35 55 -50 98 -50c51 0 81 24 103 55c32 45 33 105 33 275v31c0 59 -4 114 -5 145h168c0 -19 1 -79 1 -146v-40c0 -163 -11 -264 -79 -342c-55 -63 -133 -94 -233 -94c-64 0 -166 10 -233 105c-44 62 -61 127 -61 333v46
c0 39 1 106 1 125h173c-3 -22 -5 -66 -5 -144z" />
    <glyph glyph-name="Vsmall" unicode="&#xf776;" horiz-adv-x="702" 
d="M560 618l151 -73c-31 -46 -307 -495 -361 -579h-12c-64 94 -310 532 -336 574l158 80c18 -39 171 -363 195 -410c22 44 193 380 205 408z" />
    <glyph glyph-name="Wsmall" unicode="&#xf777;" horiz-adv-x="959" 
d="M816 605l151 -58c-13 -27 -236 -506 -268 -561h-11c-47 60 -174 247 -204 291c-49 -71 -168 -257 -212 -315h-11c-34 65 -207 497 -245 594l156 57c32 -98 113 -352 126 -389h2c21 32 111 177 184 295h9c71 -107 152 -225 189 -280h2c17 41 113 318 132 366z" />
    <glyph glyph-name="Xsmall" unicode="&#xf778;" horiz-adv-x="700" 
d="M140 -30l-113 106c20 19 194 200 221 230c-42 44 -173 182 -196 207l123 109c34 -41 138 -171 180 -218c27 30 157 178 191 217l115 -105c-25 -25 -190 -179 -213 -204c31 -32 197 -204 222 -230l-124 -111c-28 32 -177 209 -205 241c-16 -19 -182 -222 -201 -242z" />
    <glyph glyph-name="Ysmall" unicode="&#xf779;" horiz-adv-x="629" 
d="M397 0h-172c1 20 5 110 5 121v45c0 110 -51 194 -115 246c-36 29 -78 47 -110 58l56 144c56 -20 120 -55 156 -91c37 -38 78 -93 100 -161h4c23 63 56 113 103 156c43 40 108 80 170 98l44 -145c-43 -10 -101 -35 -147 -76c-57 -51 -98 -133 -98 -228v-62
c0 -12 2 -88 4 -105z" />
    <glyph glyph-name="Zsmall" unicode="&#xf77a;" horiz-adv-x="636" 
d="M70 490l4 126c20 -2 122 -7 230 -12s223 -9 268 -9h26l4 -8c-27 -41 -317 -464 -327 -476c51 0 285 4 309 7l-4 -128c-21 0 -507 10 -548 10l-4 10c41 52 313 452 333 477c-32 0 -268 3 -291 3z" />
    <glyph glyph-name="exclamdownsmall" unicode="&#xf7a1;" horiz-adv-x="289" 
d="M104 399l100 7c5 -109 20 -313 26 -422l-182 6c5 53 19 140 32 227c10 68 19 136 24 182zM221 600v-115h-134v115h134z" />
    <glyph glyph-name="centoldstyle" unicode="&#xf7a2;" horiz-adv-x="485" 
d="M206 -14l2 130c-124 32 -161 117 -161 170c0 89 63 166 161 214l-2 145h102l-2 -115c16 8 68 19 112 25l10 -116c-156 -12 -221 -72 -221 -141c0 -65 73 -88 149 -88c43 0 65 4 86 7l6 -108c-24 -4 -52 -6 -75 -6c-22 0 -55 0 -67 1l2 -118h-102z" />
    <glyph glyph-name="Lslashsmall" unicode="&#xf6f9;" horiz-adv-x="518" 
d="M488 123l1 -132c-31 0 -328 9 -381 9c4 38 4 174 4 216v27c-27 -10 -51 -19 -73 -29l-27 84c29 9 62 20 100 35v27c0 14 -2 224 -3 241h172c-2 -14 -4 -105 -5 -175v-38c40 16 78 32 105 43l29 -85c-37 -13 -85 -30 -135 -48v-179c17 0 124 0 213 4z" />
    <glyph glyph-name="Scaronsmall" unicode="&#xf6fd;" horiz-adv-x="498" 
d="M98 -16l-23 124c95 5 202 24 202 77c0 29 -22 42 -93 75c-67 31 -134 72 -134 145c0 101 144 196 341 213l22 -123c-98 -3 -189 -19 -189 -70c0 -31 45 -45 95 -69c57 -27 134 -61 134 -140c0 -98 -112 -204 -355 -232zM272 679l-149 94l45 62l107 -75l93 75l44 -62z" />
    <glyph glyph-name="Zcaronsmall" unicode="&#xf6ff;" horiz-adv-x="636" 
d="M70 490l4 126c20 -2 122 -7 230 -12s223 -9 268 -9h26l4 -8c-27 -41 -317 -464 -327 -476c51 0 285 4 309 7l-4 -128c-21 0 -507 10 -548 10l-4 10c41 52 313 452 333 477c-32 0 -268 3 -291 3zM336 679l-149 94l45 62l107 -75l93 75l44 -62z" />
    <glyph glyph-name="questiondownsmall" unicode="&#xf7bf;" horiz-adv-x="441" 
d="M410 83l-21 -110c-199 19 -350 95 -350 200c0 129 161 219 274 247l30 -89c-47 -12 -134 -58 -134 -134c0 -81 115 -106 201 -114zM338 600v-114h-135v114h135z" />
    <glyph glyph-name="foursuperior" unicode="&#x2074;" horiz-adv-x="461" 
d="M414 437l-6 -84l-64 2v-15c0 -15 1 -39 2 -66h-108c1 26 3 47 3 72v9h-202l-19 43l264 329l61 -16v-277zM245 434v133c-21 -34 -78 -113 -99 -133h99z" />
    <glyph glyph-name="Agravesmall" unicode="&#xf7e0;" 
d="M144 -25l-138 73c35 60 286 492 349 583h12c98 -141 325 -508 371 -573l-140 -82c-22 38 -89 151 -94 160l-287 -12c-7 -14 -56 -113 -73 -149zM265 230l188 8c-19 37 -80 149 -95 176c-18 -33 -76 -150 -93 -184zM288 840l145 -112l-33 -52l-165 80z" />
    <glyph glyph-name="Aacutesmall" unicode="&#xf7e1;" 
d="M144 -25l-138 73c35 60 286 492 349 583h12c98 -141 325 -508 371 -573l-140 -82c-22 38 -89 151 -94 160l-287 -12c-7 -14 -56 -113 -73 -149zM265 230l188 8c-19 37 -80 149 -95 176c-18 -33 -76 -150 -93 -184zM310 728l149 112l51 -84l-168 -81z" />
    <glyph glyph-name="Acircumflexsmall" unicode="&#xf7e2;" 
d="M144 -25l-138 73c35 60 286 492 349 583h12c98 -141 325 -508 371 -573l-140 -82c-22 38 -89 151 -94 160l-287 -12c-7 -14 -56 -113 -73 -149zM265 230l188 8c-19 37 -80 149 -95 176c-18 -33 -76 -150 -93 -184zM226 742l148 95l140 -95l-46 -63l-98 77l-103 -77z" />
    <glyph glyph-name="Atildesmall" unicode="&#xf7e3;" 
d="M144 -25l-138 73c35 60 286 492 349 583h12c98 -141 325 -508 371 -573l-140 -82c-22 38 -89 151 -94 160l-287 -12c-7 -14 -56 -113 -73 -149zM265 230l188 8c-19 37 -80 149 -95 176c-18 -33 -76 -150 -93 -184zM261 685l-55 26c20 52 57 91 95 92c33 0 57 -12 78 -21
c17 -8 31 -14 51 -14c22 1 38 20 50 42l55 -29c-24 -58 -60 -89 -92 -89c-31 -2 -54 11 -76 19c-19 9 -36 16 -56 16c-23 0 -40 -21 -50 -42z" />
    <glyph glyph-name="Adieresissmall" unicode="&#xf7e4;" 
d="M144 -25l-138 73c35 60 286 492 349 583h12c98 -141 325 -508 371 -573l-140 -82c-22 38 -89 151 -94 160l-287 -12c-7 -14 -56 -113 -73 -149zM265 230l188 8c-19 37 -80 149 -95 176c-18 -33 -76 -150 -93 -184zM257 688l-73 73l73 73l73 -73zM483 688l-73 73l73 73
l73 -73z" />
    <glyph glyph-name="Aringsmall" unicode="&#xf7e5;" 
d="M144 -25l-138 73c35 60 286 492 349 583h12c98 -141 325 -508 371 -573l-140 -82c-22 38 -89 151 -94 160l-287 -12c-7 -14 -56 -113 -73 -149zM265 230l188 8c-19 37 -80 149 -95 176c-18 -33 -76 -150 -93 -184zM363 681h-1c-63 0 -107 30 -107 82c1 57 49 92 116 92
c79 0 112 -35 112 -80c0 -60 -50 -94 -120 -94zM368 724h1c23 0 46 14 46 46c0 24 -18 41 -45 41c-21 0 -46 -14 -46 -44c0 -27 20 -43 44 -43z" />
    <glyph glyph-name="AEsmall" unicode="&#xf7e6;" horiz-adv-x="869" 
d="M804 111l4 -120c-33 0 -359 9 -375 9c1 20 3 109 3 150v32l-199 -4c-15 -22 -105 -159 -126 -193l-125 82c33 43 313 428 395 533c42 0 380 12 409 15l3 -114c-24 0 -193 -4 -209 -4v-160c17 0 140 5 180 9l2 -111c-21 0 -163 3 -182 3v-130c23 0 151 -1 220 3zM291 274
l145 6v208h-5c-46 -69 -112 -169 -140 -214z" />
    <glyph glyph-name="Ccedillasmall" unicode="&#xf7e7;" horiz-adv-x="589" 
d="M371 -11l-28 -46c38 -10 73 -38 73 -78c0 -56 -73 -97 -175 -105l-10 55c48 2 94 19 95 54c0 25 -31 45 -67 55l43 75c-191 38 -260 157 -260 241c0 143 139 319 452 374l29 -133c-190 -28 -300 -115 -300 -222c0 -79 73 -143 231 -143c37 0 69 3 91 6l9 -129
c-26 -4 -63 -7 -110 -7c-24 0 -52 1 -73 3z" />
    <glyph glyph-name="Egravesmall" unicode="&#xf7e8;" horiz-adv-x="548" 
d="M483 113l3 -122c-34 0 -340 9 -379 9c2 45 2 227 2 247v113c0 14 -2 219 -2 240c43 0 320 12 361 15l4 -116c-36 0 -187 -5 -203 -5v-144c18 0 127 4 173 8l2 -114c-26 0 -155 3 -175 3v-136c23 0 154 -2 214 2zM214 840l145 -112l-33 -52l-165 80z" />
    <glyph glyph-name="Eacutesmall" unicode="&#xf7e9;" horiz-adv-x="548" 
d="M483 113l3 -122c-34 0 -340 9 -379 9c2 45 2 227 2 247v113c0 14 -2 219 -2 240c43 0 320 12 361 15l4 -116c-36 0 -187 -5 -203 -5v-144c18 0 127 4 173 8l2 -114c-26 0 -155 3 -175 3v-136c23 0 154 -2 214 2zM231 728l149 112l51 -84l-168 -81z" />
    <glyph glyph-name="Ecircumflexsmall" unicode="&#xf7ea;" horiz-adv-x="548" 
d="M483 113l3 -122c-34 0 -340 9 -379 9c2 45 2 227 2 247v113c0 14 -2 219 -2 240c43 0 320 12 361 15l4 -116c-36 0 -187 -5 -203 -5v-144c18 0 127 4 173 8l2 -114c-26 0 -155 3 -175 3v-136c23 0 154 -2 214 2zM147 742l148 95l140 -95l-46 -63l-98 77l-103 -77z" />
    <glyph glyph-name="Edieresissmall" unicode="&#xf7eb;" horiz-adv-x="548" 
d="M483 113l3 -122c-34 0 -340 9 -379 9c2 45 2 227 2 247v113c0 14 -2 219 -2 240c43 0 320 12 361 15l4 -116c-36 0 -187 -5 -203 -5v-144c18 0 127 4 173 8l2 -114c-26 0 -155 3 -175 3v-136c23 0 154 -2 214 2zM168 688l-73 73l73 73l73 -73zM394 688l-73 73l73 73
l73 -73z" />
    <glyph glyph-name="Igravesmall" unicode="&#xf7ec;" horiz-adv-x="381" 
d="M272 349v-92c0 -85 3 -237 4 -257h-170c1 37 2 236 2 258v92c0 15 -2 230 -3 250h171c-1 -15 -4 -149 -4 -251zM111 840l145 -112l-33 -52l-165 80z" />
    <glyph glyph-name="Iacutesmall" unicode="&#xf7ed;" horiz-adv-x="381" 
d="M272 349v-92c0 -85 3 -237 4 -257h-170c1 37 2 236 2 258v92c0 15 -2 230 -3 250h171c-1 -15 -4 -149 -4 -251zM138 728l149 112l51 -84l-168 -81z" />
    <glyph glyph-name="Icircumflexsmall" unicode="&#xf7ee;" horiz-adv-x="381" 
d="M272 349v-92c0 -85 3 -237 4 -257h-170c1 37 2 236 2 258v92c0 15 -2 230 -3 250h171c-1 -15 -4 -149 -4 -251zM54 742l148 95l140 -95l-46 -63l-98 77l-103 -77z" />
    <glyph glyph-name="Idieresissmall" unicode="&#xf7ef;" horiz-adv-x="381" 
d="M272 349v-92c0 -85 3 -237 4 -257h-170c1 37 2 236 2 258v92c0 15 -2 230 -3 250h171c-1 -15 -4 -149 -4 -251zM75 688l-73 73l73 73l73 -73zM301 688l-73 73l73 73l73 -73z" />
    <glyph glyph-name="Ethsmall" unicode="&#xf7f0;" horiz-adv-x="739" 
d="M28 259l-3 84c23 1 51 2 86 3v28c0 18 -1 202 -4 226c123 0 215 -1 297 -10c264 -28 292 -156 292 -223c0 -270 -307 -375 -590 -371c3 35 4 203 5 246v21c-33 -1 -60 -3 -83 -4zM394 358l-1 -83c-38 -1 -81 -3 -122 -5v-150c151 14 251 100 251 223
c0 115 -105 148 -251 147v-138c42 2 86 4 123 6z" />
    <glyph glyph-name="Ntildesmall" unicode="&#xf7f1;" horiz-adv-x="788" 
d="M682 -15l-9 -4c-78 65 -419 342 -442 363c1 -33 0 -324 1 -350l-155 6c6 62 29 514 36 617l11 3c88 -70 400 -332 437 -364h2c0 46 -2 316 -1 348l152 -4c-5 -60 -16 -271 -23 -436c-3 -73 -8 -145 -9 -179zM298 685l-55 26c20 52 57 91 95 92c33 0 57 -12 78 -21
c17 -8 31 -14 51 -14c22 1 38 20 50 42l55 -29c-24 -58 -60 -89 -92 -89c-31 -2 -54 11 -76 19c-19 9 -36 16 -56 16c-23 0 -40 -21 -50 -42z" />
    <glyph glyph-name="Ogravesmall" unicode="&#xf7f2;" horiz-adv-x="796" 
d="M375 -14h-1c-222 0 -329 145 -329 287c0 174 130 341 377 341c199 0 329 -110 329 -295c0 -131 -90 -333 -376 -333zM385 96c103 0 185 75 185 217c0 126 -68 191 -160 191c-116 0 -184 -99 -184 -218c0 -118 67 -190 159 -190zM314 840l145 -112l-33 -52l-165 80z" />
    <glyph glyph-name="Oacutesmall" unicode="&#xf7f3;" horiz-adv-x="796" 
d="M375 -14h-1c-222 0 -329 145 -329 287c0 174 130 341 377 341c199 0 329 -110 329 -295c0 -131 -90 -333 -376 -333zM385 96c103 0 185 75 185 217c0 126 -68 191 -160 191c-116 0 -184 -99 -184 -218c0 -118 67 -190 159 -190zM356 728l149 112l51 -84l-168 -81z" />
    <glyph glyph-name="Ocircumflexsmall" unicode="&#xf7f4;" horiz-adv-x="796" 
d="M375 -14h-1c-222 0 -329 145 -329 287c0 174 130 341 377 341c199 0 329 -110 329 -295c0 -131 -90 -333 -376 -333zM385 96c103 0 185 75 185 217c0 126 -68 191 -160 191c-116 0 -184 -99 -184 -218c0 -118 67 -190 159 -190zM262 742l148 95l140 -95l-46 -63l-98 77
l-103 -77z" />
    <glyph glyph-name="Otildesmall" unicode="&#xf7f5;" horiz-adv-x="796" 
d="M375 -14h-1c-222 0 -329 145 -329 287c0 174 130 341 377 341c199 0 329 -110 329 -295c0 -131 -90 -333 -376 -333zM385 96c103 0 185 75 185 217c0 126 -68 191 -160 191c-116 0 -184 -99 -184 -218c0 -118 67 -190 159 -190zM302 685l-55 26c20 52 57 91 95 92
c33 0 57 -12 78 -21c17 -8 31 -14 51 -14c22 1 38 20 50 42l55 -29c-24 -58 -60 -89 -92 -89c-31 -2 -54 11 -76 19c-19 9 -36 16 -56 16c-23 0 -40 -21 -50 -42z" />
    <glyph glyph-name="Odieresissmall" unicode="&#xf7f6;" horiz-adv-x="796" 
d="M375 -14h-1c-222 0 -329 145 -329 287c0 174 130 341 377 341c199 0 329 -110 329 -295c0 -131 -90 -333 -376 -333zM385 96c103 0 185 75 185 217c0 126 -68 191 -160 191c-116 0 -184 -99 -184 -218c0 -118 67 -190 159 -190zM293 688l-73 73l73 73l73 -73zM519 688
l-73 73l73 73l73 -73z" />
    <glyph glyph-name="OEsmall" unicode="&#xf6fa;" horiz-adv-x="995" 
d="M570 0v60h-4c-55 -55 -130 -74 -206 -74c-181 0 -316 119 -316 295c0 174 144 333 355 333c69 0 130 -16 168 -51h2v37c36 0 319 12 346 15l4 -113l-196 -5v-149c30 0 146 5 166 8l3 -111l-169 4v-139c36 0 157 -3 207 2l4 -121c-15 0 -98 2 -182 5c-83 2 -166 4 -182 4z
M581 301v21c0 106 -69 180 -170 180c-129 0 -191 -108 -191 -210c0 -119 70 -194 167 -194c108 0 194 79 194 203z" />
    <glyph glyph-name="Oslashsmall" unicode="&#xf7f8;" horiz-adv-x="793" 
d="M100 -33l-62 68c24 19 49 39 72 60c-44 49 -66 113 -66 177c0 174 128 342 380 342c76 0 142 -17 191 -51c25 24 51 51 74 74l66 -64c-24 -21 -48 -42 -72 -65c43 -48 66 -112 66 -187c0 -130 -85 -335 -377 -335c-83 0 -144 19 -195 52c-26 -23 -51 -46 -77 -71z
M579 317v1c0 31 -2 57 -13 89c-92 -93 -190 -181 -290 -277c29 -26 68 -37 109 -37c86 0 194 58 194 224zM214 283v-1c0 -28 3 -57 15 -83c102 96 195 184 288 275c-30 27 -66 33 -108 33c-122 0 -195 -103 -195 -224z" />
    <glyph glyph-name="Ugravesmall" unicode="&#xf7f9;" horiz-adv-x="751" 
d="M243 451v-57c0 -137 5 -197 39 -242c26 -35 55 -50 98 -50c51 0 81 24 103 55c32 45 33 105 33 275v31c0 59 -4 114 -5 145h168c0 -19 1 -79 1 -146v-40c0 -163 -11 -264 -79 -342c-55 -63 -133 -94 -233 -94c-64 0 -166 10 -233 105c-44 62 -61 127 -61 333v46
c0 39 1 106 1 125h173c-3 -22 -5 -66 -5 -144zM301 840l145 -112l-33 -52l-165 80z" />
    <glyph glyph-name="Uacutesmall" unicode="&#xf7fa;" horiz-adv-x="751" 
d="M243 451v-57c0 -137 5 -197 39 -242c26 -35 55 -50 98 -50c51 0 81 24 103 55c32 45 33 105 33 275v31c0 59 -4 114 -5 145h168c0 -19 1 -79 1 -146v-40c0 -163 -11 -264 -79 -342c-55 -63 -133 -94 -233 -94c-64 0 -166 10 -233 105c-44 62 -61 127 -61 333v46
c0 39 1 106 1 125h173c-3 -22 -5 -66 -5 -144zM333 728l149 112l51 -84l-168 -81z" />
    <glyph glyph-name="Ucircumflexsmall" unicode="&#xf7fb;" horiz-adv-x="751" 
d="M243 451v-57c0 -137 5 -197 39 -242c26 -35 55 -50 98 -50c51 0 81 24 103 55c32 45 33 105 33 275v31c0 59 -4 114 -5 145h168c0 -19 1 -79 1 -146v-40c0 -163 -11 -264 -79 -342c-55 -63 -133 -94 -233 -94c-64 0 -166 10 -233 105c-44 62 -61 127 -61 333v46
c0 39 1 106 1 125h173c-3 -22 -5 -66 -5 -144zM239 742l148 95l140 -95l-46 -63l-98 77l-103 -77z" />
    <glyph glyph-name="Udieresissmall" unicode="&#xf7fc;" horiz-adv-x="751" 
d="M243 451v-57c0 -137 5 -197 39 -242c26 -35 55 -50 98 -50c51 0 81 24 103 55c32 45 33 105 33 275v31c0 59 -4 114 -5 145h168c0 -19 1 -79 1 -146v-40c0 -163 -11 -264 -79 -342c-55 -63 -133 -94 -233 -94c-64 0 -166 10 -233 105c-44 62 -61 127 -61 333v46
c0 39 1 106 1 125h173c-3 -22 -5 -66 -5 -144zM270 688l-73 73l73 73l73 -73zM496 688l-73 73l73 73l73 -73z" />
    <glyph glyph-name="Yacutesmall" unicode="&#xf7fd;" horiz-adv-x="629" 
d="M397 0h-172c1 20 5 110 5 121v45c0 110 -51 194 -115 246c-36 29 -78 47 -110 58l56 144c56 -20 120 -55 156 -91c37 -38 78 -93 100 -161h4c23 63 56 113 103 156c43 40 108 80 170 98l44 -145c-43 -10 -101 -35 -147 -76c-57 -51 -98 -133 -98 -228v-62
c0 -12 2 -88 4 -105zM272 728l149 112l51 -84l-168 -81z" />
    <glyph glyph-name="Thornsmall" unicode="&#xf7fe;" horiz-adv-x="624" 
d="M269 423v-230c75 6 145 51 145 130c0 38 -19 98 -145 100zM270 -28h-165c2 63 4 269 4 330v96c0 20 -2 192 -2 230h165c-2 -44 -3 -66 -3 -92v-15c27 0 82 -4 124 -11c99 -15 190 -78 190 -175c0 -112 -113 -224 -314 -241v-14c0 -17 0 -64 1 -108z" />
    <glyph glyph-name="Ydieresissmall" unicode="&#xf7ff;" horiz-adv-x="629" 
d="M397 0h-172c1 20 5 110 5 121v45c0 110 -51 194 -115 246c-36 29 -78 47 -110 58l56 144c56 -20 120 -55 156 -91c37 -38 78 -93 100 -161h4c23 63 56 113 103 156c43 40 108 80 170 98l44 -145c-43 -10 -101 -35 -147 -76c-57 -51 -98 -133 -98 -228v-62
c0 -12 2 -88 4 -105zM209 688l-73 73l73 73l73 -73zM435 688l-73 73l73 73l73 -73z" />
    <glyph glyph-name="commaaccent" unicode="&#xf6c3;" horiz-adv-x="881" 
d="M416 -60l102 -46l-108 -174l-46 22z" />
    <glyph glyph-name="Abreve" unicode="&#x102;" horiz-adv-x="827" 
d="M154 -27l-146 84c40 70 322 579 389 685h7c107 -165 363 -599 415 -676l-152 -92c-25 45 -98 181 -109 196l-320 -15c-9 -20 -62 -140 -84 -182zM290 271l216 10c-21 42 -94 178 -109 209c-20 -39 -88 -180 -107 -219zM253 839l48 63c25 -27 64 -55 119 -55
c47 0 82 25 108 55l45 -61c-34 -38 -97 -75 -161 -75c-58 0 -131 39 -159 73z" />
    <glyph glyph-name="Amacron" unicode="&#x100;" horiz-adv-x="827" 
d="M154 -27l-146 84c40 70 322 579 389 685h7c107 -165 363 -599 415 -676l-152 -92c-25 45 -98 181 -109 196l-320 -15c-9 -20 -62 -140 -84 -182zM290 271l216 10c-21 42 -94 178 -109 209c-20 -39 -88 -180 -107 -219zM554 853l-4 -82l-278 5l8 74z" />
    <glyph glyph-name="Aogonek" unicode="&#x104;" horiz-adv-x="827" 
d="M290 271l216 10c-21 42 -94 178 -109 209c-20 -39 -88 -180 -107 -219zM154 -27l-146 84c40 70 322 579 389 685h7c107 -165 363 -599 415 -676l-150 -91c-34 -21 -59 -65 -59 -85c0 -28 27 -59 90 -67l-17 -62c-92 16 -169 58 -169 117c0 40 43 92 134 132
c-28 50 -81 147 -90 160l-320 -15c-9 -20 -62 -140 -84 -182z" />
    <glyph glyph-name="Cacute" unicode="&#x106;" horiz-adv-x="651" 
d="M598 134l10 -141c-33 -5 -73 -9 -125 -9c-334 0 -440 182 -440 299c0 165 151 369 499 439l32 -150c-218 -33 -346 -143 -346 -267c0 -96 89 -180 266 -180c40 0 76 4 104 9zM517 933l53 -89l-176 -85l-34 56z" />
    <glyph glyph-name="Ccaron" unicode="&#x10c;" horiz-adv-x="651" 
d="M598 134l10 -141c-33 -5 -73 -9 -125 -9c-334 0 -440 182 -440 299c0 165 151 369 499 439l32 -150c-218 -33 -346 -143 -346 -267c0 -96 89 -180 266 -180c40 0 76 4 104 9zM453 846l98 79l46 -66l-147 -98l-156 98l47 66z" />
    <glyph glyph-name="Dcaron" unicode="&#x10e;" horiz-adv-x="830" 
d="M125 316v124c0 21 -1 238 -5 266c132 0 241 -3 331 -15c289 -38 334 -178 334 -254c0 -313 -382 -442 -666 -442c4 46 6 294 6 321zM293 580v-439c166 20 307 126 307 265c0 131 -138 175 -307 174zM382 846l98 79l46 -66l-147 -98l-156 98l47 66z" />
    <glyph glyph-name="Dcroat" unicode="&#x110;" horiz-adv-x="830" 
d="M125 404v36c0 21 -1 238 -5 266c132 0 241 -3 331 -15c289 -38 334 -178 334 -254c0 -313 -382 -442 -666 -442c4 45 6 286 6 316c-20 -1 -86 -4 -94 -5l-4 95c8 0 77 2 98 3zM292 319v-178c167 18 308 129 308 265c0 129 -137 175 -308 174v-169c22 1 120 6 136 7
l-1 -94c-18 0 -114 -4 -135 -5z" />
    <glyph glyph-name="Ecaron" unicode="&#x11a;" horiz-adv-x="602" 
d="M521 127l4 -137c-27 0 -364 10 -403 10c3 53 3 267 3 290v134c0 16 -2 257 -3 282c43 0 349 15 383 18l4 -129c-34 0 -199 -5 -216 -5v-182c19 0 137 5 183 9l3 -126c-24 0 -165 4 -186 4v-171c25 0 167 -2 228 3zM338 846l98 79l46 -66l-147 -98l-156 98l47 66z" />
    <glyph glyph-name="Edotaccent" unicode="&#x116;" horiz-adv-x="602" 
d="M521 127l4 -137c-27 0 -364 10 -403 10c3 53 3 267 3 290v134c0 16 -2 257 -3 282c43 0 349 15 383 18l4 -129c-34 0 -199 -5 -216 -5v-182c19 0 137 5 183 9l3 -126c-24 0 -165 4 -186 4v-171c25 0 167 -2 228 3zM330 937l84 -83l-84 -83l-83 83z" />
    <glyph glyph-name="Emacron" unicode="&#x112;" horiz-adv-x="602" 
d="M521 127l4 -137c-27 0 -364 10 -403 10c3 53 3 267 3 290v134c0 16 -2 257 -3 282c43 0 349 15 383 18l4 -129c-34 0 -199 -5 -216 -5v-182c19 0 137 5 183 9l3 -126c-24 0 -165 4 -186 4v-171c25 0 167 -2 228 3zM461 853l-4 -82l-278 5l8 74z" />
    <glyph glyph-name="Eogonek" unicode="&#x118;" horiz-adv-x="602" 
d="M521 127l4 -137h-19c-51 -33 -80 -76 -80 -100c0 -28 27 -59 90 -67l-17 -62c-92 16 -169 58 -169 117c0 41 47 85 101 114c-74 2 -279 8 -309 8c3 53 3 267 3 290v134c0 16 -2 257 -3 282c43 0 349 15 383 18l4 -129c-34 0 -199 -5 -216 -5v-182c19 0 137 5 183 9
l3 -126c-24 0 -165 4 -186 4v-171c25 0 167 -2 228 3z" />
    <glyph glyph-name="Gbreve" unicode="&#x11e;" horiz-adv-x="739" 
d="M658 228v-73c0 -38 2 -127 2 -145c-33 -11 -127 -27 -221 -26c-265 2 -396 134 -396 295c0 118 111 350 507 445l36 -151c-173 -29 -363 -142 -363 -288c0 -85 77 -167 196 -167c28 0 55 0 73 3v115c0 29 -1 59 -2 78h169c-1 -33 -1 -56 -1 -86zM289 839l48 63
c25 -27 64 -55 119 -55c47 0 82 25 108 55l45 -61c-34 -38 -97 -75 -161 -75c-58 0 -131 39 -159 73z" />
    <glyph glyph-name="Gcommaaccent" unicode="&#x122;" horiz-adv-x="739" 
d="M658 228v-73c0 -38 2 -127 2 -145c-33 -11 -127 -27 -221 -26c-265 2 -396 134 -396 295c0 118 111 350 507 445l36 -151c-173 -29 -363 -142 -363 -288c0 -85 77 -167 196 -167c28 0 55 0 73 3v115c0 29 -1 59 -2 78h169c-1 -33 -1 -56 -1 -86zM345 -60l102 -46
l-108 -174l-46 22z" />
    <glyph glyph-name="Imacron" unicode="&#x12a;" horiz-adv-x="420" 
d="M299 0h-177c2 44 3 278 3 304v108c0 17 -3 270 -4 294h178c-1 -18 -4 -176 -4 -296v-108c0 -100 3 -279 4 -302zM351 853l-4 -82l-278 5l8 74z" />
    <glyph glyph-name="Iogonek" unicode="&#x12e;" horiz-adv-x="420" 
d="M296 -177l-17 -62c-92 16 -169 58 -169 117c0 37 38 80 111 122h-99c2 44 3 278 3 304v108c0 17 -3 270 -4 294h178c-1 -18 -4 -176 -4 -296v-108c0 -100 3 -279 4 -302c-59 -36 -93 -84 -93 -110c0 -28 27 -59 90 -67z" />
    <glyph glyph-name="Kcommaaccent" unicode="&#x136;" horiz-adv-x="760" 
d="M298 -10h-177c1 29 4 198 4 312v106c0 87 -4 285 -4 308h177c-1 -16 -5 -211 -5 -298v-34h5c56 66 269 302 292 329l119 -112c-38 -40 -186 -178 -239 -233c34 -39 219 -224 259 -266l-129 -118c-14 18 -238 275 -302 359h-5v-33c0 -77 3 -301 5 -320zM356 -40l102 -46
l-108 -174l-46 22z" />
    <glyph glyph-name="Lacute" unicode="&#x139;" horiz-adv-x="564" 
d="M523 135l1 -145c-20 0 -346 10 -404 10c5 53 5 267 5 291v133c0 16 -2 263 -4 282h180c-2 -23 -6 -225 -6 -351v-224c24 0 142 0 228 4zM291 933l53 -89l-176 -85l-34 56z" />
    <glyph glyph-name="Lcaron" unicode="&#x13d;" horiz-adv-x="564" 
d="M523 135l1 -145c-20 0 -346 10 -404 10c5 53 5 267 5 291v133c0 16 -2 263 -4 282h180c-2 -23 -6 -225 -6 -351v-224c24 0 142 0 228 4zM478 710l102 -46l-108 -174l-46 22z" />
    <glyph glyph-name="Lcommaaccent" unicode="&#x13b;" horiz-adv-x="564" 
d="M523 135l1 -145c-20 0 -346 10 -404 10c5 53 5 267 5 291v133c0 16 -2 263 -4 282h180c-2 -23 -6 -225 -6 -351v-224c24 0 142 0 228 4zM277 -60l102 -46l-108 -174l-46 22z" />
    <glyph glyph-name="Nacute" unicode="&#x143;" horiz-adv-x="903" 
d="M250 -7l-159 7c3 37 11 188 19 345s16 321 20 381l8 3c94 -75 482 -417 514 -448c0 41 3 391 4 430l158 -5c-4 -58 -12 -194 -19 -338c-8 -144 -14 -295 -17 -385l-8 -3c-80 57 -501 430 -514 448h-2c0 -34 -5 -402 -4 -435zM543 913l53 -89l-176 -85l-34 56z" />
    <glyph glyph-name="Ncaron" unicode="&#x147;" horiz-adv-x="903" 
d="M250 -7l-159 7c3 37 11 188 19 345s16 321 20 381l8 3c94 -75 482 -417 514 -448c0 41 3 391 4 430l158 -5c-4 -58 -12 -194 -19 -338c-8 -144 -14 -295 -17 -385l-8 -3c-80 57 -501 430 -514 448h-2c0 -34 -5 -402 -4 -435zM459 826l98 79l46 -66l-147 -98l-156 98
l47 66z" />
    <glyph glyph-name="Ncommaaccent" unicode="&#x145;" horiz-adv-x="903" 
d="M250 -7l-159 7c3 37 11 188 19 345s16 321 20 381l8 3c94 -75 482 -417 514 -448c0 41 3 391 4 430l158 -5c-4 -58 -12 -194 -19 -338c-8 -144 -14 -295 -17 -385l-8 -3c-80 57 -501 430 -514 448h-2c0 -34 -5 -402 -4 -435zM427 -40l102 -46l-108 -174l-46 22z" />
    <glyph glyph-name="Ohungarumlaut" unicode="&#x150;" horiz-adv-x="874" 
d="M48 329c0 195 148 393 411 393c216 0 367 -128 367 -356c0 -143 -105 -382 -416 -382c-225 1 -362 151 -362 345zM235 339c0 -141 81 -226 194 -226c94 0 208 73 209 248c1 153 -87 232 -193 232c-117 0 -210 -99 -210 -254zM570 947l69 -66l-142 -121l-45 37zM403 941
l72 -59l-118 -122l-47 36z" />
    <glyph glyph-name="Omacron" unicode="&#x14c;" horiz-adv-x="874" 
d="M48 329c0 195 148 393 411 393c216 0 367 -128 367 -356c0 -143 -105 -382 -416 -382c-225 1 -362 151 -362 345zM235 339c0 -141 81 -226 194 -226c94 0 208 73 209 248c1 153 -87 232 -193 232c-117 0 -210 -99 -210 -254zM598 853l-4 -82l-278 5l8 74z" />
    <glyph glyph-name="Racute" unicode="&#x154;" horiz-adv-x="742" 
d="M297 0h-173c4 24 2 341 2 362v82c0 30 -2 243 -5 262c101 0 218 -2 302 -13c144 -18 222 -74 222 -164c0 -83 -54 -147 -133 -201c28 -34 192 -217 218 -246l-141 -108c-18 28 -224 315 -253 358c47 26 130 84 130 163c0 47 -33 100 -174 101v-290c0 -38 3 -291 5 -306z
M463 933l53 -89l-176 -85l-34 56z" />
    <glyph glyph-name="Rcaron" unicode="&#x158;" horiz-adv-x="742" 
d="M297 0h-173c4 24 2 341 2 362v82c0 30 -2 243 -5 262c101 0 218 -2 302 -13c144 -18 222 -74 222 -164c0 -83 -54 -147 -133 -201c28 -34 192 -217 218 -246l-141 -108c-18 28 -224 315 -253 358c47 26 130 84 130 163c0 47 -33 100 -174 101v-290c0 -38 3 -291 5 -306z
M379 846l98 79l46 -66l-147 -98l-156 98l47 66z" />
    <glyph glyph-name="Rcommaaccent" unicode="&#x156;" horiz-adv-x="742" 
d="M297 0h-173c4 24 2 341 2 362v82c0 30 -2 243 -5 262c101 0 218 -2 302 -13c144 -18 222 -74 222 -164c0 -83 -54 -147 -133 -201c28 -34 192 -217 218 -246l-141 -108c-18 28 -224 315 -253 358c47 26 130 84 130 163c0 47 -33 100 -174 101v-290c0 -38 3 -291 5 -306z
M347 -60l102 -46l-108 -174l-46 22z" />
    <glyph glyph-name="Sacute" unicode="&#x15a;" horiz-adv-x="539" 
d="M123 -18l-27 133c97 6 210 42 210 101c0 32 -21 49 -99 93c-72 41 -140 87 -140 167c0 110 149 222 355 248l24 -131c-99 -4 -196 -36 -196 -94c0 -34 47 -57 103 -87c61 -33 138 -72 138 -159c0 -105 -110 -232 -368 -271zM371 933l53 -89l-176 -85l-34 56z" />
    <glyph glyph-name="Scedilla" unicode="&#x15e;" horiz-adv-x="539" 
d="M123 -18l-27 133c97 6 210 42 210 101c0 32 -21 49 -99 93c-72 41 -140 87 -140 167c0 110 149 222 355 248l24 -131c-99 -4 -196 -36 -196 -94c0 -34 47 -57 103 -87c61 -33 138 -72 138 -159c0 -70 -48 -149 -158 -205l-59 -107c37 -10 74 -40 74 -81
c0 -59 -78 -102 -185 -111l-10 58c50 2 98 20 100 56c0 27 -33 48 -70 59l46 84c-31 -10 -67 -18 -106 -24z" />
    <glyph glyph-name="Scedilla" unicode="&#xf6c1;" horiz-adv-x="539" 
d="M123 -18l-27 133c97 6 210 42 210 101c0 32 -21 49 -99 93c-72 41 -140 87 -140 167c0 110 149 222 355 248l24 -131c-99 -4 -196 -36 -196 -94c0 -34 47 -57 103 -87c61 -33 138 -72 138 -159c0 -70 -48 -149 -158 -205l-59 -107c37 -10 74 -40 74 -81
c0 -59 -78 -102 -185 -111l-10 58c50 2 98 20 100 56c0 27 -33 48 -70 59l46 84c-31 -10 -67 -18 -106 -24z" />
    <glyph glyph-name="Scommaaccent" unicode="&#x218;" horiz-adv-x="539" 
d="M123 -18l-27 133c97 6 210 42 210 101c0 32 -21 49 -99 93c-72 41 -140 87 -140 167c0 110 149 222 355 248l24 -131c-99 -4 -196 -36 -196 -94c0 -34 47 -57 103 -87c61 -33 138 -72 138 -159c0 -105 -110 -232 -368 -271zM245 -60l102 -46l-108 -174l-46 22z" />
    <glyph glyph-name="Tcaron" unicode="&#x164;" horiz-adv-x="656" 
d="M420 0h-181c3 26 4 230 4 359v216c-75 0 -217 -5 -248 -8v139c45 -6 282 -10 293 -10h87c19 0 237 4 286 10v-139c-19 3 -204 8 -248 8v-232c0 -144 5 -323 7 -343zM336 846l98 79l46 -66l-147 -98l-156 98l47 66z" />
    <glyph glyph-name="Tcommaaccent" unicode="&#x162;" horiz-adv-x="656" 
d="M420 0h-181c3 26 4 230 4 359v216c-75 0 -217 -5 -248 -8v139c45 -6 282 -10 293 -10h87c19 0 237 4 286 10v-139c-19 3 -204 8 -248 8v-232c0 -144 5 -323 7 -343zM304 -60l102 -46l-108 -174l-46 22z" />
    <glyph glyph-name="Uhungarumlaut" unicode="&#x170;" horiz-adv-x="842" 
d="M758 543v-46c0 -192 -11 -312 -87 -403c-60 -74 -148 -110 -257 -110c-70 0 -187 12 -261 123c-48 73 -65 149 -65 392v54c0 46 1 125 1 148h178c-4 -26 -6 -79 -6 -170v-68c0 -152 8 -225 46 -279c30 -44 73 -61 120 -61c54 0 95 25 122 66c36 55 37 130 37 319v37
c0 69 -4 134 -5 171h176c0 -22 1 -94 1 -173zM534 947l69 -66l-142 -121l-45 37zM367 941l72 -59l-118 -122l-47 36z" />
    <glyph glyph-name="Umacron" unicode="&#x16a;" horiz-adv-x="842" 
d="M758 543v-46c0 -192 -11 -312 -87 -403c-60 -74 -148 -110 -257 -110c-70 0 -187 12 -261 123c-48 73 -65 149 -65 392v54c0 46 1 125 1 148h178c-4 -26 -6 -79 -6 -170v-68c0 -152 8 -225 46 -279c30 -44 73 -61 120 -61c54 0 95 25 122 66c36 55 37 130 37 319v37
c0 69 -4 134 -5 171h176c0 -22 1 -94 1 -173zM562 853l-4 -82l-278 5l8 74z" />
    <glyph glyph-name="Uogonek" unicode="&#x172;" horiz-adv-x="842" 
d="M758 543v-46c0 -192 -11 -312 -87 -403c-31 -37 -68 -65 -123 -94c-52 -27 -92 -87 -92 -110c0 -28 27 -59 90 -67l-17 -62c-92 16 -169 58 -169 117c0 38 40 79 89 108c-12 -2 -23 -2 -35 -2c-70 0 -187 12 -261 123c-48 73 -65 149 -65 392v54c0 46 1 125 1 148h178
c-4 -26 -6 -79 -6 -170v-68c0 -152 8 -225 46 -279c30 -44 73 -61 120 -61c54 0 95 25 122 66c36 55 37 130 37 319v37c0 69 -4 134 -5 171h176c0 -22 1 -94 1 -173z" />
    <glyph glyph-name="Uring" unicode="&#x16e;" horiz-adv-x="842" 
d="M758 543v-46c0 -192 -11 -312 -87 -403c-60 -74 -148 -110 -257 -110c-70 0 -187 12 -261 123c-48 73 -65 149 -65 392v54c0 46 1 125 1 148h178c-4 -26 -6 -79 -6 -170v-68c0 -152 8 -225 46 -279c30 -44 73 -61 120 -61c54 0 95 25 122 66c36 55 37 130 37 319v37
c0 69 -4 134 -5 171h176c0 -22 1 -94 1 -173zM432 925c83 0 118 -37 118 -84c0 -63 -53 -99 -126 -99c-67 0 -114 32 -114 86c2 60 52 97 122 97zM431 879c-22 0 -48 -15 -48 -47c0 -28 21 -45 46 -45s49 15 49 49c0 25 -19 43 -47 43z" />
    <glyph glyph-name="Zacute" unicode="&#x179;" horiz-adv-x="710" 
d="M649 126l-4 -136c-25 0 -558 10 -605 10l-3 7c43 59 358 540 381 579c-36 0 -309 9 -338 9l4 130c53 -6 545 -23 583 -25l3 -6c-32 -48 -362 -553 -376 -575c59 0 327 3 355 7zM447 933l53 -89l-176 -85l-34 56z" />
    <glyph glyph-name="Zdotaccent" unicode="&#x17b;" horiz-adv-x="710" 
d="M649 126l-4 -136c-25 0 -558 10 -605 10l-3 7c43 59 358 540 381 579c-36 0 -309 9 -338 9l4 130c53 -6 545 -23 583 -25l3 -6c-32 -48 -362 -553 -376 -575c59 0 327 3 355 7zM374 937l84 -83l-84 -83l-83 83z" />
    <glyph glyph-name="Idotaccent" unicode="&#x130;" horiz-adv-x="420" 
d="M299 0h-177c2 44 3 278 3 304v108c0 17 -3 270 -4 294h178c-1 -18 -4 -176 -4 -296v-108c0 -100 3 -279 4 -302zM210 937l84 -83l-84 -83l-83 83z" />
    <glyph glyph-name="abreve" unicode="&#x103;" 
d="M144 -25l-138 73c35 60 286 492 349 583h12c98 -141 325 -508 371 -573l-140 -82c-22 38 -89 151 -94 160l-287 -12c-7 -14 -56 -113 -73 -149zM265 230l188 8c-19 37 -80 149 -95 176c-18 -33 -76 -150 -93 -184zM476 813l44 -58c-33 -36 -93 -71 -153 -71
c-56 0 -125 37 -152 69l47 60c23 -25 60 -52 112 -52c44 0 78 24 102 52z" />
    <glyph glyph-name="amacron" unicode="&#x101;" 
d="M144 -25l-138 73c35 60 286 492 349 583h12c98 -141 325 -508 371 -573l-140 -82c-22 38 -89 151 -94 160l-287 -12c-7 -14 -56 -113 -73 -149zM265 230l188 8c-19 37 -80 149 -95 176c-18 -33 -76 -150 -93 -184zM233 691l8 71l260 2l-4 -77z" />
    <glyph glyph-name="aogonek" unicode="&#x105;" 
d="M265 230l188 8c-19 37 -80 149 -95 176c-18 -33 -76 -150 -93 -184zM144 -25l-138 73c35 60 286 492 349 583h12c98 -141 325 -508 371 -573l-140 -82c-18 -11 -53 -60 -53 -80c0 -27 25 -57 86 -64l-17 -59c-87 15 -160 55 -160 111c0 38 40 78 124 127
c-29 49 -70 118 -74 125l-287 -12c-7 -14 -56 -113 -73 -149z" />
    <glyph glyph-name="cacute" unicode="&#x107;" horiz-adv-x="589" 
d="M545 122l9 -129c-26 -4 -63 -7 -110 -7c-303 0 -402 151 -402 254c0 143 139 319 452 374l29 -132c-190 -28 -300 -115 -300 -223c0 -79 71 -143 231 -143c37 0 69 3 91 6zM322 728l149 112l51 -84l-168 -81z" />
    <glyph glyph-name="ccaron" unicode="&#x10d;" horiz-adv-x="589" 
d="M545 122l9 -129c-26 -4 -63 -7 -110 -7c-303 0 -402 151 -402 254c0 143 139 319 452 374l29 -132c-190 -28 -300 -115 -300 -223c0 -79 71 -143 231 -143c37 0 69 3 91 6zM383 679l-149 94l45 62l107 -75l93 75l44 -62z" />
    <glyph glyph-name="dcaron" unicode="&#x10f;" horiz-adv-x="737" 
d="M109 269v105c0 18 -1 202 -4 226c123 0 213 -1 295 -10c262 -28 294 -157 294 -222c0 -274 -316 -377 -590 -372c3 39 5 250 5 273zM271 489v-369c146 13 247 102 247 223c0 116 -107 148 -247 146zM347 679l-149 94l45 62l107 -75l93 75l44 -62z" />
    <glyph glyph-name="dcroat" unicode="&#x111;" horiz-adv-x="739" 
d="M28 259l-3 84c23 1 51 2 86 3v28c0 18 -1 202 -4 226c123 0 215 -1 297 -10c264 -28 292 -156 292 -223c0 -270 -307 -375 -590 -371c3 35 4 203 5 246v21c-33 -1 -60 -3 -83 -4zM394 358l-1 -83c-38 -1 -81 -3 -122 -5v-150c151 14 251 100 251 223
c0 115 -105 148 -251 147v-138c42 2 86 4 123 6z" />
    <glyph glyph-name="ecaron" unicode="&#x11b;" horiz-adv-x="548" 
d="M483 113l3 -122c-34 0 -340 9 -379 9c2 45 2 227 2 247v113c0 14 -2 219 -2 240c43 0 320 12 361 15l4 -116c-36 0 -187 -5 -203 -5v-144c18 0 127 4 173 8l2 -114c-26 0 -155 3 -175 3v-136c23 0 154 -2 214 2zM282 679l-149 94l45 62l107 -75l93 75l44 -62z" />
    <glyph glyph-name="edotaccent" unicode="&#x117;" horiz-adv-x="548" 
d="M483 113l3 -122c-34 0 -340 9 -379 9c2 45 2 227 2 247v113c0 14 -2 219 -2 240c43 0 320 12 361 15l4 -116c-36 0 -187 -5 -203 -5v-144c18 0 127 4 173 8l2 -114c-26 0 -155 3 -175 3v-136c23 0 154 -2 214 2zM279 690l-79 79l79 79l79 -79z" />
    <glyph glyph-name="emacron" unicode="&#x113;" horiz-adv-x="548" 
d="M483 113l3 -122c-34 0 -340 9 -379 9c2 45 2 227 2 247v113c0 14 -2 219 -2 240c43 0 320 12 361 15l4 -116c-36 0 -187 -5 -203 -5v-144c18 0 127 4 173 8l2 -114c-26 0 -155 3 -175 3v-136c23 0 154 -2 214 2zM135 691l8 71l260 2l-4 -77z" />
    <glyph glyph-name="eogonek" unicode="&#x119;" horiz-adv-x="548" 
d="M483 113l3 -122c-2 0 -5 0 -22 1c-48 -33 -75 -74 -75 -96c0 -27 25 -57 86 -64l-17 -59c-87 15 -160 55 -160 111c0 39 43 81 95 109c-76 2 -257 7 -286 7c2 45 2 227 2 247v113c0 14 -2 219 -2 240c43 0 320 12 361 15l4 -116c-36 0 -187 -5 -203 -5v-144
c18 0 127 4 173 8l2 -114c-26 0 -155 3 -175 3v-136c23 0 154 -2 214 2z" />
    <glyph glyph-name="gbreve" unicode="&#x11f;" horiz-adv-x="671" 
d="M603 194v-62c0 -33 2 -108 2 -123c-33 -10 -117 -23 -203 -23c-245 0 -361 114 -361 251c0 103 103 302 465 379l32 -139c-156 -24 -318 -111 -318 -235c0 -79 70 -136 173 -136c21 0 41 1 54 4v91c0 24 -2 50 -2 70h159c-1 -32 -1 -52 -1 -77zM499 813l44 -58
c-33 -36 -93 -71 -153 -71c-56 0 -125 37 -152 69l47 60c23 -25 60 -52 112 -52c44 0 78 24 102 52z" />
    <glyph glyph-name="gcommaaccent" unicode="&#x123;" horiz-adv-x="671" 
d="M603 194v-62c0 -33 2 -108 2 -123c-33 -10 -117 -23 -203 -23c-245 0 -361 114 -361 251c0 103 103 302 465 379l32 -139c-156 -24 -318 -111 -318 -235c0 -79 70 -136 173 -136c21 0 41 1 54 4v91c0 24 -2 50 -2 70h159c-1 -32 -1 -52 -1 -77zM310 -60l102 -46
l-108 -175l-46 22z" />
    <glyph glyph-name="imacron" unicode="&#x12b;" horiz-adv-x="381" 
d="M272 349v-92c0 -85 3 -237 4 -257h-170c1 37 2 236 2 258v92c0 15 -2 230 -3 250h171c-1 -15 -4 -149 -4 -251zM51 691l8 71l260 2l-4 -77z" />
    <glyph glyph-name="iogonek" unicode="&#x12f;" horiz-adv-x="381" 
d="M275 -168l-17 -59c-87 15 -160 55 -160 111c0 37 39 77 101 116h-93c1 37 2 236 2 258v92c0 15 -2 230 -3 250h171c-1 -15 -4 -149 -4 -251v-92c0 -85 3 -237 4 -257c-55 -34 -87 -82 -87 -104c0 -27 25 -57 86 -64z" />
    <glyph glyph-name="kcommaaccent" unicode="&#x137;" horiz-adv-x="692" 
d="M274 -9h-167c1 25 4 169 4 266v90c0 74 -4 242 -4 262h167c-1 -14 -4 -178 -4 -252v-29h4c51 55 240 262 261 283l109 -113c-38 -32 -158 -138 -206 -185c31 -33 189 -179 225 -214l-119 -118c-13 16 -212 239 -270 309h-4v-28c0 -66 2 -254 4 -271zM321 -40l102 -46
l-108 -175l-46 22z" />
    <glyph glyph-name="lacute" unicode="&#x13a;" horiz-adv-x="516" 
d="M106 601h173c-2 -20 -6 -192 -6 -299v-183c22 0 129 0 212 4l1 -132c-28 0 -326 9 -381 9c4 45 4 227 4 247v113c0 14 -2 224 -3 241zM135 728l149 112l51 -84l-168 -81z" />
    <glyph glyph-name="lcaron" unicode="&#x13e;" horiz-adv-x="516" 
d="M106 601h173c-2 -20 -6 -192 -6 -299v-183c22 0 129 0 212 4l1 -132c-28 0 -326 9 -381 9c4 45 4 227 4 247v113c0 14 -2 224 -3 241zM453 604l102 -46l-108 -175l-46 22z" />
    <glyph glyph-name="lcommaaccent" unicode="&#x13c;" horiz-adv-x="516" 
d="M106 601h173c-2 -20 -6 -192 -6 -299v-183c22 0 129 0 212 4l1 -132c-28 0 -326 9 -381 9c4 45 4 227 4 247v113c0 14 -2 224 -3 241zM252 -60l102 -46l-108 -175l-46 22z" />
    <glyph glyph-name="nacute" unicode="&#x144;" horiz-adv-x="788" 
d="M682 -15l-9 -4c-78 65 -419 342 -442 363c1 -33 0 -324 1 -350l-155 6c6 62 29 514 36 617l11 3c88 -70 400 -332 437 -364h2c0 46 -2 316 -1 348l152 -4c-5 -60 -16 -271 -23 -436c-3 -73 -8 -145 -9 -179zM312 708l149 112l51 -84l-168 -81z" />
    <glyph glyph-name="ncaron" unicode="&#x148;" horiz-adv-x="788" 
d="M682 -15l-9 -4c-78 65 -419 342 -442 363c1 -33 0 -324 1 -350l-155 6c6 62 29 514 36 617l11 3c88 -70 400 -332 437 -364h2c0 46 -2 316 -1 348l152 -4c-5 -60 -16 -271 -23 -436c-3 -73 -8 -145 -9 -179zM393 659l-149 94l45 62l107 -75l93 75l44 -62z" />
    <glyph glyph-name="ncommaaccent" unicode="&#x146;" horiz-adv-x="788" 
d="M682 -15l-9 -4c-78 65 -419 342 -442 363c1 -33 0 -324 1 -350l-155 6c6 62 29 514 36 617l11 3c88 -70 400 -332 437 -364h2c0 46 -2 316 -1 348l152 -4c-5 -60 -16 -271 -23 -436c-3 -73 -8 -145 -9 -179zM369 -40l102 -46l-108 -175l-46 22z" />
    <glyph glyph-name="ohungarumlaut" unicode="&#x151;" horiz-adv-x="796" 
d="M375 -14h-1c-222 0 -329 145 -329 287c0 174 130 341 377 341c199 0 329 -110 329 -295c0 -131 -90 -333 -376 -333zM385 96c103 0 185 75 185 217c0 126 -68 191 -160 191c-116 0 -184 -99 -184 -218c0 -118 67 -190 159 -190zM430 714l112 143l66 -63l-134 -116z
M295 713l89 137l69 -56l-113 -116z" />
    <glyph glyph-name="omacron" unicode="&#x14d;" horiz-adv-x="796" 
d="M375 -14h-1c-222 0 -329 145 -329 287c0 174 130 341 377 341c199 0 329 -110 329 -295c0 -131 -90 -333 -376 -333zM385 96c103 0 185 75 185 217c0 126 -68 191 -160 191c-116 0 -184 -99 -184 -218c0 -118 67 -190 159 -190zM259 691l8 71l260 2l-4 -77z" />
    <glyph glyph-name="racute" unicode="&#x155;" horiz-adv-x="669" 
d="M270 500v-240c0 -32 2 -247 4 -260h-166c3 20 2 248 2 266v111c0 26 -2 206 -4 223c94 0 202 2 284 -8c129 -15 202 -65 202 -143c0 -73 -46 -128 -121 -172c25 -30 169 -173 194 -199l-135 -102c-17 24 -199 268 -224 305c46 23 110 66 110 138c0 40 -26 80 -146 81z
M262 728l149 112l51 -84l-168 -81z" />
    <glyph glyph-name="rcaron" unicode="&#x159;" horiz-adv-x="669" 
d="M270 500v-240c0 -32 2 -247 4 -260h-166c3 20 2 248 2 266v111c0 26 -2 206 -4 223c94 0 202 2 284 -8c129 -15 202 -65 202 -143c0 -73 -46 -128 -121 -172c25 -30 169 -173 194 -199l-135 -102c-17 24 -199 268 -224 305c46 23 110 66 110 138c0 40 -26 80 -146 81z
M353 679l-149 94l45 62l107 -75l93 75l44 -62z" />
    <glyph glyph-name="rcommaaccent" unicode="&#x157;" horiz-adv-x="669" 
d="M270 500v-240c0 -32 2 -247 4 -260h-166c3 20 2 248 2 266v111c0 26 -2 206 -4 223c94 0 202 2 284 -8c129 -15 202 -65 202 -143c0 -73 -46 -128 -121 -172c25 -30 169 -173 194 -199l-135 -102c-17 24 -199 268 -224 305c46 23 110 66 110 138c0 40 -26 80 -146 81z
M309 -60l102 -46l-108 -175l-46 22z" />
    <glyph glyph-name="sacute" unicode="&#x15b;" horiz-adv-x="498" 
d="M98 -16l-23 124c95 5 202 24 202 77c0 29 -22 42 -93 75c-67 31 -134 72 -134 145c0 101 144 196 341 213l22 -123c-98 -3 -189 -19 -189 -70c0 -31 45 -45 95 -69c57 -27 134 -61 134 -140c0 -98 -112 -204 -355 -232zM226 728l149 112l51 -84l-168 -81z" />
    <glyph glyph-name="scedilla" unicode="&#x15f;" horiz-adv-x="498" 
d="M98 -16l-23 124c95 5 202 24 202 77c0 29 -22 42 -93 75c-67 31 -134 72 -134 145c0 101 144 196 341 213l22 -123c-98 -3 -189 -19 -189 -70c0 -31 45 -45 95 -69c57 -27 134 -61 134 -140c0 -65 -48 -132 -152 -178l-55 -95c38 -10 73 -38 73 -78
c0 -56 -73 -97 -175 -105l-10 55c48 2 95 19 95 54c0 25 -31 45 -67 55l44 81c-31 -10 -68 -16 -108 -21z" />
    <glyph glyph-name="scedilla" unicode="&#xf6c2;" horiz-adv-x="498" 
d="M98 -16l-23 124c95 5 202 24 202 77c0 29 -22 42 -93 75c-67 31 -134 72 -134 145c0 101 144 196 341 213l22 -123c-98 -3 -189 -19 -189 -70c0 -31 45 -45 95 -69c57 -27 134 -61 134 -140c0 -65 -48 -132 -152 -178l-55 -95c38 -10 73 -38 73 -78
c0 -56 -73 -97 -175 -105l-10 55c48 2 95 19 95 54c0 25 -31 45 -67 55l44 81c-31 -10 -68 -16 -108 -21z" />
    <glyph glyph-name="scommaaccent" unicode="&#x219;" horiz-adv-x="498" 
d="M98 -16l-23 124c95 5 202 24 202 77c0 29 -22 42 -93 75c-67 31 -134 72 -134 145c0 101 144 196 341 213l22 -123c-98 -3 -189 -19 -189 -70c0 -31 45 -45 95 -69c57 -27 134 -61 134 -140c0 -98 -112 -204 -355 -232zM224 -60l102 -46l-108 -175l-46 22z" />
    <glyph glyph-name="tcaron" unicode="&#x165;" horiz-adv-x="587" 
d="M380 0h-173c3 22 4 194 4 303v178c-63 0 -193 -4 -215 -6v125c35 -5 251 -8 261 -8h79c17 0 216 3 253 8v-125c-11 2 -179 6 -215 6v-191c0 -122 4 -273 6 -290zM292 679l-149 94l45 62l107 -75l93 75l44 -62z" />
    <glyph glyph-name="tcommaaccent" unicode="&#x163;" horiz-adv-x="587" 
d="M380 0h-173c3 22 4 194 4 303v178c-63 0 -193 -4 -215 -6v125c35 -5 251 -8 261 -8h79c17 0 216 3 253 8v-125c-11 2 -179 6 -215 6v-191c0 -122 4 -273 6 -290zM268 -60l102 -46l-108 -175l-46 22z" />
    <glyph glyph-name="uhungarumlaut" unicode="&#x171;" horiz-adv-x="751" 
d="M243 451v-57c0 -137 5 -197 39 -242c26 -35 55 -50 98 -50c51 0 81 24 103 55c32 45 33 105 33 275v31c0 59 -4 114 -5 145h168c0 -19 1 -79 1 -146v-40c0 -163 -11 -264 -79 -342c-55 -63 -133 -94 -233 -94c-64 0 -166 10 -233 105c-44 62 -61 127 -61 333v46
c0 39 1 106 1 125h173c-3 -22 -5 -66 -5 -144zM367 714l112 143l66 -63l-134 -116zM232 713l89 137l69 -56l-113 -116z" />
    <glyph glyph-name="umacron" unicode="&#x16b;" horiz-adv-x="751" 
d="M243 451v-57c0 -137 5 -197 39 -242c26 -35 55 -50 98 -50c51 0 81 24 103 55c32 45 33 105 33 275v31c0 59 -4 114 -5 145h168c0 -19 1 -79 1 -146v-40c0 -163 -11 -264 -79 -342c-55 -63 -133 -94 -233 -94c-64 0 -166 10 -233 105c-44 62 -61 127 -61 333v46
c0 39 1 106 1 125h173c-3 -22 -5 -66 -5 -144zM236 691l8 71l260 2l-4 -77z" />
    <glyph glyph-name="uogonek" unicode="&#x173;" horiz-adv-x="751" 
d="M243 451v-57c0 -137 5 -197 39 -242c26 -35 55 -50 98 -50c51 0 81 24 103 55c32 45 33 105 33 275v31c0 59 -4 114 -5 145h168c0 -19 1 -79 1 -146v-40c0 -163 -11 -264 -79 -342c-24 -28 -54 -50 -101 -78c-44 -26 -86 -85 -86 -106c0 -27 25 -57 86 -64l-17 -59
c-87 15 -160 55 -160 111c0 37 39 76 86 104c-13 -1 -27 -2 -41 -2c-64 0 -166 10 -233 105c-44 62 -61 127 -61 333v46c0 39 1 106 1 125h173c-3 -22 -5 -66 -5 -144z" />
    <glyph glyph-name="uring" unicode="&#x16f;" horiz-adv-x="751" 
d="M243 451v-57c0 -137 5 -197 39 -242c26 -35 55 -50 98 -50c51 0 81 24 103 55c32 45 33 105 33 275v31c0 59 -4 114 -5 145h168c0 -19 1 -79 1 -146v-40c0 -163 -11 -264 -79 -342c-55 -63 -133 -94 -233 -94c-64 0 -166 10 -233 105c-44 62 -61 127 -61 333v46
c0 39 1 106 1 125h173c-3 -22 -5 -66 -5 -144zM366 661h-1c-63 0 -107 30 -107 82c1 57 49 92 116 92c79 0 112 -35 112 -80c0 -60 -50 -94 -120 -94zM371 704h1c23 0 46 14 46 46c0 24 -18 41 -45 41c-21 0 -46 -14 -46 -44c0 -27 20 -43 44 -43z" />
    <glyph glyph-name="zacute" unicode="&#x17a;" horiz-adv-x="636" 
d="M70 490l4 126c20 -2 122 -7 230 -12s223 -9 268 -9h26l4 -8c-27 -41 -317 -464 -327 -476c51 0 285 4 309 7l-4 -128c-21 0 -507 10 -548 10l-4 10c41 52 313 452 333 477c-32 0 -268 3 -291 3zM236 728l149 112l51 -84l-168 -81z" />
    <glyph glyph-name="zdotaccent" unicode="&#x17c;" horiz-adv-x="636" 
d="M70 490l4 126c20 -2 122 -7 230 -12s223 -9 268 -9h26l4 -8c-27 -41 -317 -464 -327 -476c51 0 285 4 309 7l-4 -128c-21 0 -507 10 -548 10l-4 10c41 52 313 452 333 477c-32 0 -268 3 -291 3zM333 690l-79 79l79 79l79 -79z" />
    <glyph glyph-name="tonos" unicode="&#x384;" horiz-adv-x="881" 
d="M412 512l-20 200l98 4l-18 -205z" />
    <glyph glyph-name="Alpha" unicode="&#x391;" horiz-adv-x="827" 
d="M154 -27l-146 84c40 70 322 579 389 685h7c107 -165 363 -599 415 -676l-152 -92c-25 45 -98 181 -109 196l-320 -15c-9 -20 -62 -140 -84 -182zM290 271l216 10c-21 42 -94 178 -109 209c-20 -39 -88 -180 -107 -219z" />
    <glyph glyph-name="Beta" unicode="&#x392;" horiz-adv-x="693" 
d="M182 -6h-62c5 55 5 357 5 376v111c0 30 0 204 -5 225c110 0 173 -3 241 -10c206 -22 234 -103 234 -159c0 -37 -20 -102 -126 -151v-5c69 -12 157 -61 157 -155c0 -115 -151 -231 -444 -232zM285 321v-223c77 5 167 52 167 122c0 66 -74 105 -167 101zM285 611v-208
c71 2 142 53 142 122c0 74 -89 87 -142 86z" />
    <glyph glyph-name="Gamma" unicode="&#x393;" horiz-adv-x="555" 
d="M301 0h-180c3 33 4 269 4 288v133c0 21 -1 247 -3 283c58 0 370 11 401 16l1 -142c-65 -1 -208 -3 -229 -3v-209c0 -122 3 -329 6 -366z" />
    <glyph glyph-name="Delta" unicode="&#x2206;" horiz-adv-x="816" 
d="M829 3l-3 -6c-37 1 -115 2 -198 2c-83 1 -171 1 -229 1c-114 0 -304 -1 -405 -3l-3 7c36 64 321 590 409 733h7c103 -161 376 -658 422 -734zM576 134c-21 40 -149 289 -176 343c-31 -59 -155 -304 -173 -342c30 -1 114 -4 176 -4c63 0 147 1 173 3z" />
    <glyph glyph-name="Epsilon" unicode="&#x395;" horiz-adv-x="602" 
d="M521 127l4 -137c-27 0 -364 10 -403 10c3 53 3 267 3 290v134c0 16 -2 257 -3 282c43 0 349 15 383 18l4 -129c-34 0 -199 -5 -216 -5v-182c19 0 137 5 183 9l3 -126c-24 0 -165 4 -186 4v-171c25 0 167 -2 228 3z" />
    <glyph glyph-name="Zeta" unicode="&#x396;" horiz-adv-x="710" 
d="M649 126l-4 -136c-25 0 -558 10 -605 10l-3 7c43 59 358 540 381 579c-36 0 -309 9 -338 9l4 130c53 -6 545 -23 583 -25l3 -6c-32 -48 -362 -553 -376 -575c59 0 327 3 355 7z" />
    <glyph glyph-name="Eta" unicode="&#x397;" horiz-adv-x="926" 
d="M299 0h-177c2 44 3 278 3 304v108c0 17 -3 270 -5 294h180c-2 -18 -5 -216 -5 -234v-55l336 19v57c0 17 -2 191 -4 213h179c-2 -24 -5 -300 -5 -324v-100c0 -13 2 -263 4 -282h-179c2 34 5 203 5 222v87l-336 -19v-47c0 -45 3 -220 4 -243z" />
    <glyph glyph-name="Theta" unicode="&#x398;" horiz-adv-x="874" 
d="M48 329c0 195 148 393 411 393c216 0 367 -128 367 -356c0 -143 -105 -382 -416 -382c-225 1 -362 151 -362 345zM231 339c0 -143 85 -228 198 -228c94 0 213 73 213 250c0 155 -91 234 -197 234c-117 0 -214 -99 -214 -256zM312 291l-8 103c48 2 219 14 264 20l8 -105
c-65 -3 -219 -13 -264 -18z" />
    <glyph glyph-name="Iota" unicode="&#x399;" horiz-adv-x="420" 
d="M299 0h-177c2 44 3 278 3 304v108c0 17 -3 270 -4 294h178c-1 -18 -4 -176 -4 -296v-108c0 -100 3 -279 4 -302z" />
    <glyph glyph-name="Kappa" unicode="&#x39a;" horiz-adv-x="760" 
d="M298 -10h-177c1 29 4 198 4 312v106c0 87 -4 285 -4 308h177c-1 -16 -5 -211 -5 -298v-34h5c56 66 269 302 292 329l119 -112c-38 -40 -186 -178 -239 -233c34 -39 219 -224 259 -266l-129 -118c-14 18 -238 275 -302 359h-5v-33c0 -77 3 -301 5 -320z" />
    <glyph glyph-name="Lambda" unicode="&#x39b;" horiz-adv-x="827" 
d="M818 69l-156 -97c-25 46 -244 457 -259 488c-20 -40 -216 -435 -244 -490l-152 89c40 69 323 576 394 683h7c104 -166 357 -597 410 -673z" />
    <glyph glyph-name="Mu" unicode="&#x39c;" horiz-adv-x="1088" 
d="M173 -29l-150 56c18 41 225 614 261 698h7c48 -84 213 -379 243 -430c38 58 206 345 245 408h7c55 -121 247 -588 281 -664l-155 -68c-31 78 -149 400 -161 426c-22 -32 -170 -274 -231 -362h-6c-70 113 -182 315 -202 356h-2c-16 -47 -121 -376 -137 -420z" />
    <glyph glyph-name="Nu" unicode="&#x39d;" horiz-adv-x="903" 
d="M250 -7l-159 7c3 37 11 188 19 345s16 321 20 381l8 3c94 -75 482 -417 514 -448c0 41 3 391 4 430l158 -5c-4 -58 -12 -194 -19 -338c-8 -144 -14 -295 -17 -385l-8 -3c-80 57 -501 430 -514 448h-2c0 -34 -5 -402 -4 -435z" />
    <glyph glyph-name="Xi" unicode="&#x39e;" horiz-adv-x="727" 
d="M98 556l-3 144c93 0 388 5 550 12l4 -143c-158 -4 -445 -10 -551 -13zM129 281l-2 140c112 -1 339 5 476 9l3 -142c-120 1 -297 -5 -477 -7zM73 3v143c96 -3 400 -8 579 -2l4 -148c-151 0 -484 7 -583 7z" />
    <glyph glyph-name="Omicron" unicode="&#x39f;" horiz-adv-x="874" 
d="M66 329c0 195 148 393 411 393c216 0 367 -128 367 -356c0 -143 -105 -382 -416 -382c-225 1 -362 151 -362 345zM253 339c0 -141 81 -226 194 -226c94 0 208 73 209 248c1 153 -87 232 -193 232c-117 0 -210 -99 -210 -254z" />
    <glyph glyph-name="Pi" unicode="&#x3a0;" horiz-adv-x="891" 
d="M847 712v-136c-25 2 -57 3 -91 3c-1 -21 -1 -173 -1 -197v-100c0 -13 2 -263 5 -282h-178c2 34 4 272 4 298v127c0 40 -1 138 -2 154c-35 -1 -214 -2 -272 -5c-2 -14 -3 -113 -3 -156v-117c0 -51 3 -278 4 -301h-176c2 44 3 278 3 304v108c0 17 -1 127 -2 157
c-31 -1 -61 -2 -90 -3v136c68 -1 339 -1 375 0c59 1 265 7 424 10z" />
    <glyph glyph-name="Rho" unicode="&#x3a1;" horiz-adv-x="673" 
d="M292 0h-170c1 43 3 284 3 355v110c0 23 -3 226 -3 241c130 0 237 -4 311 -20c114 -24 200 -85 200 -195c0 -133 -123 -262 -343 -301v-40c0 -20 0 -129 2 -150zM290 593v-291c86 16 170 72 170 166c0 46 -24 119 -170 125z" />
    <glyph glyph-name="Sigma" unicode="&#x3a3;" horiz-adv-x="649" 
d="M534 370v-11c-80 -70 -159 -136 -242 -203v-5c94 -16 257 -45 323 -54l-23 -139c-143 27 -428 84 -578 120v19c114 96 235 191 315 255v4c-66 52 -208 165 -299 243v18c154 40 382 92 542 128l24 -138c-86 -15 -206 -37 -300 -51l-1 -4c91 -70 174 -132 239 -182z" />
    <glyph glyph-name="Tau" unicode="&#x3a4;" horiz-adv-x="656" 
d="M420 0h-181c3 26 4 230 4 359v216c-75 0 -217 -5 -248 -8v139c45 -6 282 -10 293 -10h87c19 0 237 4 286 10v-139c-19 3 -204 8 -248 8v-232c0 -144 5 -323 7 -343z" />
    <glyph glyph-name="Upsilon" unicode="&#x3a5;" horiz-adv-x="744" 
d="M455 0h-179c1 23 5 129 5 142v57c0 130 -59 233 -129 294c-40 35 -86 62 -127 76l67 153c61 -27 129 -68 170 -110c41 -44 87 -107 110 -184h6c25 71 64 126 115 178c46 47 118 95 184 116l55 -153c-53 -13 -118 -48 -168 -97c-63 -61 -114 -156 -114 -272v-77
c0 -14 3 -103 5 -123z" />
    <glyph glyph-name="Phi" unicode="&#x3a6;" horiz-adv-x="900" 
d="M531 -69h-162c1 29 2 61 2 90c-193 18 -324 147 -324 310c0 183 131 323 325 355c0 25 -1 59 -2 84h162c-1 -26 -2 -57 -2 -79c174 -18 323 -131 323 -319c0 -157 -100 -315 -323 -346c0 -28 1 -67 1 -95zM525 574v-434c91 17 156 99 156 226c0 118 -71 196 -156 208z
M375 136v432c-94 -18 -156 -109 -156 -223c0 -120 69 -197 156 -209z" />
    <glyph glyph-name="Chi" unicode="&#x3a7;" horiz-adv-x="782" 
d="M154 -32l-115 118c21 22 217 239 247 274c-47 51 -195 220 -220 249l129 118c36 -47 157 -203 203 -258c30 35 180 214 216 259l121 -114c-30 -30 -215 -217 -240 -248c34 -37 221 -244 247 -274l-127 -122c-29 36 -201 250 -232 286c-18 -21 -211 -265 -229 -288z" />
    <glyph glyph-name="Psi" unicode="&#x3a8;" horiz-adv-x="893" 
d="M831 491c-32 -201 -126 -308 -300 -318c1 -77 2 -159 3 -173h-167c1 27 1 98 2 172c-173 13 -268 115 -300 319c-11 69 -22 128 -30 176l169 27c4 -52 11 -129 22 -196c22 -138 66 -200 140 -209v123c0 17 -3 269 -3 318h167c-1 -43 -4 -200 -4 -320v-122
c86 14 119 83 140 210c11 67 18 143 22 190l169 -29c-8 -43 -19 -99 -30 -168z" />
    <glyph glyph-name="Omega" unicode="&#x2126;" horiz-adv-x="932" 
d="M878 127l3 -131c-14 0 -350 3 -384 4l-2 46c65 51 159 181 159 334c0 135 -78 214 -181 214c-135 0 -207 -114 -207 -247c0 -120 45 -223 113 -300l-3 -46c-42 0 -349 -5 -362 -5l4 131c46 -4 138 -7 169 -6l2 6c-55 43 -109 134 -109 228c0 187 142 367 408 367
c218 0 352 -134 352 -320c0 -116 -58 -221 -128 -278l1 -6c40 1 118 5 165 9z" />
    <glyph glyph-name="Alphatonos" unicode="&#x386;" horiz-adv-x="827" 
d="M154 -27l-146 84c40 70 322 579 389 685h7c107 -165 363 -599 415 -676l-152 -92c-25 45 -98 181 -109 196l-320 -15c-9 -20 -62 -140 -84 -182zM290 271l216 10c-21 42 -94 178 -109 209c-20 -39 -88 -180 -107 -219zM56 512l-20 200l98 4l-18 -205z" />
    <glyph glyph-name="Epsilontonos" unicode="&#x388;" horiz-adv-x="621" 
d="M541 127l4 -137c-27 0 -364 10 -403 10c3 53 3 267 3 290v134c0 16 -2 257 -3 282c43 0 349 15 383 18l4 -129c-34 0 -199 -5 -216 -5v-182c19 0 137 5 183 9l3 -126c-24 0 -165 4 -186 4v-171c25 0 167 -2 228 3zM-19 512l-20 200l98 4l-18 -205z" />
    <glyph glyph-name="Etatonos" unicode="&#x389;" horiz-adv-x="945" 
d="M319 0h-177c2 44 3 278 3 304v108c0 17 -3 270 -5 294h180c-2 -18 -5 -216 -5 -234v-55l336 19v57c0 17 -2 191 -4 213h179c-2 -24 -5 -300 -5 -324v-100c0 -13 2 -263 4 -282h-179c2 34 5 203 5 222v87l-336 -19v-47c0 -45 3 -220 4 -243zM-19 512l-20 200l98 4
l-18 -205z" />
    <glyph glyph-name="Iotatonos" unicode="&#x38a;" horiz-adv-x="440" 
d="M319 0h-177c2 44 3 278 3 304v108c0 17 -3 270 -4 294h178c-1 -18 -4 -176 -4 -296v-108c0 -100 3 -279 4 -302zM-17 512l-20 200l98 4l-18 -205z" />
    <glyph glyph-name="Iotadieresis" unicode="&#x3aa;" horiz-adv-x="420" 
d="M299 0h-177c2 44 3 278 3 304v108c0 17 -3 270 -4 294h178c-1 -18 -4 -176 -4 -296v-108c0 -100 3 -279 4 -302zM97 923l77 -76l-77 -76l-76 76zM323 923l77 -76l-77 -76l-76 76z" />
    <glyph glyph-name="Omicrontonos" unicode="&#x38c;" horiz-adv-x="893" 
d="M68 329c0 195 148 393 411 393c216 0 367 -128 367 -356c0 -143 -105 -382 -416 -382c-225 1 -362 151 -362 345zM255 339c0 -141 81 -226 194 -226c94 0 208 73 209 248c1 153 -87 232 -193 232c-117 0 -210 -99 -210 -254zM-20 512l-20 200l98 4l-18 -205z" />
    <glyph glyph-name="Upsilontonos" unicode="&#x38e;" horiz-adv-x="795" 
d="M506 0h-179c1 23 5 129 5 142v57c0 130 -59 233 -129 294c-40 35 -86 62 -127 76l67 153c61 -27 129 -68 170 -110c41 -44 87 -107 110 -184h6c25 71 64 126 115 178c46 47 118 95 184 116l55 -153c-53 -13 -118 -48 -168 -97c-63 -61 -114 -156 -114 -272v-77
c0 -14 3 -103 5 -123zM-37 512l-20 200l98 4l-18 -205z" />
    <glyph glyph-name="Upsilondieresis" unicode="&#x3ab;" horiz-adv-x="744" 
d="M455 0h-179c1 23 5 129 5 142v57c0 130 -59 233 -129 294c-40 35 -86 62 -127 76l67 153c61 -27 129 -68 170 -110c41 -44 87 -107 110 -184h6c25 71 64 126 115 178c46 47 118 95 184 116l55 -153c-53 -13 -118 -48 -168 -97c-63 -61 -114 -156 -114 -272v-77
c0 -14 3 -103 5 -123zM278 923l77 -76l-77 -76l-76 76zM504 923l77 -76l-77 -76l-76 76z" />
    <glyph glyph-name="Omegatonos" unicode="&#x38f;" horiz-adv-x="953" 
d="M-23 512l-20 200l98 4l-18 -205zM734 124l1 -6c40 1 118 5 165 9l3 -131c-14 0 -350 3 -384 4l-2 46c65 51 159 181 159 334c0 135 -78 214 -181 214c-135 0 -207 -114 -207 -247c0 -120 45 -223 113 -300l-3 -46c-42 0 -349 -5 -362 -5l4 131c46 -4 138 -7 169 -6l2 6
c-55 43 -109 134 -109 228c0 193 142 367 408 367c218 0 354 -134 354 -320c0 -116 -60 -221 -130 -278z" />
    <glyph glyph-name="alpha" unicode="&#x3b1;" 
d="M144 -25l-138 73c35 60 286 492 349 583h12c98 -141 325 -508 371 -573l-140 -82c-22 38 -89 151 -94 160l-287 -12c-7 -14 -56 -113 -73 -149zM265 230l188 8c-19 37 -80 149 -95 176c-18 -33 -76 -150 -93 -184z" />
    <glyph glyph-name="beta" unicode="&#x3b2;" horiz-adv-x="633" 
d="M108 315v94c0 25 -2 174 -4 192c102 0 172 1 235 -5c187 -18 215 -90 215 -139c0 -35 -26 -96 -124 -130v-4c71 -4 152 -49 152 -131c0 -109 -131 -197 -410 -197h-68c4 47 4 303 4 320zM262 270v-184c73 3 150 38 150 101c0 60 -63 87 -150 83zM262 516v-169
c61 0 127 36 127 100s-82 71 -127 69z" />
    <glyph glyph-name="gamma" unicode="&#x3b3;" horiz-adv-x="516" 
d="M279 0h-173c1 17 3 227 3 241v113c0 20 0 202 -4 247c55 0 353 9 381 9l-1 -132c-83 4 -190 4 -212 4v-183c0 -107 4 -279 6 -299z" />
    <glyph glyph-name="delta" unicode="&#x3b4;" horiz-adv-x="716" 
d="M732 2l-2 -5c-33 1 -103 2 -177 2c-74 1 -152 1 -204 1c-102 0 -271 -1 -361 -3l-3 6c32 55 286 506 365 628h7c91 -138 335 -564 375 -629zM502 122c-19 27 -132 240 -152 280c-24 -44 -133 -254 -144 -279c20 -1 91 -3 147 -3c55 0 130 1 149 2z" />
    <glyph glyph-name="epsilon" unicode="&#x3b5;" horiz-adv-x="548" 
d="M483 113l3 -122c-34 0 -340 9 -379 9c2 45 2 227 2 247v113c0 14 -2 219 -2 240c43 0 320 12 361 15l4 -116c-36 0 -187 -5 -203 -5v-144c18 0 127 4 173 8l2 -114c-26 0 -155 3 -175 3v-136c23 0 154 -2 214 2z" />
    <glyph glyph-name="zeta" unicode="&#x3b6;" horiz-adv-x="636" 
d="M70 490l4 126c20 -2 122 -7 230 -12s223 -9 268 -9h26l4 -8c-27 -41 -317 -464 -327 -476c51 0 285 4 309 7l-4 -128c-21 0 -507 10 -548 10l-4 10c41 52 313 452 333 477c-32 0 -268 3 -291 3z" />
    <glyph glyph-name="eta" unicode="&#x3b7;" horiz-adv-x="824" 
d="M278 0h-169c1 37 2 236 2 258v92c0 15 -2 230 -4 250h172c-2 -15 -5 -183 -5 -198v-43l276 16v45c0 14 -2 161 -4 180h172c-1 -20 -5 -255 -5 -275v-85c0 -11 2 -224 4 -240h-171c1 29 4 172 4 188v70l-276 -16v-36c0 -38 3 -186 4 -206z" />
    <glyph glyph-name="theta" unicode="&#x3b8;" horiz-adv-x="799" 
d="M289 245l-8 87c40 2 194 12 230 17l8 -89c-55 -2 -194 -11 -230 -15zM751 319c0 -131 -90 -333 -377 -333c-222 0 -329 145 -329 287c0 174 130 341 377 341c199 0 329 -110 329 -295zM570 313c0 126 -68 191 -160 191c-116 0 -184 -99 -184 -218
c0 -118 67 -190 159 -190c103 0 185 75 185 217z" />
    <glyph glyph-name="iota" unicode="&#x3b9;" horiz-adv-x="381" 
d="M272 349v-92c0 -85 3 -237 4 -257h-170c1 37 2 236 2 258v92c0 15 -2 230 -3 250h171c-1 -15 -4 -149 -4 -251z" />
    <glyph glyph-name="kappa" unicode="&#x3ba;" horiz-adv-x="692" 
d="M274 -9h-167c1 25 4 169 4 266v90c0 74 -4 242 -4 262h167c-1 -14 -4 -178 -4 -252v-29h4c51 55 240 262 261 283l109 -113c-38 -32 -158 -138 -206 -185c31 -33 189 -179 225 -214l-119 -118c-13 16 -212 239 -270 309h-4v-28c0 -66 2 -254 4 -271z" />
    <glyph glyph-name="lambda" unicode="&#x3bb;" 
d="M144 -25l-138 73c35 60 286 492 349 583h12c98 -141 325 -508 371 -573l-140 -82c-22 38 -167 287 -240 414c-70 -133 -197 -379 -214 -415z" />
    <glyph glyph-name="nu" unicode="&#x3bd;" horiz-adv-x="788" 
d="M682 -15l-9 -4c-78 65 -419 342 -442 363c1 -33 0 -324 1 -350l-155 6c6 62 29 514 36 617l11 3c88 -70 400 -332 437 -364h2c0 46 -2 316 -1 348l152 -4c-5 -60 -16 -271 -23 -436c-3 -73 -8 -145 -9 -179z" />
    <glyph glyph-name="xi" unicode="&#x3be;" horiz-adv-x="681" 
d="M97 469l-3 134c87 0 363 5 514 11l4 -134c-148 -3 -416 -8 -515 -11zM126 233l-2 131c105 -1 317 5 446 8l2 -133c-112 1 -277 -4 -446 -6zM73 3v134c91 -3 374 -7 542 -2l4 -138c-142 0 -453 6 -546 6z" />
    <glyph glyph-name="omicron" unicode="&#x3bf;" horiz-adv-x="796" 
d="M375 -14h-1c-222 0 -329 145 -329 287c0 174 130 341 377 341c199 0 329 -110 329 -295c0 -131 -90 -333 -376 -333zM385 96c103 0 185 75 185 217c0 126 -68 191 -160 191c-116 0 -184 -99 -184 -218c0 -118 67 -190 159 -190z" />
    <glyph glyph-name="pi" unicode="&#x3c0;" horiz-adv-x="829" 
d="M781 605v-115c-23 1 -52 2 -83 2c-1 -18 -1 -147 -1 -167v-85c0 -11 2 -224 5 -240h-171c2 29 4 231 4 253v108c0 34 -1 118 -1 131c-26 -1 -190 -2 -237 -4c-1 -12 -2 -96 -2 -133v-99c0 -44 3 -236 4 -256h-169c2 37 3 236 3 258v92c0 15 -1 108 -2 134
c-27 -1 -56 -2 -83 -3v116c63 -1 312 -1 344 0c54 1 243 6 389 8z" />
    <glyph glyph-name="rho" unicode="&#x3c1;" horiz-adv-x="625" 
d="M271 0h-165c1 37 3 241 3 302v93c0 20 -2 192 -2 205c132 0 229 -3 298 -16c104 -19 181 -73 181 -168c0 -120 -117 -229 -316 -258v-32c0 -17 0 -108 1 -126zM270 499v-239c73 10 144 53 144 139c0 41 -21 95 -144 100z" />
    <glyph glyph-name="sigma" unicode="&#x3c3;" horiz-adv-x="606" 
d="M500 308v-11c-75 -60 -148 -116 -214 -169v-4c76 -12 227 -34 290 -44l-22 -122c-134 23 -400 71 -540 102v16c105 82 217 163 286 217v3c-54 42 -186 141 -272 207v15c144 34 358 78 507 109l22 -121c-80 -15 -192 -30 -268 -42v-3c73 -54 150 -106 211 -153z" />
    <glyph glyph-name="tau" unicode="&#x3c4;" horiz-adv-x="587" 
d="M380 0h-173c3 22 4 194 4 303v178c-63 0 -193 -4 -215 -6v125c35 -5 251 -8 261 -8h79c17 0 216 3 253 8v-125c-11 2 -179 6 -215 6v-191c0 -122 4 -273 6 -290z" />
    <glyph glyph-name="upsilon" unicode="&#x3c5;" horiz-adv-x="629" 
d="M397 0h-172c1 20 5 110 5 121v45c0 110 -51 194 -115 246c-36 29 -78 47 -110 58l56 144c56 -20 120 -55 156 -91c37 -38 78 -93 100 -161h4c23 63 56 113 103 156c43 40 108 80 170 98l44 -145c-43 -10 -101 -35 -147 -76c-57 -51 -98 -133 -98 -228v-62
c0 -12 2 -88 4 -105z" />
    <glyph glyph-name="phi" unicode="&#x3c6;" horiz-adv-x="848" 
d="M500 -69h-152c1 25 2 52 2 76c-182 16 -305 125 -305 264c0 156 123 275 306 302c0 21 -1 50 -2 71h152c-1 -22 -2 -48 -2 -67c164 -15 304 -111 304 -271c0 -134 -94 -268 -304 -294c0 -24 1 -57 1 -81zM494 478v-369c86 14 147 84 147 192c0 100 -66 166 -147 177z
M354 105v367c-89 -15 -147 -92 -147 -189c0 -102 65 -168 147 -178z" />
    <glyph glyph-name="chi" unicode="&#x3c7;" horiz-adv-x="700" 
d="M140 -30l-113 106c20 19 194 200 221 230c-42 44 -173 182 -196 207l123 109c34 -41 138 -171 180 -218c27 30 157 178 191 217l115 -105c-25 -25 -190 -179 -213 -204c31 -32 197 -204 222 -230l-124 -111c-28 32 -177 209 -205 241c-16 -19 -182 -222 -201 -242z" />
    <glyph glyph-name="psi" unicode="&#x3c8;" horiz-adv-x="817" 
d="M632 575l153 -25c-8 -35 -17 -82 -28 -140c-28 -168 -114 -257 -269 -266c1 -63 2 -132 3 -144h-157c1 23 1 82 2 143c-153 11 -241 97 -269 267c-11 58 -20 107 -28 147l154 22c3 -43 9 -108 20 -164c19 -114 60 -167 124 -171v100c0 14 -3 225 -3 266h157
c-1 -36 -3 -167 -3 -268v-99c75 9 105 66 124 172c10 56 16 120 20 160z" />
    <glyph glyph-name="omega" unicode="&#x3c9;" horiz-adv-x="856" 
d="M823 115l3 -119c-13 0 -328 3 -316 3l-2 40c74 73 100 154 100 284c0 115 -68 182 -164 182c-126 0 -189 -97 -189 -210c0 -102 37 -190 113 -256l-3 -39c-52 0 -339 -4 -351 -4l3 119c44 -3 130 -5 155 -5l2 5c-48 29 -98 106 -98 186c0 160 133 313 381 313
c205 0 330 -114 330 -273c0 -98 -55 -188 -112 -228l2 -5c29 1 102 4 146 7z" />
    <glyph glyph-name="alphatonos" unicode="&#x3ac;" 
d="M144 -25l-138 73c35 60 286 492 349 583h12c98 -141 325 -508 371 -573l-140 -82c-22 38 -89 151 -94 160l-287 -12c-7 -14 -56 -113 -73 -149zM265 230l188 8c-19 37 -80 149 -95 176c-18 -33 -76 -150 -93 -184zM80 411l-20 200l98 4l-18 -205z" />
    <glyph glyph-name="epsilontonos" unicode="&#x3ad;" horiz-adv-x="583" 
d="M518 113l3 -122c-34 0 -340 9 -379 9c2 45 2 227 2 247v113c0 14 -2 219 -2 240c43 0 320 12 361 15l4 -116c-36 0 -187 -5 -203 -5v-144c18 0 127 4 173 8l2 -114c-26 0 -155 3 -175 3v-136c23 0 154 -2 214 2zM-19 411l-20 200l98 4l-18 -205z" />
    <glyph glyph-name="etatonos" unicode="&#x3ae;" horiz-adv-x="857" 
d="M311 0h-169c1 37 2 236 2 258v92c0 15 -2 230 -4 250h172c-2 -15 -5 -183 -5 -198v-43l276 16v45c0 14 -2 161 -4 180h172c-1 -20 -5 -255 -5 -275v-85c0 -11 2 -224 4 -240h-171c1 29 4 172 4 188v70l-276 -16v-36c0 -38 3 -186 4 -206zM-19 411l-20 200l98 4l-18 -205z
" />
    <glyph glyph-name="iotatonos" unicode="&#x3af;" horiz-adv-x="417" 
d="M308 349v-92c0 -85 3 -237 4 -257h-170c1 37 2 236 2 258v92c0 15 -2 230 -3 250h171c-1 -15 -4 -149 -4 -251zM-17 411l-20 200l98 4l-18 -205z" />
    <glyph glyph-name="iotadieresis" unicode="&#x3ca;" horiz-adv-x="381" 
d="M272 349v-92c0 -85 3 -237 4 -257h-170c1 37 2 236 2 258v92c0 15 -2 230 -3 250h171c-1 -15 -4 -149 -4 -251zM75 688l-73 73l73 73l73 -73zM301 688l-73 73l73 73l73 -73z" />
    <glyph glyph-name="omicrontonos" unicode="&#x3cc;" horiz-adv-x="823" 
d="M402 -14h-1c-222 0 -329 145 -329 287c0 174 130 341 377 341c199 0 329 -110 329 -295c0 -131 -90 -333 -376 -333zM412 96c103 0 185 75 185 217c0 126 -68 191 -160 191c-116 0 -184 -99 -184 -218c0 -118 67 -190 159 -190zM-20 411l-20 200l98 4l-18 -205z" />
    <glyph glyph-name="upsilontonos" unicode="&#x3cd;" horiz-adv-x="711" 
d="M479 0h-172c1 20 5 110 5 121v45c0 110 -51 194 -115 246c-36 29 -78 47 -110 58l56 144c56 -20 120 -55 156 -91c37 -38 78 -93 100 -161h4c23 63 56 113 103 156c43 40 108 80 170 98l44 -145c-43 -10 -101 -35 -147 -76c-57 -51 -98 -133 -98 -228v-62
c0 -12 2 -88 4 -105zM-37 411l-20 200l98 4l-18 -205z" />
    <glyph glyph-name="upsilondieresis" unicode="&#x3cb;" horiz-adv-x="629" 
d="M397 0h-172c1 20 5 110 5 121v45c0 110 -51 194 -115 246c-36 29 -78 47 -110 58l56 144c56 -20 120 -55 156 -91c37 -38 78 -93 100 -161h4c23 63 56 113 103 156c43 40 108 80 170 98l44 -145c-43 -10 -101 -35 -147 -76c-57 -51 -98 -133 -98 -228v-62
c0 -12 2 -88 4 -105zM209 688l-73 73l73 73l73 -73zM435 688l-73 73l73 73l73 -73z" />
    <glyph glyph-name="omegatonos" unicode="&#x3ce;" horiz-adv-x="878" 
d="M845 115l3 -119c-13 0 -328 3 -316 3l-2 40c74 73 100 154 100 284c0 115 -68 182 -164 182c-126 0 -189 -97 -189 -210c0 -102 37 -190 113 -256l-3 -39c-52 0 -339 -4 -351 -4l3 119c44 -3 130 -5 155 -5l2 5c-48 29 -98 106 -98 186c0 160 133 313 381 313
c205 0 330 -114 330 -273c0 -98 -55 -188 -112 -228l2 -5c29 1 102 4 146 7zM-23 411l-20 200l98 4l-18 -205z" />
    <glyph glyph-name="iotadieresistonos" unicode="&#x390;" horiz-adv-x="381" 
d="M272 349v-92c0 -85 3 -237 4 -257h-170c1 37 2 236 2 258v92c0 15 -2 230 -3 250h171c-1 -15 -4 -149 -4 -251zM75 688l-73 73l73 73l73 -73zM301 688l-73 73l73 73l73 -73z" />
    <glyph glyph-name="upsilondieresistonos" unicode="&#x3b0;" horiz-adv-x="629" 
d="M397 0h-172c1 20 5 110 5 121v45c0 110 -51 194 -115 246c-36 29 -78 47 -110 58l56 144c56 -20 120 -55 156 -91c37 -38 78 -93 100 -161h4c23 63 56 113 103 156c43 40 108 80 170 98l44 -145c-43 -10 -101 -35 -147 -76c-57 -51 -98 -133 -98 -228v-62
c0 -12 2 -88 4 -105zM209 688l-73 73l73 73l73 -73zM435 688l-73 73l73 73l73 -73z" />
    <glyph glyph-name="uni03C2" unicode="&#x3c2;" horiz-adv-x="606" 
d="M500 308v-11c-75 -60 -148 -116 -214 -169v-4c76 -12 227 -34 290 -44l-22 -122c-134 23 -400 71 -540 102v16c105 82 217 163 286 217v3c-54 42 -186 141 -272 207v15c144 34 358 78 507 109l22 -121c-80 -15 -192 -30 -268 -42v-3c73 -54 150 -106 211 -153z" />
    <glyph glyph-name="uni037E" unicode="&#x37e;" horiz-adv-x="293" 
d="M98 157l122 -21l-81 -245l-57 7zM77 495h140v-132h-140v132z" />
    <glyph glyph-name="uni03F0" unicode="&#x3f0;" horiz-adv-x="692" 
d="M535 611l109 -113c-38 -32 -158 -138 -206 -185c30 -35 171 -170 206 -216c42 -55 54 -104 54 -152c0 -72 -42 -147 -100 -190l-106 83c42 34 56 65 56 101c0 28 -11 54 -50 98c-18 20 -163 182 -224 253h-4v-28c0 -66 2 -254 4 -271h-167c1 25 4 169 4 266v90
c0 74 -4 242 -4 262h167c-1 -14 -4 -178 -4 -252v-29h4c51 55 240 262 261 283z" />
    <glyph glyph-name="anoteleia" unicode="&#x387;" horiz-adv-x="293" 
d="M70 448h154v-149h-154v149z" />
    <glyph glyph-name="Euro" unicode="&#x20ac;" horiz-adv-x="773" 
d="M627 436l-4 -76c-72 -2 -196 -7 -279 -11c-3 -14 -3 -22 -3 -32c0 -8 0 -18 1 -28c63 2 212 6 277 9l-4 -76c-74 0 -173 0 -255 -2c31 -57 123 -88 238 -88c29 0 61 2 75 6l9 -127c-18 -4 -55 -8 -92 -8c-249 0 -359 107 -395 213c-12 -1 -41 -3 -71 -4l-2 68
c27 1 46 2 65 2c-1 5 -1 17 -1 24c0 9 0 20 3 37c-14 -1 -40 -1 -65 -3l3 71c35 1 64 1 76 1c53 135 190 254 434 303l32 -136c-143 -18 -252 -76 -305 -158c62 4 200 11 263 15z" />
    <glyph glyph-name="afii61289" unicode="&#x2113;" horiz-adv-x="640" 
d="M267 509v-190c81 68 127 150 127 215c0 57 -23 91 -59 91c-37 0 -68 -45 -68 -116zM529 219l74 -67c-71 -121 -165 -163 -269 -163c-98 0 -170 41 -202 133c-21 -13 -38 -22 -57 -33l-40 84c26 17 61 39 92 58v227c0 173 87 256 212 256c111 0 175 -77 175 -181
c0 -128 -86 -225 -247 -345c4 -43 42 -77 100 -77c82 0 138 72 162 108z" />
    <glyph glyph-name="estimated" unicode="&#x212e;" horiz-adv-x="858" 
d="M825 328h-642c-3 0 -5 -1 -5 -4v-193c0 -9 3 -17 9 -23c61 -64 147 -105 243 -105c102 0 193 45 255 117h57c-72 -84 -186 -138 -313 -138c-219 0 -396 159 -396 356s177 356 396 356s396 -159 396 -356v-10zM680 354v195c0 10 -4 17 -10 23c-61 62 -147 101 -240 101
c-95 0 -181 -41 -242 -104c-6 -6 -10 -14 -10 -24v-191c0 -3 2 -6 5 -6h492c3 0 5 3 5 6z" />
    <glyph glyph-name="partialdiff" unicode="&#x2202;" horiz-adv-x="678" 
d="M103 558l-46 103c29 21 108 67 236 67c201 0 345 -155 345 -373c0 -228 -157 -369 -353 -369c-187 0 -260 148 -260 228c0 118 95 243 257 243c111 0 183 -69 204 -108h1c1 9 1 20 1 29c0 125 -82 228 -209 228c-87 0 -147 -31 -176 -48zM303 107h1c88 0 148 64 164 127
c-11 43 -67 105 -151 105c-79 0 -137 -49 -137 -120c0 -62 50 -112 123 -112z" />
    <glyph glyph-name="product" unicode="&#x220f;" horiz-adv-x="810" 
d="M798 529h-122v-619h-144v619h-250v-619h-144v619h-122v121h782v-121z" />
    <glyph glyph-name="summation" unicode="&#x2211;" horiz-adv-x="658" 
d="M662 -90h-648v83l285 280l-267 274v103h593v-121h-390v-4l237 -248l-246 -242v-4h436v-121z" />
    <glyph glyph-name="uni2219" unicode="&#x2219;" horiz-adv-x="293" 
d="M75 271v137h144v-137h-144z" />
    <glyph glyph-name="radical" unicode="&#x221a;" horiz-adv-x="624" 
d="M679 840l-265 -926h-103l-192 417l-80 -36l-29 67l182 83l138 -327c9 -18 16 -35 25 -61h2c5 22 11 42 18 64l198 719h106z" />
    <glyph glyph-name="infinity" unicode="&#x221e;" horiz-adv-x="752" 
d="M555 97h-1c-73 0 -130 54 -179 102c-53 -50 -102 -102 -187 -102c-97 0 -162 72 -162 167c0 89 68 167 170 167c74 0 131 -54 180 -102c53 50 102 102 187 102c97 0 162 -72 162 -167c0 -89 -68 -167 -170 -167zM553 189h1c40 0 72 34 72 75c0 44 -31 75 -70 75
c-46 0 -83 -39 -118 -74c31 -30 68 -76 115 -76zM195 189h1c45 0 82 40 117 75c-31 29 -68 75 -115 75c-41 0 -73 -34 -73 -75c0 -44 31 -75 70 -75z" />
    <glyph glyph-name="integral" unicode="&#x222b;" horiz-adv-x="358" 
d="M364 800l-15 -89c-11 3 -23 5 -36 5c-24 0 -46 -10 -55 -25c-17 -23 -28 -64 -28 -149c0 -150 19 -284 19 -448c0 -84 -19 -147 -41 -182c-30 -53 -85 -77 -136 -77c-27 0 -61 5 -77 13l16 90c11 -4 28 -7 46 -7c21 0 36 8 50 23c17 18 34 55 34 136
c0 167 -19 304 -19 460c0 107 23 168 66 213c28 31 67 45 114 45c26 0 51 -4 62 -8z" />
    <glyph glyph-name="approxequal" unicode="&#x2248;" horiz-adv-x="596" 
d="M510 441l66 -52c-34 -67 -94 -111 -164 -111c-50 0 -90 22 -122 36c-30 13 -62 34 -106 34c-50 0 -84 -36 -109 -69l-57 57c34 56 93 106 168 106c51 0 86 -22 118 -36c30 -13 62 -34 105 -34c52 0 86 45 101 69zM516 229l62 -48c-34 -71 -98 -115 -168 -115
c-46 0 -86 22 -118 36c-30 13 -62 34 -109 34c-44 0 -81 -36 -106 -69l-57 59c34 59 97 104 166 104c51 0 88 -22 120 -36c30 -13 62 -34 104 -34c52 0 86 35 106 69z" />
    <glyph glyph-name="notequal" unicode="&#x2260;" horiz-adv-x="596" 
d="M556 115h-309l-62 -101h-98l65 101h-112v94h172l75 118h-247v94h307l62 101h98l-65 -101h114v-94h-174l-75 -118h249v-94z" />
    <glyph glyph-name="lessequal" unicode="&#x2264;" horiz-adv-x="596" 
d="M538 118l-479 176v91l479 177v-102l-349 -119v-2l349 -119v-102zM538 0h-477v88h477v-88z" />
    <glyph glyph-name="greaterequal" unicode="&#x2265;" horiz-adv-x="596" 
d="M537 294l-479 -176v102l349 119v2l-349 119v102l479 -177v-91zM535 0h-477v88h477v-88z" />
    <glyph glyph-name="lozenge" unicode="&#x25ca;" horiz-adv-x="625" 
d="M583 324l-211 -369h-121l-210 369l210 369h121zM457 321l-132 243c-6 8 -12 19 -14 25h-2c-3 -6 -8 -17 -14 -25l-129 -238l132 -242c6 -9 12 -20 14 -25h2c4 5 9 16 14 25z" />
    <glyph glyph-name="uni02C9" unicode="&#x2c9;" horiz-adv-x="881" 
d="M581 853l-4 -82l-278 5l8 74z" />
    <glyph glyph-name="uniF638" unicode="&#xf638;" horiz-adv-x="773" 
d="M387 148c92 0 181 76 181 215c0 53 -14 95 -37 127c-28 -37 -61 -82 -96 -129c-50 -68 -98 -136 -136 -190c24 -15 54 -23 88 -23zM389 559c-91 0 -184 -68 -184 -213c1 -40 11 -77 28 -108c37 50 80 110 126 172c41 55 81 109 100 136c-22 9 -46 13 -70 13zM592 727
l80 -57c-9 -10 -20 -25 -43 -54c72 -58 111 -145 111 -249c0 -180 -130 -350 -362 -350c-60 0 -115 12 -164 34c-24 -34 -33 -46 -41 -57l-81 57c11 14 24 31 40 54c-62 57 -99 137 -99 236c0 196 149 349 361 349c57 0 108 -9 152 -27c25 34 37 51 46 64z" />
    <glyph glyph-name="uniF639" unicode="&#xf639;" horiz-adv-x="803" 
d="M393 17c-194 0 -345 124 -345 324c0 196 149 349 361 349c218 0 346 -136 346 -323c0 -180 -130 -350 -362 -350zM402 148c92 0 181 76 181 215c0 131 -84 196 -179 196c-91 0 -184 -68 -184 -213c2 -112 74 -198 182 -198z" />
    <glyph glyph-name="uniF6DC" unicode="&#xf6dc;" horiz-adv-x="496" 
d="M374 0h-173c0 26 5 152 5 286v222c-27 -18 -89 -58 -121 -80l-59 94c24 15 236 144 340 208l13 -7c-1 -42 -7 -170 -7 -305v-153c-1 -144 0 -234 2 -265z" />
    <glyph glyph-name="uniF63A" unicode="&#xf63a;" horiz-adv-x="613" 
d="M541 135v-143c-30 3 -264 7 -457 8h-68l-10 25c96 75 320 250 320 397c0 129 -160 167 -262 172l26 129c283 -27 411 -146 411 -276c0 -157 -156 -267 -214 -315v-9z" />
    <glyph glyph-name="uniF63B" unicode="&#xf63b;" horiz-adv-x="554" 
d="M54 -24l-7 125c88 -7 255 28 255 124c0 79 -136 98 -189 99l-4 68c58 2 177 35 177 113c0 70 -119 97 -206 97l13 123c182 -5 371 -64 371 -187c0 -73 -74 -139 -132 -163v-4c84 -20 154 -68 154 -148c0 -139 -197 -243 -432 -247z" />
    <glyph glyph-name="uniF63C" unicode="&#xf63c;" horiz-adv-x="643" 
d="M498 0h-158c1 28 5 66 5 109v25h-336l-22 55l434 541l77 -19l-1 -466l111 4l-7 -118l-105 4v-37c0 -27 1 -69 2 -98zM351 245v235h-2c-60 -88 -144 -196 -174 -235h176z" />
    <glyph glyph-name="uniF63D" unicode="&#xf63d;" horiz-adv-x="557" 
d="M70 -24l-27 127c102 12 261 64 261 164c0 71 -85 107 -237 116l44 322c68 1 311 9 376 13l-1 -142l-260 8l-15 -89c228 -27 276 -118 276 -205c0 -138 -183 -280 -417 -314z" />
    <glyph glyph-name="uniF63E" unicode="&#xf63e;" horiz-adv-x="633" 
d="M381 740l83 -120c-53 -28 -136 -90 -183 -171c179 2 305 -95 304 -218c-2 -142 -130 -247 -282 -247c-66 0 -128 14 -178 56c-55 46 -77 113 -77 184c0 198 168 417 333 516zM216 218c0 -70 39 -123 101 -123c57 0 99 48 99 114c0 88 -75 141 -177 139
c-15 -33 -23 -72 -23 -130z" />
    <glyph glyph-name="uniF63F" unicode="&#xf63f;" horiz-adv-x="547" 
d="M268 -25l-158 69c22 39 234 497 247 529l-323 1l-4 141c87 -2 381 -10 514 -9l7 -11c-34 -83 -259 -650 -283 -720z" />
    <glyph glyph-name="uniF640" unicode="&#xf640;" horiz-adv-x="675" 
d="M327 -16c-194 0 -265 88 -265 192c0 77 50 150 121 187c-70 30 -113 94 -113 162c0 92 84 198 274 197c164 0 253 -71 253 -178c0 -58 -34 -133 -119 -172c84 -33 129 -97 129 -179c0 -88 -71 -209 -280 -209zM332 77c56 0 109 37 109 118c0 79 -52 120 -106 120
c-70 0 -110 -56 -110 -125s50 -113 107 -113zM337 629c-68 0 -105 -48 -105 -110c0 -59 44 -107 98 -107c53 0 104 37 104 112c0 78 -50 105 -97 105z" />
    <glyph glyph-name="uniF641" unicode="&#xf641;" horiz-adv-x="626" 
d="M251 -34l-81 121c49 28 131 92 177 170c-180 -2 -300 90 -299 216c3 133 126 251 275 249c77 0 138 -19 188 -66c45 -42 67 -99 67 -174c0 -200 -167 -416 -327 -516zM413 483c0 79 -38 128 -100 128c-55 0 -100 -52 -100 -118c0 -89 72 -141 178 -136
c12 27 22 69 22 126z" />
    <glyph glyph-name="uniF642" unicode="&#xf642;" horiz-adv-x="900" 
d="M236 600c111 0 179 -53 179 -162c0 -58 -45 -165 -194 -165c-129 0 -185 73 -185 155c0 79 65 172 200 172zM229 525c-57 0 -85 -46 -85 -92c0 -49 32 -85 78 -85c49 0 84 31 84 87c0 63 -34 90 -77 90zM669 0c-128 0 -185 73 -185 155c0 79 66 172 200 172
c113 0 180 -54 180 -163c0 -58 -46 -164 -195 -164zM671 72c44 0 83 28 83 87c0 61 -35 89 -76 89c-56 0 -85 -44 -85 -92c0 -52 34 -84 78 -84zM606 619l80 -45c-30 -39 -106 -148 -189 -278c-85 -135 -166 -270 -193 -315l-79 48c32 48 111 170 197 304
c80 124 157 241 184 286z" />
    <glyph glyph-name="uniF628" unicode="&#xf628;" horiz-adv-x="1320" 
d="M236 600c111 0 179 -53 179 -162c0 -58 -45 -165 -194 -165c-129 0 -185 73 -185 155c0 79 65 172 200 172zM229 525c-57 0 -85 -46 -85 -92c0 -49 32 -85 78 -85c49 0 84 31 84 87c0 63 -34 90 -77 90zM669 0c-128 0 -185 73 -185 155c0 79 66 172 200 172
c113 0 180 -54 180 -163c0 -58 -46 -164 -195 -164zM671 72c44 0 83 28 83 87c0 61 -35 89 -76 89c-56 0 -85 -44 -85 -92c0 -52 34 -84 78 -84zM1089 0c-128 0 -185 73 -185 155c0 79 66 172 200 172c113 0 180 -54 180 -163c0 -58 -46 -164 -195 -164zM1091 72
c44 0 83 28 83 87c0 61 -35 89 -76 89c-56 0 -85 -44 -85 -92c0 -52 34 -84 78 -84zM606 619l80 -45c-30 -39 -106 -148 -189 -278c-85 -135 -166 -270 -193 -315l-79 48c32 48 111 170 197 304c80 124 157 241 184 286z" />
    <glyph glyph-name="uniF643" unicode="&#xf643;" horiz-adv-x="701" 
d="M343 14c-175 0 -311 106 -311 276c0 166 134 297 325 297c196 0 312 -116 312 -275c0 -153 -117 -298 -326 -298zM351 133c82 0 158 62 158 176c0 106 -72 159 -156 159c-81 0 -161 -56 -161 -174c0 -90 63 -161 159 -161z" />
    <glyph glyph-name="uniF644" unicode="&#xf644;" horiz-adv-x="701" 
d="M482 0h-164c0 22 4 129 4 243v186c-22 -15 -78 -49 -106 -68l-54 85c24 12 215 122 312 177l12 -6c-1 -36 -6 -145 -6 -260v-132c-1 -122 0 -199 2 -225z" />
    <glyph glyph-name="uniF645" unicode="&#xf645;" horiz-adv-x="701" 
d="M563 119v-127c-14 2 -74 4 -152 5c-77 2 -173 3 -260 3h-62l-9 26c87 64 283 208 283 333c0 107 -139 137 -230 141l23 115c255 -20 373 -125 373 -235c0 -134 -142 -230 -190 -264v-7z" />
    <glyph glyph-name="uniF646" unicode="&#xf646;" horiz-adv-x="701" 
d="M151 -22l-7 111c80 -5 225 20 225 101c0 67 -118 82 -165 82l-4 63c52 2 154 29 154 95c0 60 -102 78 -180 79l12 109c164 -3 337 -54 337 -160c0 -64 -70 -121 -119 -139v-4c72 -15 138 -56 138 -126c0 -121 -180 -209 -391 -211z" />
    <glyph glyph-name="uniF647" unicode="&#xf647;" horiz-adv-x="701" 
d="M510 0h-147c1 24 5 53 5 90v21h-303l-22 50l391 460l76 -17l-1 -395l95 4l-6 -105l-90 4v-29c0 -23 1 -58 2 -83zM373 209v193h-2c-53 -69 -122 -161 -149 -193h151z" />
    <glyph glyph-name="uniF648" unicode="&#xf648;" horiz-adv-x="701" 
d="M168 -22l-24 113c92 10 232 49 232 134c0 60 -74 88 -211 95l40 282c61 1 280 8 338 11l-1 -125l-230 6l-13 -74c201 -23 245 -102 245 -175c0 -121 -165 -241 -376 -267z" />
    <glyph glyph-name="uniF649" unicode="&#xf649;" horiz-adv-x="701" 
d="M408 634l79 -107c-50 -28 -120 -75 -162 -144c161 1 269 -83 269 -188c0 -120 -118 -210 -255 -210c-60 0 -117 12 -162 48c-50 39 -70 96 -70 156c0 169 150 357 301 445zM267 186c0 -59 32 -101 84 -101c50 0 83 38 83 92c0 74 -61 119 -146 117
c-13 -28 -21 -60 -21 -108z" />
    <glyph glyph-name="uniF64A" unicode="&#xf64a;" horiz-adv-x="701" 
d="M353 -23l-150 58c21 36 212 425 225 449l-285 1l-4 125c78 -2 343 -9 466 -8l6 -9c-33 -73 -235 -555 -258 -616z" />
    <glyph glyph-name="uniF64B" unicode="&#xf64b;" horiz-adv-x="701" 
d="M344 -19c-174 0 -242 73 -242 166c0 65 46 132 110 162c-63 23 -103 82 -103 140c0 80 80 170 251 170c147 0 231 -63 231 -156c0 -49 -31 -116 -108 -147c76 -26 117 -85 117 -155c0 -79 -68 -180 -256 -180zM349 65c48 0 95 30 95 99c0 64 -44 101 -92 101
c-63 0 -95 -51 -95 -106c0 -59 43 -94 92 -94zM353 535c-58 0 -91 -41 -91 -91s38 -92 85 -92c48 0 91 33 91 96c0 62 -44 87 -85 87z" />
    <glyph glyph-name="uniF64C" unicode="&#xf64c;" horiz-adv-x="701" 
d="M297 -32l-79 109c45 26 118 73 159 139c-162 -1 -266 81 -266 189c0 113 116 213 249 213c66 0 125 -17 170 -57c40 -36 60 -85 60 -148c0 -170 -148 -358 -293 -445zM433 414c0 67 -33 104 -82 104c-45 0 -84 -40 -84 -96c0 -78 58 -118 148 -117c11 23 18 60 18 109z
" />
    <glyph glyph-name="uniF64E" unicode="&#xf64e;" horiz-adv-x="701" 
d="M325 183c28 -44 108 -68 212 -68c26 0 55 2 67 5l8 -111c-16 -3 -49 -6 -83 -6c-224 0 -323 89 -356 177c-11 -1 -38 -3 -65 -4l-2 62c25 1 42 2 59 2c-1 4 -1 14 -1 20c0 8 0 17 3 32c-13 -1 -36 -1 -59 -3l3 64c31 1 58 1 69 1c49 112 169 212 392 254l29 -119
c-129 -15 -224 -61 -272 -127c56 3 177 9 234 13l-4 -69c-65 -2 -176 -6 -248 -9c-3 -12 -3 -19 -3 -28c0 -6 0 -15 1 -23c54 1 188 5 247 7l-4 -68c-67 0 -153 0 -227 -2z" />
    <glyph glyph-name="uniF64F" unicode="&#xf64f;" horiz-adv-x="701" 
d="M206 0v40c0 24 -1 195 13 287c27 172 138 265 316 287l17 -122c-86 -3 -168 -22 -188 -173c-1 -8 -2 -18 -3 -29c38 1 112 7 149 10l-3 -88c-37 -1 -118 -4 -149 -6c-2 -38 -3 -84 -3 -135v-71h-149z" />
    <glyph glyph-name="uniF651" unicode="&#xf651;" horiz-adv-x="701" 
d="M576 103v-107c-31 0 -325 4 -414 4c29 88 42 166 53 232c-33 -3 -59 -5 -83 -6l-1 76c27 0 57 2 93 4c3 17 6 37 9 53c35 156 151 237 324 255l12 -115c-78 -6 -148 -6 -186 -154c-3 -11 -4 -25 -7 -35c51 4 123 11 147 12l-3 -80c-33 -1 -87 -3 -156 -6
c-10 -47 -22 -97 -44 -140c61 0 170 3 256 7z" />
    <glyph glyph-name="uniF652" unicode="&#xf652;" horiz-adv-x="701" 
d="M414 0h-149c1 21 4 113 4 125v50c-75 1 -120 0 -142 0l-1 75c20 -1 64 -2 138 -1c-65 87 -165 230 -203 281l123 76c45 -74 110 -189 160 -266h2c52 77 126 200 165 267l121 -71c-30 -40 -148 -199 -219 -287c70 0 115 0 138 1l2 -75c-22 0 -68 1 -145 1v-64
c0 -13 4 -94 6 -112z" />
    <glyph glyph-name="uniF653" unicode="&#xf653;" horiz-adv-x="701" 
d="M298 -71l3 106c-23 -8 -99 -19 -121 -21l-13 111c110 5 203 43 203 77c0 33 -22 46 -80 73c-68 32 -128 70 -128 136c0 62 69 117 139 145l-3 120h99l-3 -92c14 6 78 18 100 19l9 -113c-88 0 -179 -28 -179 -69c0 -30 24 -42 86 -70c70 -31 120 -68 120 -132
c0 -78 -91 -140 -136 -161l3 -129h-99z" />
    <glyph glyph-name="uniF654" unicode="&#xf654;" horiz-adv-x="701" 
d="M308 -14l2 130c-124 32 -161 117 -161 170c0 89 63 166 161 214l-2 145h102l-2 -115c16 8 68 19 112 25l10 -116c-156 -12 -221 -72 -221 -141c0 -65 73 -88 149 -88c43 0 65 4 86 7l6 -108c-24 -4 -52 -6 -75 -6c-22 0 -55 0 -67 1l2 -118h-102z" />
    <glyph glyph-name="uniF66D" unicode="&#xf66d;" 
d="M144 -25l-138 73c35 60 286 492 349 583h12c98 -141 325 -508 371 -573l-140 -82c-22 38 -89 151 -94 160l-287 -12c-7 -14 -56 -113 -73 -149zM265 230l188 8c-19 37 -80 149 -95 176c-18 -33 -76 -150 -93 -184zM476 813l44 -58c-33 -36 -93 -71 -153 -71
c-56 0 -125 37 -152 69l47 60c23 -25 60 -52 112 -52c44 0 78 24 102 52z" />
    <glyph glyph-name="uniF66E" unicode="&#xf66e;" 
d="M144 -25l-138 73c35 60 286 492 349 583h12c98 -141 325 -508 371 -573l-140 -82c-22 38 -89 151 -94 160l-287 -12c-7 -14 -56 -113 -73 -149zM265 230l188 8c-19 37 -80 149 -95 176c-18 -33 -76 -150 -93 -184zM233 691l8 71l260 2l-4 -77z" />
    <glyph glyph-name="uniF66F" unicode="&#xf66f;" 
d="M265 230l188 8c-19 37 -80 149 -95 176c-18 -33 -76 -150 -93 -184zM144 -25l-138 73c35 60 286 492 349 583h12c98 -141 325 -508 371 -573l-140 -82c-18 -11 -53 -60 -53 -80c0 -27 25 -57 86 -64l-17 -59c-87 15 -160 55 -160 111c0 38 40 78 124 127
c-29 49 -70 118 -74 125l-287 -12c-7 -14 -56 -113 -73 -149z" />
    <glyph glyph-name="uniF671" unicode="&#xf671;" horiz-adv-x="589" 
d="M545 122l9 -129c-26 -4 -63 -7 -110 -7c-303 0 -402 151 -402 254c0 143 139 319 452 374l29 -132c-190 -28 -300 -115 -300 -223c0 -79 71 -143 231 -143c37 0 69 3 91 6zM322 728l149 112l51 -84l-168 -81z" />
    <glyph glyph-name="uniF672" unicode="&#xf672;" horiz-adv-x="589" 
d="M545 122l9 -129c-26 -4 -63 -7 -110 -7c-303 0 -402 151 -402 254c0 143 139 319 452 374l29 -132c-190 -28 -300 -115 -300 -223c0 -79 71 -143 231 -143c37 0 69 3 91 6zM383 679l-149 94l45 62l107 -75l93 75l44 -62z" />
    <glyph glyph-name="uniF675" unicode="&#xf675;" horiz-adv-x="737" 
d="M109 269v105c0 18 -1 202 -4 226c123 0 213 -1 295 -10c262 -28 294 -157 294 -222c0 -274 -316 -377 -590 -372c3 39 5 250 5 273zM271 489v-369c146 13 247 102 247 223c0 116 -107 148 -247 146zM347 679l-149 94l45 62l107 -75l93 75l44 -62z" />
    <glyph glyph-name="uniF676" unicode="&#xf676;" horiz-adv-x="739" 
d="M28 259l-3 84c23 1 51 2 86 3v28c0 18 -1 202 -4 226c123 0 215 -1 297 -10c264 -28 292 -156 292 -223c0 -270 -307 -375 -590 -371c3 35 4 203 5 246v21c-33 -1 -60 -3 -83 -4zM394 358l-1 -83c-38 -1 -81 -3 -122 -5v-150c151 14 251 100 251 223
c0 115 -105 148 -251 147v-138c42 2 86 4 123 6z" />
    <glyph glyph-name="uniF678" unicode="&#xf678;" horiz-adv-x="548" 
d="M483 113l3 -122c-34 0 -340 9 -379 9c2 45 2 227 2 247v113c0 14 -2 219 -2 240c43 0 320 12 361 15l4 -116c-36 0 -187 -5 -203 -5v-144c18 0 127 4 173 8l2 -114c-26 0 -155 3 -175 3v-136c23 0 154 -2 214 2zM282 679l-149 94l45 62l107 -75l93 75l44 -62z" />
    <glyph glyph-name="uniF679" unicode="&#xf679;" horiz-adv-x="548" 
d="M483 113l3 -122c-34 0 -340 9 -379 9c2 45 2 227 2 247v113c0 14 -2 219 -2 240c43 0 320 12 361 15l4 -116c-36 0 -187 -5 -203 -5v-144c18 0 127 4 173 8l2 -114c-26 0 -155 3 -175 3v-136c23 0 154 -2 214 2zM279 690l-79 79l79 79l79 -79z" />
    <glyph glyph-name="uniF67A" unicode="&#xf67a;" horiz-adv-x="548" 
d="M483 113l3 -122c-34 0 -340 9 -379 9c2 45 2 227 2 247v113c0 14 -2 219 -2 240c43 0 320 12 361 15l4 -116c-36 0 -187 -5 -203 -5v-144c18 0 127 4 173 8l2 -114c-26 0 -155 3 -175 3v-136c23 0 154 -2 214 2zM135 691l8 71l260 2l-4 -77z" />
    <glyph glyph-name="uniF67C" unicode="&#xf67c;" horiz-adv-x="548" 
d="M483 113l3 -122c-2 0 -5 0 -22 1c-48 -33 -75 -74 -75 -96c0 -27 25 -57 86 -64l-17 -59c-87 15 -160 55 -160 111c0 39 43 81 95 109c-76 2 -257 7 -286 7c2 45 2 227 2 247v113c0 14 -2 219 -2 240c43 0 320 12 361 15l4 -116c-36 0 -187 -5 -203 -5v-144
c18 0 127 4 173 8l2 -114c-26 0 -155 3 -175 3v-136c23 0 154 -2 214 2z" />
    <glyph glyph-name="uniF67D" unicode="&#xf67d;" horiz-adv-x="671" 
d="M603 194v-62c0 -33 2 -108 2 -123c-33 -10 -117 -23 -203 -23c-245 0 -361 114 -361 251c0 103 103 302 465 379l32 -139c-156 -24 -318 -111 -318 -235c0 -79 70 -136 173 -136c21 0 41 1 54 4v91c0 24 -2 50 -2 70h159c-1 -32 -1 -52 -1 -77zM499 813l44 -58
c-33 -36 -93 -71 -153 -71c-56 0 -125 37 -152 69l47 60c23 -25 60 -52 112 -52c44 0 78 24 102 52z" />
    <glyph glyph-name="uniF67F" unicode="&#xf67f;" horiz-adv-x="671" 
d="M603 194v-62c0 -33 2 -108 2 -123c-33 -10 -117 -23 -203 -23c-245 0 -361 114 -361 251c0 103 103 302 465 379l32 -139c-156 -24 -318 -111 -318 -235c0 -79 70 -136 173 -136c21 0 41 1 54 4v91c0 24 -2 50 -2 70h159c-1 -32 -1 -52 -1 -77zM310 -60l102 -46
l-108 -175l-46 22z" />
    <glyph glyph-name="uniF685" unicode="&#xf685;" horiz-adv-x="381" 
d="M272 349v-92c0 -85 3 -237 4 -257h-170c1 37 2 236 2 258v92c0 15 -2 230 -3 250h171c-1 -15 -4 -149 -4 -251zM51 691l8 71l260 2l-4 -77z" />
    <glyph glyph-name="uniF686" unicode="&#xf686;" horiz-adv-x="381" 
d="M275 -168l-17 -59c-87 15 -160 55 -160 111c0 37 39 77 101 116h-93c1 37 2 236 2 258v92c0 15 -2 230 -3 250h171c-1 -15 -4 -149 -4 -251v-92c0 -85 3 -237 4 -257c-55 -34 -87 -82 -87 -104c0 -27 25 -57 86 -64z" />
    <glyph glyph-name="uniF689" unicode="&#xf689;" horiz-adv-x="692" 
d="M274 -9h-167c1 25 4 169 4 266v90c0 74 -4 242 -4 262h167c-1 -14 -4 -178 -4 -252v-29h4c51 55 240 262 261 283l109 -113c-38 -32 -158 -138 -206 -185c31 -33 189 -179 225 -214l-119 -118c-13 16 -212 239 -270 309h-4v-28c0 -66 2 -254 4 -271zM321 -40l102 -46
l-108 -175l-46 22z" />
    <glyph glyph-name="uniF68A" unicode="&#xf68a;" horiz-adv-x="516" 
d="M106 601h173c-2 -20 -6 -192 -6 -299v-183c22 0 129 0 212 4l1 -132c-28 0 -326 9 -381 9c4 45 4 227 4 247v113c0 14 -2 224 -3 241zM135 728l149 112l51 -84l-168 -81z" />
    <glyph glyph-name="uniF68B" unicode="&#xf68b;" horiz-adv-x="516" 
d="M106 601h173c-2 -20 -6 -192 -6 -299v-183c22 0 129 0 212 4l1 -132c-28 0 -326 9 -381 9c4 45 4 227 4 247v113c0 14 -2 224 -3 241zM453 604l102 -46l-108 -175l-46 22z" />
    <glyph glyph-name="uniF68C" unicode="&#xf68c;" horiz-adv-x="516" 
d="M106 601h173c-2 -20 -6 -192 -6 -299v-183c22 0 129 0 212 4l1 -132c-28 0 -326 9 -381 9c4 45 4 227 4 247v113c0 14 -2 224 -3 241zM252 -60l102 -46l-108 -175l-46 22z" />
    <glyph glyph-name="uniF68E" unicode="&#xf68e;" horiz-adv-x="788" 
d="M682 -15l-9 -4c-78 65 -419 342 -442 363c1 -33 0 -324 1 -350l-155 6c6 62 29 514 36 617l11 3c88 -70 400 -332 437 -364h2c0 46 -2 316 -1 348l152 -4c-5 -60 -16 -271 -23 -436c-3 -73 -8 -145 -9 -179zM312 708l149 112l51 -84l-168 -81z" />
    <glyph glyph-name="uniF68F" unicode="&#xf68f;" horiz-adv-x="788" 
d="M682 -15l-9 -4c-78 65 -419 342 -442 363c1 -33 0 -324 1 -350l-155 6c6 62 29 514 36 617l11 3c88 -70 400 -332 437 -364h2c0 46 -2 316 -1 348l152 -4c-5 -60 -16 -271 -23 -436c-3 -73 -8 -145 -9 -179zM393 659l-149 94l45 62l107 -75l93 75l44 -62z" />
    <glyph glyph-name="uniF690" unicode="&#xf690;" horiz-adv-x="788" 
d="M682 -15l-9 -4c-78 65 -419 342 -442 363c1 -33 0 -324 1 -350l-155 6c6 62 29 514 36 617l11 3c88 -70 400 -332 437 -364h2c0 46 -2 316 -1 348l152 -4c-5 -60 -16 -271 -23 -436c-3 -73 -8 -145 -9 -179zM369 -40l102 -46l-108 -175l-46 22z" />
    <glyph glyph-name="uniF692" unicode="&#xf692;" horiz-adv-x="796" 
d="M375 -14h-1c-222 0 -329 145 -329 287c0 174 130 341 377 341c199 0 329 -110 329 -295c0 -131 -90 -333 -376 -333zM385 96c103 0 185 75 185 217c0 126 -68 191 -160 191c-116 0 -184 -99 -184 -218c0 -118 67 -190 159 -190zM430 714l112 143l66 -63l-134 -116z
M295 713l89 137l69 -56l-113 -116z" />
    <glyph glyph-name="uniF693" unicode="&#xf693;" horiz-adv-x="796" 
d="M375 -14h-1c-222 0 -329 145 -329 287c0 174 130 341 377 341c199 0 329 -110 329 -295c0 -131 -90 -333 -376 -333zM385 96c103 0 185 75 185 217c0 126 -68 191 -160 191c-116 0 -184 -99 -184 -218c0 -118 67 -190 159 -190zM259 691l8 71l260 2l-4 -77z" />
    <glyph glyph-name="uniF695" unicode="&#xf695;" horiz-adv-x="669" 
d="M270 500v-240c0 -32 2 -247 4 -260h-166c3 20 2 248 2 266v111c0 26 -2 206 -4 223c94 0 202 2 284 -8c129 -15 202 -65 202 -143c0 -73 -46 -128 -121 -172c25 -30 169 -173 194 -199l-135 -102c-17 24 -199 268 -224 305c46 23 110 66 110 138c0 40 -26 80 -146 81z
M262 728l149 112l51 -84l-168 -81z" />
    <glyph glyph-name="uniF696" unicode="&#xf696;" horiz-adv-x="669" 
d="M270 500v-240c0 -32 2 -247 4 -260h-166c3 20 2 248 2 266v111c0 26 -2 206 -4 223c94 0 202 2 284 -8c129 -15 202 -65 202 -143c0 -73 -46 -128 -121 -172c25 -30 169 -173 194 -199l-135 -102c-17 24 -199 268 -224 305c46 23 110 66 110 138c0 40 -26 80 -146 81z
M353 679l-149 94l45 62l107 -75l93 75l44 -62z" />
    <glyph glyph-name="uniF697" unicode="&#xf697;" horiz-adv-x="669" 
d="M270 500v-240c0 -32 2 -247 4 -260h-166c3 20 2 248 2 266v111c0 26 -2 206 -4 223c94 0 202 2 284 -8c129 -15 202 -65 202 -143c0 -73 -46 -128 -121 -172c25 -30 169 -173 194 -199l-135 -102c-17 24 -199 268 -224 305c46 23 110 66 110 138c0 40 -26 80 -146 81z
M309 -60l102 -46l-108 -175l-46 22z" />
    <glyph glyph-name="uniF698" unicode="&#xf698;" horiz-adv-x="498" 
d="M98 -16l-23 124c95 5 202 24 202 77c0 29 -22 42 -93 75c-67 31 -134 72 -134 145c0 101 144 196 341 213l22 -123c-98 -3 -189 -19 -189 -70c0 -31 45 -45 95 -69c57 -27 134 -61 134 -140c0 -98 -112 -204 -355 -232zM226 728l149 112l51 -84l-168 -81z" />
    <glyph glyph-name="uniF699" unicode="&#xf699;" horiz-adv-x="498" 
d="M98 -16l-23 124c95 5 202 24 202 77c0 29 -22 42 -93 75c-67 31 -134 72 -134 145c0 101 144 196 341 213l22 -123c-98 -3 -189 -19 -189 -70c0 -31 45 -45 95 -69c57 -27 134 -61 134 -140c0 -65 -48 -132 -152 -178l-55 -95c38 -10 73 -38 73 -78
c0 -56 -73 -97 -175 -105l-10 55c48 2 95 19 95 54c0 25 -31 45 -67 55l44 81c-31 -10 -68 -16 -108 -21z" />
    <glyph glyph-name="uniF69B" unicode="&#xf69b;" horiz-adv-x="498" 
d="M98 -16l-23 124c95 5 202 24 202 77c0 29 -22 42 -93 75c-67 31 -134 72 -134 145c0 101 144 196 341 213l22 -123c-98 -3 -189 -19 -189 -70c0 -31 45 -45 95 -69c57 -27 134 -61 134 -140c0 -98 -112 -204 -355 -232zM224 -60l102 -46l-108 -175l-46 22z" />
    <glyph glyph-name="uniF69D" unicode="&#xf69d;" horiz-adv-x="587" 
d="M380 0h-173c3 22 4 194 4 303v178c-63 0 -193 -4 -215 -6v125c35 -5 251 -8 261 -8h79c17 0 216 3 253 8v-125c-11 2 -179 6 -215 6v-191c0 -122 4 -273 6 -290zM292 679l-149 94l45 62l107 -75l93 75l44 -62z" />
    <glyph glyph-name="uniF69E" unicode="&#xf69e;" horiz-adv-x="587" 
d="M380 0h-173c3 22 4 194 4 303v178c-63 0 -193 -4 -215 -6v125c35 -5 251 -8 261 -8h79c17 0 216 3 253 8v-125c-11 2 -179 6 -215 6v-191c0 -122 4 -273 6 -290zM268 -60l102 -46l-108 -175l-46 22z" />
    <glyph glyph-name="uniF6A0" unicode="&#xf6a0;" horiz-adv-x="751" 
d="M243 451v-57c0 -137 5 -197 39 -242c26 -35 55 -50 98 -50c51 0 81 24 103 55c32 45 33 105 33 275v31c0 59 -4 114 -5 145h168c0 -19 1 -79 1 -146v-40c0 -163 -11 -264 -79 -342c-55 -63 -133 -94 -233 -94c-64 0 -166 10 -233 105c-44 62 -61 127 -61 333v46
c0 39 1 106 1 125h173c-3 -22 -5 -66 -5 -144zM367 714l112 143l66 -63l-134 -116zM232 713l89 137l69 -56l-113 -116z" />
    <glyph glyph-name="uniF6A1" unicode="&#xf6a1;" horiz-adv-x="751" 
d="M243 451v-57c0 -137 5 -197 39 -242c26 -35 55 -50 98 -50c51 0 81 24 103 55c32 45 33 105 33 275v31c0 59 -4 114 -5 145h168c0 -19 1 -79 1 -146v-40c0 -163 -11 -264 -79 -342c-55 -63 -133 -94 -233 -94c-64 0 -166 10 -233 105c-44 62 -61 127 -61 333v46
c0 39 1 106 1 125h173c-3 -22 -5 -66 -5 -144zM236 691l8 71l260 2l-4 -77z" />
    <glyph glyph-name="uniF6A2" unicode="&#xf6a2;" horiz-adv-x="751" 
d="M243 451v-57c0 -137 5 -197 39 -242c26 -35 55 -50 98 -50c51 0 81 24 103 55c32 45 33 105 33 275v31c0 59 -4 114 -5 145h168c0 -19 1 -79 1 -146v-40c0 -163 -11 -264 -79 -342c-24 -28 -54 -50 -101 -78c-44 -26 -86 -85 -86 -106c0 -27 25 -57 86 -64l-17 -59
c-87 15 -160 55 -160 111c0 37 39 76 86 104c-13 -1 -27 -2 -41 -2c-64 0 -166 10 -233 105c-44 62 -61 127 -61 333v46c0 39 1 106 1 125h173c-3 -22 -5 -66 -5 -144z" />
    <glyph glyph-name="uniF6A3" unicode="&#xf6a3;" horiz-adv-x="751" 
d="M243 451v-57c0 -137 5 -197 39 -242c26 -35 55 -50 98 -50c51 0 81 24 103 55c32 45 33 105 33 275v31c0 59 -4 114 -5 145h168c0 -19 1 -79 1 -146v-40c0 -163 -11 -264 -79 -342c-55 -63 -133 -94 -233 -94c-64 0 -166 10 -233 105c-44 62 -61 127 -61 333v46
c0 39 1 106 1 125h173c-3 -22 -5 -66 -5 -144zM366 661h-1c-63 0 -107 30 -107 82c1 57 49 92 116 92c79 0 112 -35 112 -80c0 -60 -50 -94 -120 -94zM371 704h1c23 0 46 14 46 46c0 24 -18 41 -45 41c-21 0 -46 -14 -46 -44c0 -27 20 -43 44 -43z" />
    <glyph glyph-name="uniF6AB" unicode="&#xf6ab;" horiz-adv-x="636" 
d="M70 490l4 126c20 -2 122 -7 230 -12s223 -9 268 -9h26l4 -8c-27 -41 -317 -464 -327 -476c51 0 285 4 309 7l-4 -128c-21 0 -507 10 -548 10l-4 10c41 52 313 452 333 477c-32 0 -268 3 -291 3zM236 728l149 112l51 -84l-168 -81z" />
    <glyph glyph-name="uniF6AC" unicode="&#xf6ac;" horiz-adv-x="636" 
d="M70 490l4 126c20 -2 122 -7 230 -12s223 -9 268 -9h26l4 -8c-27 -41 -317 -464 -327 -476c51 0 285 4 309 7l-4 -128c-21 0 -507 10 -548 10l-4 10c41 52 313 452 333 477c-32 0 -268 3 -291 3zM333 690l-79 79l79 79l79 -79z" />
    <glyph glyph-name="uniF6AD" unicode="&#xf6ad;" horiz-adv-x="381" 
d="M272 349v-92c0 -85 3 -237 4 -257h-170c1 37 2 236 2 258v92c0 15 -2 230 -3 250h171c-1 -15 -4 -149 -4 -251zM196 690l-79 79l79 79l79 -79z" />
    <glyph glyph-name="Y.alt" unicode="&#xe02a;" 
d="M457 0h-181c1 23 5 105 5 134v117c-45 96 -194 274 -266 348l131 129c80 -87 172 -223 228 -350h6c59 120 164 271 242 349l120 -127c-68 -61 -245 -265 -290 -353v-126c0 -25 3 -101 5 -121z" />
    <glyph glyph-name="y.alt" unicode="&#xe03b;" horiz-adv-x="667" 
d="M420 0h-172c0 20 4 86 4 115v93c-48 90 -171 226 -242 295l120 119c74 -78 154 -189 212 -308h4c46 95 149 241 223 309l104 -117c-61 -56 -204 -203 -257 -303v-98c0 -26 2 -88 4 -105z" />
    <glyph glyph-name="sterling.fitted" unicode="&#xe038;" horiz-adv-x="584" 
d="M537 116v-121c-35 0 -361 5 -460 5c32 103 46 195 59 276c-37 -3 -66 -5 -93 -7l-1 85c30 0 64 2 104 5c3 21 6 44 10 63c38 184 173 278 359 300l14 -129c-87 -7 -173 -15 -212 -187c-3 -13 -5 -29 -8 -42c62 4 142 12 169 14l-4 -90c-36 -1 -96 -3 -178 -7
c-12 -59 -26 -118 -51 -173c74 0 196 4 292 8z" />
    <glyph glyph-name="idotaccent" unicode="&#xe035;" horiz-adv-x="381" 
d="M272 349v-92c0 -85 3 -237 4 -257h-170c1 37 2 236 2 258v92c0 15 -2 230 -3 250h171c-1 -15 -4 -149 -4 -251zM196 690l-79 79l79 79l79 -79z" />
    <glyph glyph-name="upsilondieresis.alt" unicode="&#xe03a;" horiz-adv-x="686" 
d="M99 179l-73 73l73 73l73 -73zM576 179l-73 73l73 73l73 -73zM423 0h-172c1 20 5 110 5 121v45c0 110 -51 194 -115 246c-36 29 -78 47 -110 58l56 144c56 -20 120 -55 156 -91c37 -38 78 -93 100 -161h4c23 63 56 113 103 156c43 40 108 80 170 98l44 -145
c-43 -10 -101 -35 -147 -76c-57 -51 -98 -133 -98 -228v-62c0 -12 2 -88 4 -105z" />
    <glyph glyph-name="Gamma.small" unicode="&#xe00b;" horiz-adv-x="516" 
d="M279 0h-173c1 17 3 227 3 241v113c0 20 0 202 -4 247c55 0 353 9 381 9l-1 -132c-83 4 -190 4 -212 4v-183c0 -107 4 -279 6 -299z" />
    <glyph glyph-name="uni021B" unicode="&#x21b;" horiz-adv-x="587" 
d="M380 0h-173c3 22 4 194 4 303v178c-63 0 -193 -4 -215 -6v125c35 -5 251 -8 261 -8h79c17 0 216 3 253 8v-125c-11 2 -179 6 -215 6v-191c0 -122 4 -273 6 -290zM268 -60l102 -46l-108 -175l-46 22z" />
    <glyph glyph-name="yen.fitted" unicode="&#xe03e;" horiz-adv-x="657" 
d="M402 0h-159c1 25 5 138 5 152v59c-87 1 -137 0 -161 -1l-2 84c23 -1 73 -2 155 -1c-72 102 -185 271 -227 330l133 88c50 -88 126 -221 182 -313h2c58 92 144 234 188 313l130 -81c-34 -46 -165 -235 -244 -338c78 0 128 1 154 2l2 -84c-24 1 -76 2 -164 2v-80
c0 -15 4 -111 6 -132z" />
    <glyph glyph-name="uni2215" unicode="&#x2215;" horiz-adv-x="150" 
d="M329 677c-33 -47 -118 -175 -210 -328c-95 -158 -185 -317 -215 -370l-83 54c36 56 123 200 219 358c89 146 175 283 204 336z" />
    <glyph glyph-name="Alpha.small" unicode="&#xe000;" 
d="M144 -25l-138 73c35 60 286 492 349 583h12c98 -141 325 -508 371 -573l-140 -82c-22 38 -89 151 -94 160l-287 -12c-7 -14 -56 -113 -73 -149zM265 230l188 8c-19 37 -80 149 -95 176c-18 -33 -76 -150 -93 -184z" />
    <glyph glyph-name="yacute.alt" unicode="&#xe03c;" horiz-adv-x="667" 
d="M420 0h-172c0 20 4 86 4 115v93c-48 90 -171 226 -242 295l120 119c74 -78 154 -189 212 -308h4c46 95 149 241 223 309l104 -117c-61 -56 -204 -203 -257 -303v-98c0 -26 2 -88 4 -105zM291 728l149 112l51 -84l-168 -81z" />
    <glyph glyph-name="florin.oldstyle" unicode="&#xe034;" horiz-adv-x="437" 
d="M64 0v40c0 24 -1 195 13 287c27 172 138 265 316 287l17 -122c-86 -3 -168 -22 -188 -173c-1 -8 -2 -18 -3 -29c38 1 112 7 149 10l-3 -88c-37 -1 -118 -4 -149 -6c-2 -38 -3 -84 -3 -135v-71h-149z" />
    <glyph glyph-name="dollar.fitted" unicode="&#xe032;" horiz-adv-x="546" 
d="M222 -84l3 128c-27 -10 -112 -25 -134 -27l-14 127c120 5 225 53 225 93c0 38 -26 57 -91 90c-76 38 -140 85 -140 156c0 74 74 136 154 169l-3 143h106l-4 -109c18 7 89 22 111 23l10 -129c-95 0 -200 -35 -200 -84c0 -33 31 -53 99 -85c78 -37 131 -81 131 -153
c0 -92 -98 -163 -151 -188l4 -154h-106z" />
    <glyph glyph-name="florin.fitted" unicode="&#xe033;" horiz-adv-x="486" 
d="M71 0v47c0 28 -1 230 15 338c29 202 153 311 351 337l19 -137c-96 -4 -194 -27 -216 -210c-1 -9 -2 -21 -3 -36c48 1 131 8 172 12l-4 -98c-41 -1 -131 -5 -172 -7c-2 -48 -3 -103 -3 -163v-83h-159z" />
    <glyph glyph-name="Iota.small" unicode="&#xe00c;" horiz-adv-x="381" 
d="M272 349v-92c0 -85 3 -237 4 -257h-170c1 37 2 236 2 258v92c0 15 -2 230 -3 250h171c-1 -15 -4 -149 -4 -251z" />
    <glyph glyph-name="sterling.oldstyle" unicode="&#xe039;" horiz-adv-x="526" 
d="M483 103v-107c-31 0 -325 4 -414 4c29 88 42 166 53 232c-33 -3 -59 -5 -83 -6l-1 76c27 0 57 2 93 4c3 17 6 37 9 53c35 156 151 237 324 255l12 -115c-78 -6 -148 -6 -186 -154c-3 -11 -4 -25 -7 -35c51 4 123 11 147 12l-3 -80c-33 -1 -87 -3 -156 -6
c-10 -47 -22 -97 -44 -140c61 0 170 3 256 7z" />
    <glyph glyph-name="uni021A" unicode="&#x21a;" horiz-adv-x="656" 
d="M420 0h-181c3 26 4 230 4 359v216c-75 0 -217 -5 -248 -8v139c45 -6 282 -10 293 -10h87c19 0 237 4 286 10v-139c-19 3 -204 8 -248 8v-232c0 -144 5 -323 7 -343zM304 -60l102 -46l-108 -174l-46 22z" />
    <glyph glyph-name="Iotadieresis.small" unicode="&#xe00d;" horiz-adv-x="381" 
d="M272 349v-92c0 -85 3 -237 4 -257h-170c1 37 2 236 2 258v92c0 15 -2 230 -3 250h171c-1 -15 -4 -149 -4 -251zM75 688l-73 73l73 73l73 -73zM301 688l-73 73l73 73l73 -73z" />
    <glyph glyph-name="sigma.alt" unicode="&#xe037;" horiz-adv-x="472" 
d="M397 308v-9c-61 -56 -113 -104 -172 -156v-5c73 -34 133 -56 217 -87l-58 -114c-113 47 -253 107 -370 167v16c71 59 148 130 203 177v3c-67 56 -136 121 -191 169v15c104 49 257 116 356 158l51 -114c-75 -26 -129 -43 -199 -71v-3c42 -39 95 -89 163 -146z" />
    <glyph glyph-name="Beta.small" unicode="&#xe002;" horiz-adv-x="633" 
d="M108 315v94c0 25 -2 174 -4 192c102 0 172 1 235 -5c187 -18 215 -90 215 -139c0 -35 -26 -96 -124 -130v-4c71 -4 152 -49 152 -131c0 -109 -131 -197 -410 -197h-68c4 47 4 303 4 320zM262 270v-184c73 3 150 38 150 101c0 60 -63 87 -150 83zM262 516v-169
c61 0 127 36 127 100s-82 71 -127 69z" />
    <glyph glyph-name="cent.fitted" unicode="&#xe031;" horiz-adv-x="539" 
d="M233 -16l2 152c-142 40 -182 138 -182 200c0 105 69 193 182 252l-2 171h105l-3 -135c23 9 81 22 129 29l11 -132c-173 -14 -251 -89 -251 -171c0 -76 87 -108 172 -108c47 0 72 5 95 8l7 -122c-27 -5 -58 -7 -84 -7c-24 0 -61 0 -79 1l3 -138h-105z" />
    <glyph glyph-name="Tau.small" unicode="&#xe022;" horiz-adv-x="587" 
d="M380 0h-173c3 22 4 194 4 303v178c-63 0 -193 -4 -215 -6v125c35 -5 251 -8 261 -8h79c17 0 216 3 253 8v-125c-11 2 -179 6 -215 6v-191c0 -122 4 -273 6 -290z" />
    <glyph glyph-name="psi.alt" unicode="&#xe036;" horiz-adv-x="791" 
d="M599 586l147 2c7 -46 13 -101 13 -160c0 -182 -125 -276 -284 -284c1 -66 2 -132 3 -144h-157c1 23 1 80 2 143c-159 8 -284 81 -284 274c0 56 6 125 13 171l147 -3c-8 -49 -10 -107 -10 -162c0 -133 65 -176 135 -181v108c0 15 -3 229 -3 264h157
c-1 -30 -4 -163 -4 -266v-107c80 12 135 64 135 192c0 46 -2 105 -10 153z" />
    <glyph glyph-name="ydieresis.alt" unicode="&#xe03d;" horiz-adv-x="667" 
d="M420 0h-172c0 20 4 86 4 115v93c-48 90 -171 226 -242 295l120 119c74 -78 154 -189 212 -308h4c46 95 149 241 223 309l104 -117c-61 -56 -204 -203 -257 -303v-98c0 -26 2 -88 4 -105zM228 688l-73 73l73 73l73 -73zM454 688l-73 73l73 73l73 -73z" />
    <glyph glyph-name="yen.oldstyle" unicode="&#xe03f;" horiz-adv-x="591" 
d="M365 0h-149c1 21 4 113 4 125v50c-75 1 -120 0 -142 0l-1 75c20 -1 64 -2 138 -1c-65 87 -165 230 -203 281l123 76c45 -74 110 -189 160 -266h2c52 77 126 200 165 267l121 -71c-30 -40 -148 -199 -219 -287c70 0 115 0 138 1l2 -75c-22 0 -68 1 -145 1v-64
c0 -13 4 -94 6 -112z" />
    <glyph glyph-name="uni00A0" unicode="&#xa0;" horiz-adv-x="270" 
 />
    <glyph glyph-name="uni0394" unicode="&#x394;" horiz-adv-x="816" 
d="M829 3l-3 -6c-37 1 -115 2 -198 2c-83 1 -171 1 -229 1c-114 0 -304 -1 -405 -3l-3 7c36 64 321 590 409 733h7c103 -161 376 -658 422 -734zM576 134c-21 40 -149 289 -176 343c-31 -59 -155 -304 -173 -342c30 -1 114 -4 176 -4c63 0 147 1 173 3z" />
    <glyph glyph-name="uni03A9" unicode="&#x3a9;" horiz-adv-x="932" 
d="M878 127l3 -131c-14 0 -350 3 -384 4l-2 46c65 51 159 181 159 334c0 135 -78 214 -181 214c-135 0 -207 -114 -207 -247c0 -120 45 -223 113 -300l-3 -46c-42 0 -349 -5 -362 -5l4 131c46 -4 138 -7 169 -6l2 6c-55 43 -109 134 -109 228c0 187 142 367 408 367
c218 0 352 -134 352 -320c0 -116 -58 -221 -128 -278l1 -6c40 1 118 5 165 9z" />
    <glyph glyph-name="Omega.small" unicode="&#xe015;" horiz-adv-x="856" 
d="M823 115l3 -119c-13 0 -328 3 -316 3l-2 40c74 73 100 154 100 284c0 115 -68 182 -164 182c-126 0 -189 -97 -189 -210c0 -102 37 -190 113 -256l-3 -39c-52 0 -339 -4 -351 -4l3 119c44 -3 130 -5 155 -5l2 5c-48 29 -98 106 -98 186c0 160 133 313 381 313
c205 0 330 -114 330 -273c0 -98 -55 -188 -112 -228l2 -5c29 1 102 4 146 7z" />
    <glyph glyph-name="Kappa.small" unicode="&#xe010;" horiz-adv-x="692" 
d="M274 -9h-167c1 25 4 169 4 266v90c0 74 -4 242 -4 262h167c-1 -14 -4 -178 -4 -252v-29h4c51 55 240 262 261 283l109 -113c-38 -32 -158 -138 -206 -185c31 -33 189 -179 225 -214l-119 -118c-13 16 -212 239 -270 309h-4v-28c0 -66 2 -254 4 -271z" />
    <glyph glyph-name="Kappa.smallalt" unicode="&#xe011;" horiz-adv-x="692" 
d="M535 611l109 -113c-38 -32 -158 -138 -206 -185c30 -35 171 -170 206 -216c42 -55 54 -104 54 -152c0 -72 -42 -147 -100 -190l-106 83c42 34 56 65 56 101c0 28 -11 54 -50 98c-18 20 -163 182 -224 253h-4v-28c0 -66 2 -254 4 -271h-167c1 25 4 169 4 266v90
c0 74 -4 242 -4 262h167c-1 -14 -4 -178 -4 -252v-29h4c51 55 240 262 261 283z" />
    <glyph glyph-name="Euro.oldstyle" unicode="&#xe00a;" horiz-adv-x="585" 
d="M260 183c28 -44 108 -68 212 -68c26 0 55 2 67 5l8 -111c-16 -3 -49 -6 -83 -6c-224 0 -323 89 -356 177c-11 -1 -38 -3 -65 -4l-2 62c25 1 42 2 59 2c-1 4 -1 14 -1 20c0 8 0 17 3 32c-13 -1 -36 -1 -59 -3l3 64c31 1 58 1 69 1c49 112 169 212 392 254l29 -119
c-129 -15 -224 -61 -272 -127c56 3 177 9 234 13l-4 -69c-65 -2 -176 -6 -248 -9c-3 -12 -3 -19 -3 -28c0 -6 0 -15 1 -23c54 1 188 5 247 7l-4 -68c-67 0 -153 0 -227 -2z" />
    <glyph glyph-name="Euro.fitted" unicode="&#xe009;" horiz-adv-x="661" 
d="M286 220c31 -57 123 -88 238 -88c29 0 61 2 75 6l9 -127c-18 -4 -55 -8 -92 -8c-249 0 -359 107 -395 213c-12 -1 -41 -3 -71 -4l-2 68c27 1 46 2 65 2c-1 5 -1 17 -1 24c0 9 0 20 3 37c-14 -1 -40 -1 -65 -3l3 71c35 1 64 1 76 1c53 135 190 254 434 303l32 -136
c-143 -18 -252 -76 -305 -158c62 4 200 11 263 15l-4 -76c-72 -2 -196 -7 -279 -11c-3 -14 -3 -22 -3 -32c0 -8 0 -18 1 -28c63 2 212 6 277 9l-4 -76c-74 0 -173 0 -255 -2z" />
    <glyph glyph-name="uni00AD" unicode="&#xad;" horiz-adv-x="391" 
d="M38 290l-5 122c51 -1 281 -3 322 -2l3 -109c-39 3 -282 -8 -320 -11z" />
    <glyph glyph-name="Mu.small" unicode="&#xe013;" horiz-adv-x="970" 
d="M161 -24l-146 49c15 35 201 519 234 592h12c44 -72 187 -315 215 -361c33 52 181 289 217 343h11c49 -103 221 -499 250 -563l-149 -60c-26 66 -125 328 -134 355c-18 -28 -148 -225 -205 -305h-11c-60 95 -156 252 -183 299h-2c-14 -40 -95 -312 -109 -349z" />
    <glyph glyph-name="Lambda.small" unicode="&#xe012;" 
d="M144 -25l-138 73c35 60 286 492 349 583h12c98 -141 325 -508 371 -573l-140 -82c-22 38 -167 287 -240 414c-70 -133 -197 -379 -214 -415z" />
    <glyph glyph-name="uni03BC" unicode="&#x3bc;" horiz-adv-x="970" 
d="M161 -24l-146 49c15 35 201 519 234 592h12c44 -72 187 -315 215 -361c33 52 181 289 217 343h11c49 -103 221 -499 250 -563l-149 -60c-26 66 -125 328 -134 355c-18 -28 -148 -225 -205 -305h-11c-60 95 -156 252 -183 299h-2c-14 -40 -95 -312 -109 -349z" />
    <glyph glyph-name="Rho.small" unicode="&#xe01e;" horiz-adv-x="625" 
d="M271 0h-165c1 37 3 241 3 302v93c0 20 -2 192 -2 205c132 0 229 -3 298 -16c104 -19 181 -73 181 -168c0 -120 -117 -229 -316 -258v-32c0 -17 0 -108 1 -126zM270 499v-239c73 10 144 53 144 139c0 41 -21 95 -144 100z" />
    <glyph glyph-name="Epsilontonos.small" unicode="&#xe006;" horiz-adv-x="583" 
d="M518 113l3 -122c-34 0 -340 9 -379 9c2 45 2 227 2 247v113c0 14 -2 219 -2 240c43 0 320 12 361 15l4 -116c-36 0 -187 -5 -203 -5v-144c18 0 127 4 173 8l2 -114c-26 0 -155 3 -175 3v-136c23 0 154 -2 214 2zM-19 411l-20 200l98 4l-18 -205z" />
    <glyph glyph-name="Zeta.small" unicode="&#xe030;" horiz-adv-x="636" 
d="M70 490l4 126c20 -2 122 -7 230 -12s223 -9 268 -9h26l4 -8c-27 -41 -317 -464 -327 -476c51 0 285 4 309 7l-4 -128c-21 0 -507 10 -548 10l-4 10c41 52 313 452 333 477c-32 0 -268 3 -291 3z" />
    <glyph glyph-name="Iotatonos.small" unicode="&#xe00e;" horiz-adv-x="417" 
d="M308 349v-92c0 -85 3 -237 4 -257h-170c1 37 2 236 2 258v92c0 15 -2 230 -3 250h171c-1 -15 -4 -149 -4 -251zM-17 411l-20 200l98 4l-18 -205z" />
    <glyph glyph-name="Upsilondieresis.smallalt" unicode="&#xe027;" horiz-adv-x="686" 
d="M99 179l-73 73l73 73l73 -73zM576 179l-73 73l73 73l73 -73zM423 0h-172c1 20 5 110 5 121v45c0 110 -51 194 -115 246c-36 29 -78 47 -110 58l56 144c56 -20 120 -55 156 -91c37 -38 78 -93 100 -161h4c23 63 56 113 103 156c43 40 108 80 170 98l44 -145
c-43 -10 -101 -35 -147 -76c-57 -51 -98 -133 -98 -228v-62c0 -12 2 -88 4 -105z" />
    <glyph glyph-name="Pi.small" unicode="&#xe01a;" horiz-adv-x="829" 
d="M781 605v-115c-23 1 -52 2 -83 2c-1 -18 -1 -147 -1 -167v-85c0 -11 2 -224 5 -240h-171c2 29 4 231 4 253v108c0 34 -1 118 -1 131c-26 -1 -190 -2 -237 -4c-1 -12 -2 -96 -2 -133v-99c0 -44 3 -236 4 -256h-169c2 37 3 236 3 258v92c0 15 -1 108 -2 134
c-27 -1 -56 -2 -83 -3v116c63 -1 312 -1 344 0c54 1 243 6 389 8z" />
    <glyph glyph-name="Alphatonos.small" unicode="&#xe001;" 
d="M144 -25l-138 73c35 60 286 492 349 583h12c98 -141 325 -508 371 -573l-140 -82c-22 38 -89 151 -94 160l-287 -12c-7 -14 -56 -113 -73 -149zM265 230l188 8c-19 37 -80 149 -95 176c-18 -33 -76 -150 -93 -184zM80 411l-20 200l98 4l-18 -205z" />
    <glyph glyph-name="Phi.small" unicode="&#xe019;" horiz-adv-x="848" 
d="M500 -69h-152c1 25 2 52 2 76c-182 16 -305 125 -305 264c0 156 123 275 306 302c0 21 -1 50 -2 71h152c-1 -22 -2 -48 -2 -67c164 -15 304 -111 304 -271c0 -134 -94 -268 -304 -294c0 -24 1 -57 1 -81zM494 478v-369c86 14 147 84 147 192c0 100 -66 166 -147 177z
M354 105v367c-89 -15 -147 -92 -147 -189c0 -102 65 -168 147 -178z" />
    <glyph glyph-name="Nu.small" unicode="&#xe014;" horiz-adv-x="788" 
d="M682 -15l-9 -4c-78 65 -419 342 -442 363c1 -33 0 -324 1 -350l-155 6c6 62 29 514 36 617l11 3c88 -70 400 -332 437 -364h2c0 46 -2 316 -1 348l152 -4c-5 -60 -16 -271 -23 -436c-3 -73 -8 -145 -9 -179z" />
    <glyph glyph-name="Ysmall.alt" unicode="&#xe02f;" horiz-adv-x="667" 
d="M420 0h-172c0 20 4 86 4 115v93c-48 90 -171 226 -242 295l120 119c74 -78 154 -189 212 -308h4c46 95 149 241 223 309l104 -117c-61 -56 -204 -203 -257 -303v-98c0 -26 2 -88 4 -105z" />
    <glyph glyph-name="Epsilon.small" unicode="&#xe005;" horiz-adv-x="548" 
d="M483 113l3 -122c-34 0 -340 9 -379 9c2 45 2 227 2 247v113c0 14 -2 219 -2 240c43 0 320 12 361 15l4 -116c-36 0 -187 -5 -203 -5v-144c18 0 127 4 173 8l2 -114c-26 0 -155 3 -175 3v-136c23 0 154 -2 214 2z" />
    <glyph glyph-name="Upsilon.small" unicode="&#xe024;" horiz-adv-x="629" 
d="M397 0h-172c1 20 5 110 5 121v45c0 110 -51 194 -115 246c-36 29 -78 47 -110 58l56 144c56 -20 120 -55 156 -91c37 -38 78 -93 100 -161h4c23 63 56 113 103 156c43 40 108 80 170 98l44 -145c-43 -10 -101 -35 -147 -76c-57 -51 -98 -133 -98 -228v-62
c0 -12 2 -88 4 -105z" />
    <glyph glyph-name="Chi.small" unicode="&#xe003;" horiz-adv-x="700" 
d="M140 -30l-113 106c20 19 194 200 221 230c-42 44 -173 182 -196 207l123 109c34 -41 138 -171 180 -218c27 30 157 178 191 217l115 -105c-25 -25 -190 -179 -213 -204c31 -32 197 -204 222 -230l-124 -111c-28 32 -177 209 -205 241c-16 -19 -182 -222 -201 -242z" />
    <glyph glyph-name="Ydieresis.alt" unicode="&#xe02d;" 
d="M457 0h-181c1 23 5 105 5 134v117c-45 96 -194 274 -266 348l131 129c80 -87 172 -223 228 -350h6c59 120 164 271 242 349l120 -127c-68 -61 -245 -265 -290 -353v-126c0 -25 3 -101 5 -121zM279 923l77 -76l-77 -76l-76 76zM505 923l77 -76l-77 -76l-76 76z" />
    <glyph glyph-name="Yacutesmall.alt" unicode="&#xe02c;" horiz-adv-x="667" 
d="M420 0h-172c0 20 4 86 4 115v93c-48 90 -171 226 -242 295l120 119c74 -78 154 -189 212 -308h4c46 95 149 241 223 309l104 -117c-61 -56 -204 -203 -257 -303v-98c0 -26 2 -88 4 -105zM291 728l149 112l51 -84l-168 -81z" />
    <glyph glyph-name="Omicrontonos.small" unicode="&#xe018;" horiz-adv-x="823" 
d="M402 -14h-1c-222 0 -329 145 -329 287c0 174 130 341 377 341c199 0 329 -110 329 -295c0 -131 -90 -333 -376 -333zM412 96c103 0 185 75 185 217c0 126 -68 191 -160 191c-116 0 -184 -99 -184 -218c0 -118 67 -190 159 -190zM-20 411l-20 200l98 4l-18 -205z" />
    <glyph glyph-name="Psi.alt" unicode="&#xe01b;" horiz-adv-x="872" 
d="M650 689l160 3c8 -54 14 -119 14 -188c0 -215 -134 -325 -303 -335c1 -77 2 -155 3 -169h-167c1 27 1 94 2 168c-169 10 -304 96 -304 323c0 66 6 147 14 201l160 -4c-8 -58 -10 -126 -10 -190c0 -157 67 -207 140 -213v127c0 17 -2 269 -2 310h167
c-1 -35 -4 -192 -4 -312v-126c85 14 140 75 140 226c0 53 -2 123 -10 179z" />
    <glyph glyph-name="Kappa.alt" unicode="&#xe00f;" horiz-adv-x="760" 
d="M642 -286l-112 97c44 40 59 77 59 119c0 33 -12 63 -53 115c-19 24 -174 214 -238 298h-5v-33c0 -77 3 -301 5 -320h-177c1 29 4 198 4 312v106c0 87 -4 285 -4 308h177c-1 -16 -5 -211 -5 -298v-34h5c56 66 269 302 292 329l119 -112c-38 -40 -186 -178 -239 -233
c34 -39 184 -198 221 -252c45 -65 58 -123 58 -179c0 -85 -45 -173 -107 -223z" />
    <glyph glyph-name="Delta.small" unicode="&#xe004;" horiz-adv-x="716" 
d="M732 2l-2 -5c-33 1 -103 2 -177 2c-74 1 -152 1 -204 1c-102 0 -271 -1 -361 -3l-3 6c32 55 286 506 365 628h7c91 -138 335 -564 375 -629zM502 122c-19 27 -132 240 -152 280c-24 -44 -133 -254 -144 -279c20 -1 91 -3 147 -3c55 0 130 1 149 2z" />
    <glyph glyph-name="Psi.smallalt" unicode="&#xe01d;" horiz-adv-x="791" 
d="M599 586l147 2c7 -46 13 -101 13 -160c0 -182 -125 -276 -284 -284c1 -66 2 -132 3 -144h-157c1 23 1 80 2 143c-159 8 -284 81 -284 274c0 56 6 125 13 171l147 -3c-8 -49 -10 -107 -10 -162c0 -133 65 -176 135 -181v108c0 15 -3 229 -3 264h157
c-1 -30 -4 -163 -4 -266v-107c80 12 135 64 135 192c0 46 -2 105 -10 153z" />
    <glyph glyph-name="Sigma.alt" unicode="&#xe01f;" horiz-adv-x="527" 
d="M446 374v-11c-64 -66 -120 -122 -182 -184v-5c78 -40 140 -66 229 -103l-61 -134c-120 55 -268 126 -391 196v19c75 70 156 153 210 208v4c-67 66 -140 142 -198 199v18c110 57 272 136 377 186l54 -135c-80 -30 -137 -50 -210 -83l-1 -4c45 -46 102 -104 173 -171z" />
    <glyph glyph-name="Upsilondieresis.small" unicode="&#xe026;" horiz-adv-x="629" 
d="M397 0h-172c1 20 5 110 5 121v45c0 110 -51 194 -115 246c-36 29 -78 47 -110 58l56 144c56 -20 120 -55 156 -91c37 -38 78 -93 100 -161h4c23 63 56 113 103 156c43 40 108 80 170 98l44 -145c-43 -10 -101 -35 -147 -76c-57 -51 -98 -133 -98 -228v-62
c0 -12 2 -88 4 -105zM209 688l-73 73l73 73l73 -73zM435 688l-73 73l73 73l73 -73z" />
    <glyph glyph-name="Upsilondieresis.alt" unicode="&#xe025;" horiz-adv-x="744" 
d="M455 0h-179c1 23 5 129 5 142v57c0 130 -59 233 -129 294c-40 35 -86 62 -127 76l67 153c61 -27 129 -68 170 -110c41 -44 87 -107 110 -184h6c25 71 64 126 115 178c46 47 118 95 184 116l55 -153c-53 -13 -118 -48 -168 -97c-63 -61 -114 -156 -114 -272v-77
c0 -14 3 -103 5 -123zM130 351l77 -76l-77 -76l-76 76zM606 351l77 -76l-77 -76l-76 76z" />
    <glyph glyph-name="Sigma.smallalt" unicode="&#xe021;" horiz-adv-x="472" 
d="M397 308v-9c-61 -56 -113 -104 -172 -156v-5c73 -34 133 -56 217 -87l-58 -114c-113 47 -253 107 -370 167v16c71 59 148 130 203 177v3c-67 56 -136 121 -191 169v15c104 49 257 116 356 158l51 -114c-75 -26 -129 -43 -199 -71v-3c42 -39 95 -89 163 -146z" />
    <glyph glyph-name="Upsilontonos.small" unicode="&#xe028;" horiz-adv-x="711" 
d="M479 0h-172c1 20 5 110 5 121v45c0 110 -51 194 -115 246c-36 29 -78 47 -110 58l56 144c56 -20 120 -55 156 -91c37 -38 78 -93 100 -161h4c23 63 56 113 103 156c43 40 108 80 170 98l44 -145c-43 -10 -101 -35 -147 -76c-57 -51 -98 -133 -98 -228v-62
c0 -12 2 -88 4 -105zM-37 411l-20 200l98 4l-18 -205z" />
    <glyph glyph-name="Xi.small" unicode="&#xe029;" horiz-adv-x="681" 
d="M97 469l-3 134c87 0 363 5 514 11l4 -134c-148 -3 -416 -8 -515 -11zM126 233l-2 131c105 -1 317 5 446 8l2 -133c-112 1 -277 -4 -446 -6zM73 3v134c91 -3 374 -7 542 -2l4 -138c-142 0 -453 6 -546 6z" />
    <glyph glyph-name="Omegatonos.small" unicode="&#xe016;" horiz-adv-x="878" 
d="M845 115l3 -119c-13 0 -328 3 -316 3l-2 40c74 73 100 154 100 284c0 115 -68 182 -164 182c-126 0 -189 -97 -189 -210c0 -102 37 -190 113 -256l-3 -39c-52 0 -339 -4 -351 -4l3 119c44 -3 130 -5 155 -5l2 5c-48 29 -98 106 -98 186c0 160 133 313 381 313
c205 0 330 -114 330 -273c0 -98 -55 -188 -112 -228l2 -5c29 1 102 4 146 7zM-23 411l-20 200l98 4l-18 -205z" />
    <glyph glyph-name="Psi.small" unicode="&#xe01c;" horiz-adv-x="817" 
d="M632 575l153 -25c-8 -35 -17 -82 -28 -140c-28 -168 -114 -257 -269 -266c1 -63 2 -132 3 -144h-157c1 23 1 82 2 143c-153 11 -241 97 -269 267c-11 58 -20 107 -28 147l154 22c3 -43 9 -108 20 -164c19 -114 60 -167 124 -171v100c0 14 -3 225 -3 266h157
c-1 -36 -3 -167 -3 -268v-99c75 9 105 66 124 172c10 56 16 120 20 160z" />
    <glyph glyph-name="Omicron.small" unicode="&#xe017;" horiz-adv-x="796" 
d="M375 -14h-1c-222 0 -329 145 -329 287c0 174 130 341 377 341c199 0 329 -110 329 -295c0 -131 -90 -333 -376 -333zM385 96c103 0 185 75 185 217c0 126 -68 191 -160 191c-116 0 -184 -99 -184 -218c0 -118 67 -190 159 -190z" />
    <glyph glyph-name="Yacute.alt" unicode="&#xe02b;" 
d="M457 0h-181c1 23 5 105 5 134v117c-45 96 -194 274 -266 348l131 129c80 -87 172 -223 228 -350h6c59 120 164 271 242 349l120 -127c-68 -61 -245 -265 -290 -353v-126c0 -25 3 -101 5 -121zM484 933l53 -89l-176 -85l-34 56z" />
    <glyph glyph-name="Sigma.small" unicode="&#xe020;" horiz-adv-x="606" 
d="M500 308v-11c-75 -60 -148 -116 -214 -169v-4c76 -12 227 -34 290 -44l-22 -122c-134 23 -400 71 -540 102v16c105 82 217 163 286 217v3c-54 42 -186 141 -272 207v15c144 34 358 78 507 109l22 -121c-80 -15 -192 -30 -268 -42v-3c73 -54 150 -106 211 -153z" />
    <glyph glyph-name="Ydieresissmall.alt" unicode="&#xe02e;" horiz-adv-x="667" 
d="M420 0h-172c0 20 4 86 4 115v93c-48 90 -171 226 -242 295l120 119c74 -78 154 -189 212 -308h4c46 95 149 241 223 309l104 -117c-61 -56 -204 -203 -257 -303v-98c0 -26 2 -88 4 -105zM228 688l-73 73l73 73l73 -73zM454 688l-73 73l73 73l73 -73z" />
    <glyph glyph-name="Etatonos.small" unicode="&#xe008;" horiz-adv-x="857" 
d="M311 0h-169c1 37 2 236 2 258v92c0 15 -2 230 -4 250h172c-2 -15 -5 -183 -5 -198v-43l276 16v45c0 14 -2 161 -4 180h172c-1 -20 -5 -255 -5 -275v-85c0 -11 2 -224 4 -240h-171c1 29 4 172 4 188v70l-276 -16v-36c0 -38 3 -186 4 -206zM-19 411l-20 200l98 4l-18 -205z
" />
    <glyph glyph-name="Theta.small" unicode="&#xe023;" horiz-adv-x="799" 
d="M289 245l-8 87c40 2 194 12 230 17l8 -89c-55 -2 -194 -11 -230 -15zM751 319c0 -131 -90 -333 -377 -333c-222 0 -329 145 -329 287c0 174 130 341 377 341c199 0 329 -110 329 -295zM570 313c0 126 -68 191 -160 191c-116 0 -184 -99 -184 -218
c0 -118 67 -190 159 -190c103 0 185 75 185 217z" />
    <glyph glyph-name="Eta.small" unicode="&#xe007;" horiz-adv-x="824" 
d="M278 0h-169c1 37 2 236 2 258v92c0 15 -2 230 -4 250h172c-2 -15 -5 -183 -5 -198v-43l276 16v45c0 14 -2 161 -4 180h172c-1 -20 -5 -255 -5 -275v-85c0 -11 2 -224 4 -240h-171c1 29 4 172 4 188v70l-276 -16v-36c0 -38 3 -186 4 -206z" />
    </font>
</defs>
</svg>
